<?xml version="1.0" encoding="utf-8"?>
<!-- Generator: Adobe Illustrator 18.0.0, SVG Export Plug-In . SVG Version: 6.00 Build 0)  -->
<!DOCTYPE svg PUBLIC "-//W3C//DTD SVG 1.1//EN" "http://www.w3.org/Graphics/SVG/1.1/DTD/svg11.dtd">
<svg version="1.1" xmlns="http://www.w3.org/2000/svg" xmlns:xlink="http://www.w3.org/1999/xlink" x="0px" y="0px"
	 viewBox="-32.7 738.2 96.2 29.9" enable-background="new -32.7 738.2 96.2 29.9" xml:space="preserve">
<g id="Layer_1" display="none">
	<polygon display="inline" fill="#BCBEC0" points="-300.6,441.1 610.3,441.1 610.3,1187.7 -300.6,1187.7 	"/>
	<g display="inline">
		<g>
			<defs>
				<rect id="SVGID_1_" x="-300.6" y="441.1" width="910.9" height="746.6"/>
			</defs>
			<clipPath id="SVGID_2_">
				<use xlink:href="#SVGID_1_"  overflow="visible"/>
			</clipPath>
			<polygon clip-path="url(#SVGID_2_)" fill="#A7A9AC" points="53.4,729 83.2,729 83.2,688.2 101.8,688.2 100.7,648.7 83.2,648.7 
				83.2,551.3 54.7,551.3 53.6,466.9 -212.5,468 -212.5,436.3 610.1,436.3 610.1,973 422.7,973 423.8,648.7 142.3,648.7 
				141.8,688.2 141.8,769.1 93.4,769.1 93.4,824.9 52.4,824.9 			"/>
		</g>
	</g>
	<polygon display="inline" fill="#E6E7E8" points="-188.4,832.6 -149.3,832.6 -149.3,824.6 -137.9,824.6 -137.9,816.5 -64.5,816.5 
		-64.5,796.8 -58.1,796.8 -58.1,699.6 -42.4,699.6 -42.4,744.1 3.1,744.1 3.1,778.5 16,778.5 16,819.4 56.6,819.4 56.6,828.9 
		96.4,828.9 96.4,792.4 143.4,792.4 143.4,743.4 228.9,743.4 228.9,782.9 184,782.9 184,834.1 218.2,834.1 218.2,821.6 240.3,821.6 
		240.3,831.1 253.1,831.1 253.1,823.1 279.5,823.1 279.5,805.5 300.8,805.5 300.8,831.1 338.6,831.1 338.6,817.2 364.2,817.2 
		364.2,829.7 381.3,829.7 381.3,818 416.9,818 416.9,831.1 436.9,831.1 436.9,858.9 426.9,858.9 426.9,851.6 410.5,851.6 
		410.5,841.4 388.4,841.4 388.4,856 379.2,856 379.2,879.4 368.5,879.4 368.5,843.6 324.3,843.6 324.3,937.9 -88.7,937.9 
		-88.7,860.4 -120.8,860.4 -120.8,886.7 -188.9,886.7 	"/>
	<g display="inline">
		<g>
			<defs>
				<rect id="SVGID_3_" x="-300.6" y="441.1" width="910.9" height="746.6"/>
			</defs>
			<clipPath id="SVGID_4_">
				<use xlink:href="#SVGID_3_"  overflow="visible"/>
			</clipPath>
			<path clip-path="url(#SVGID_4_)" fill="none" stroke="#FFFFFF" stroke-width="1.5" stroke-miterlimit="3.8637" d="M-311.9,837.6
				h933.8 M233.9,1191.7V435.1 M52.3,1191.7V430.8 M-129.3,1191.7V430.8 M-75.9,837v92.1 M-310.8,930.1h545.4 M422.7,1192.4V649.8
				 M-317.4,650.3h942.8"/>
		</g>
	</g>
</g>
<g id="Layer_2">
	<g>
		<polygon points="-28.5,752.8 0,752.8 0,768.1 -28.5,768.1 		"/>
		<path fill="#020405" d="M-27.3,746.9c0-0.8-0.2-1.4-0.5-2c-0.4-0.6-0.9-1.2-1.8-1.7c-0.7-0.5-1.2-0.9-1.4-1.3
			c-0.2-0.4-0.3-0.8-0.3-1.2c0-0.4,0.1-0.7,0.3-1s0.5-0.4,1-0.4c0.4,0,0.7,0.1,1,0.3c0.3,0.2,0.5,0.6,0.7,1l0.9-0.5
			c-0.3-0.6-0.6-1-1-1.3c-0.4-0.3-0.9-0.5-1.6-0.5c-0.8,0-1.3,0.3-1.8,0.7c-0.4,0.5-0.6,1.1-0.7,1.8c0,0.7,0.2,1.3,0.5,1.8
			c0.3,0.5,0.9,1,1.7,1.5c0.7,0.5,1.2,1,1.5,1.5c0.3,0.5,0.4,1,0.4,1.5c0,0.5-0.1,0.8-0.4,1.1c-0.3,0.3-0.6,0.4-1.1,0.4
			c-0.4,0-0.7-0.1-1-0.4c-0.3-0.3-0.5-0.7-0.7-1.2l-1,0.5c0.2,0.7,0.6,1.2,1,1.6c0.4,0.4,1,0.6,1.7,0.6c0.8,0,1.5-0.3,2-0.8
			C-27.6,748.3-27.3,747.7-27.3,746.9L-27.3,746.9z M-19.7,746.1v-7.7h-1.1v7.7c0,0.8-0.1,1.4-0.4,1.8c-0.3,0.4-0.7,0.6-1.3,0.6
			c-0.6,0-1-0.2-1.4-0.6c-0.3-0.4-0.5-1-0.5-1.8v-7.7h-1.1v7.7c0,1.1,0.3,2,0.7,2.6c0.5,0.6,1.2,0.9,2.1,0.9c0.9,0,1.6-0.3,2.1-0.9
			C-19.9,748.1-19.7,747.2-19.7,746.1L-19.7,746.1z M-12.1,741.4c0-1.1-0.3-1.8-0.8-2.3c-0.5-0.5-1.2-0.7-2-0.7h-2.6v11h1.1v-4.8
			h1.3c0.9,0,1.6-0.3,2.1-0.8C-12.4,743.3-12.1,742.5-12.1,741.4L-12.1,741.4z M-13.2,741.5c0,0.7-0.2,1.2-0.5,1.6
			c-0.3,0.3-0.8,0.5-1.4,0.5h-1.4v-4.2h1.4c0.6,0,1,0.2,1.3,0.5C-13.4,740.3-13.2,740.8-13.2,741.5L-13.2,741.5z M-5.6,749.4v-1
			h-3.8V744h2.3v-1h-2.3v-3.6h3.6v-1h-4.7v11L-5.6,749.4L-5.6,749.4z M1.7,749.4L0,744.1c0.5-0.2,0.9-0.6,1.2-1
			c0.3-0.5,0.5-1.1,0.5-1.8c0-1-0.3-1.7-0.8-2.2c-0.5-0.5-1.2-0.7-2-0.7h-2.7v11h1.1v-5c0.1,0,0.2,0,0.5,0s0.4,0,0.7,0
			c0.2,0,0.3,0,0.4,0l1.7,5H1.7z M0.6,741.4c0,0.7-0.2,1.2-0.5,1.5c-0.3,0.3-0.8,0.5-1.4,0.5h-1.4v-4h1.5c0.6,0,1,0.2,1.3,0.5
			C0.4,740.2,0.6,740.7,0.6,741.4L0.6,741.4z M10.5,749.4v-11H9.3l-1.7,5.8c-0.1,0.5-0.3,0.9-0.4,1.4S7,746.4,7,746.8
			c0-0.4-0.1-0.8-0.2-1.2c-0.1-0.4-0.2-0.9-0.4-1.4l-1.7-5.8H3.5v11h1v-6.6c0-0.3,0-0.7,0-1c0-0.4,0-0.7,0-0.9
			c0.1,0.3,0.1,0.7,0.2,1c0.1,0.3,0.2,0.7,0.3,1.1l1.9,6.7l1.9-6.7c0.1-0.4,0.2-0.8,0.3-1.2c0.1-0.3,0.2-0.7,0.2-1
			c0,0.3,0,0.6,0,0.9c0,0.4,0,0.7,0,1v6.6L10.5,749.4L10.5,749.4z M18.6,749.4l-2.6-11h-1.2l-2.6,11h1.1l0.7-2.9h2.9l0.6,2.9H18.6z
			 M16.6,745.5h-2.4l0.6-2.7c0.1-0.5,0.2-1.1,0.3-1.6c0.1-0.5,0.2-1,0.3-1.4c0.1,0.4,0.2,0.9,0.3,1.4c0.1,0.5,0.2,1.1,0.3,1.6
			L16.6,745.5z M25.8,749.4l-1.7-5.3c0.5-0.2,0.9-0.6,1.2-1c0.3-0.5,0.5-1.1,0.5-1.8c0-1-0.3-1.7-0.8-2.2c-0.5-0.5-1.2-0.7-2-0.7
			h-2.7v11h1.1v-5c0.1,0,0.2,0,0.5,0c0.2,0,0.4,0,0.7,0c0.2,0,0.3,0,0.4,0l1.7,5H25.8z M24.7,741.4c0,0.7-0.2,1.2-0.5,1.5
			c-0.3,0.3-0.8,0.5-1.4,0.5h-1.4v-4h1.5c0.6,0,1,0.2,1.3,0.5C24.5,740.2,24.7,740.7,24.7,741.4L24.7,741.4z M33.3,749.4l-2.7-6.9
			l2.4-4.1h-1.2l-1.9,3.2c-0.2,0.3-0.4,0.7-0.6,1.1c-0.2,0.4-0.4,0.8-0.6,1c0-0.2,0-0.5,0-0.9c0-0.4,0-0.7,0-0.9v-3.6h-1.1v11h1.1
			v-4.1l1.1-1.7l2.3,5.8L33.3,749.4L33.3,749.4z M39.8,749.4v-1H36V744h2.3v-1H36v-3.6h3.6v-1h-4.7v11L39.8,749.4L39.8,749.4z
			 M46.5,739.4v-1h-5.6v1h2.2v10h1.1v-10H46.5z M56.5,742.2c0-1.3-0.3-2.4-0.8-3c-0.5-0.7-1.2-1-2-1c-0.9,0-1.6,0.3-2.1,1
			c-0.5,0.6-0.8,1.5-0.8,2.5c0,1,0.2,1.8,0.7,2.4c0.5,0.6,1.1,0.9,1.9,0.9c0.5,0,0.9-0.1,1.2-0.3c0.3-0.2,0.6-0.4,0.8-0.7
			c-0.2,1.1-0.6,2.1-1.2,2.9c-0.6,0.8-1.4,1.4-2.4,1.7l0.3,0.9c1-0.4,1.8-0.9,2.5-1.6c0.6-0.7,1.1-1.6,1.4-2.6
			C56.4,744.4,56.5,743.3,56.5,742.2L56.5,742.2z M55.4,741.6c0,0.7-0.1,1.2-0.4,1.7c-0.3,0.4-0.7,0.7-1.3,0.7c-0.6,0-1-0.2-1.3-0.7
			s-0.4-1-0.4-1.7c0-0.7,0.2-1.3,0.5-1.7c0.3-0.4,0.7-0.7,1.3-0.7c0.5,0,0.9,0.2,1.3,0.7C55.3,740.3,55.4,740.9,55.4,741.6
			L55.4,741.6z"/>
		<path fill="#020405" d="M63.5,742.2c0-1.3-0.3-2.4-0.8-3c-0.5-0.7-1.2-1-2-1c-0.9,0-1.6,0.3-2.1,1c-0.5,0.6-0.8,1.5-0.8,2.5
			c0,1,0.2,1.8,0.7,2.4c0.5,0.6,1.1,0.9,1.9,0.9c0.5,0,0.9-0.1,1.2-0.3c0.3-0.2,0.6-0.4,0.8-0.7c-0.2,1.1-0.6,2.1-1.2,2.9
			c-0.6,0.8-1.4,1.4-2.4,1.7l0.3,0.9c1-0.4,1.8-0.9,2.5-1.6c0.6-0.7,1.1-1.6,1.4-2.6C63.3,744.4,63.5,743.3,63.5,742.2L63.5,742.2z
			 M62.4,741.6c0,0.7-0.1,1.2-0.4,1.7c-0.3,0.4-0.7,0.7-1.3,0.7c-0.6,0-1-0.2-1.3-0.7s-0.4-1-0.4-1.7c0-0.7,0.2-1.3,0.5-1.7
			c0.3-0.4,0.7-0.7,1.3-0.7c0.5,0,0.9,0.2,1.3,0.7C62.2,740.3,62.4,740.9,62.4,741.6L62.4,741.6z"/>
	</g>
</g>
</svg>
