<?xml version="1.0" encoding="utf-8"?>
<!-- Generator: Adobe Illustrator 18.0.0, SVG Export Plug-In . SVG Version: 6.00 Build 0)  -->
<!DOCTYPE svg PUBLIC "-//W3C//DTD SVG 1.1//EN" "http://www.w3.org/Graphics/SVG/1.1/DTD/svg11.dtd">
<svg version="1.1" xmlns="http://www.w3.org/2000/svg" xmlns:xlink="http://www.w3.org/1999/xlink" x="0px" y="0px"
	 viewBox="147.4 711.8 75.2 115.9" enable-background="new 147.4 711.8 75.2 115.9" xml:space="preserve">
<g id="Layer_1" display="none">
	<polygon display="inline" fill="#BCBEC0" points="-300.6,441.1 610.3,441.1 610.3,1187.7 -300.6,1187.7 	"/>
	<g display="inline">
		<g>
			<defs>
				<rect id="SVGID_1_" x="-300.6" y="441.1" width="910.9" height="746.6"/>
			</defs>
			<clipPath id="SVGID_2_">
				<use xlink:href="#SVGID_1_"  overflow="visible"/>
			</clipPath>
			<polygon clip-path="url(#SVGID_2_)" fill="#A7A9AC" points="53.4,729 83.2,729 83.2,688.2 101.8,688.2 100.7,648.7 83.2,648.7 
				83.2,551.3 54.7,551.3 53.6,466.9 -212.5,468 -212.5,436.3 610.1,436.3 610.1,973 422.7,973 423.8,648.7 142.3,648.7 
				141.8,688.2 141.8,769.1 93.4,769.1 93.4,824.9 52.4,824.9 			"/>
		</g>
	</g>
	<polygon display="inline" fill="#E6E7E8" points="-188.4,832.6 -149.3,832.6 -149.3,824.6 -137.9,824.6 -137.9,816.5 -64.5,816.5 
		-64.5,796.8 -58.1,796.8 -58.1,699.6 -42.4,699.6 -42.4,744.1 3.1,744.1 3.1,778.5 16,778.5 16,819.4 56.6,819.4 56.6,828.9 
		96.4,828.9 96.4,792.4 143.4,792.4 143.4,743.4 228.9,743.4 228.9,782.9 184,782.9 184,834.1 218.2,834.1 218.2,821.6 240.3,821.6 
		240.3,831.1 253.1,831.1 253.1,823.1 279.5,823.1 279.5,805.5 300.8,805.5 300.8,831.1 338.6,831.1 338.6,817.2 364.2,817.2 
		364.2,829.7 381.3,829.7 381.3,818 416.9,818 416.9,831.1 436.9,831.1 436.9,858.9 426.9,858.9 426.9,851.6 410.5,851.6 
		410.5,841.4 388.4,841.4 388.4,856 379.2,856 379.2,879.4 368.5,879.4 368.5,843.6 324.3,843.6 324.3,937.9 -88.7,937.9 
		-88.7,860.4 -120.8,860.4 -120.8,886.7 -188.9,886.7 	"/>
	<g display="inline">
		<g>
			<defs>
				<rect id="SVGID_3_" x="-300.6" y="441.1" width="910.9" height="746.6"/>
			</defs>
			<clipPath id="SVGID_4_">
				<use xlink:href="#SVGID_3_"  overflow="visible"/>
			</clipPath>
			<path clip-path="url(#SVGID_4_)" fill="none" stroke="#FFFFFF" stroke-width="1.5" stroke-miterlimit="3.8637" d="M-311.9,837.6
				h933.8 M233.9,1191.7V435.1 M52.3,1191.7V430.8 M-129.3,1191.7V430.8 M-75.9,837v92.1 M-310.8,930.1h545.4 M422.7,1192.4V649.8
				 M-317.4,650.3h942.8"/>
		</g>
	</g>
	<polygon display="inline" points="1.1,780.3 15.8,780.3 15.8,829.7 1.1,829.7 	"/>
	<polygon display="inline" points="-124.4,842.1 -106.1,842.1 -106.1,858 -124.4,858 	"/>
	<path display="inline" fill="#808285" d="M-103.4,597.1h-2.3l-0.7,5.1c0,0.4-0.1,0.8-0.2,1.2c0,0.5-0.1,1-0.2,1.5
		c0,0.5-0.1,0.9-0.1,1.2c0-0.3-0.1-0.7-0.2-1.2c-0.1-0.5-0.2-1-0.3-1.5c-0.1-0.5-0.2-0.9-0.2-1.2l-1-5.1h-2l-1,5.1
		c-0.1,0.4-0.1,0.8-0.2,1.2c-0.1,0.5-0.2,1-0.2,1.5c-0.1,0.5-0.1,0.9-0.2,1.2c0-0.3-0.1-0.7-0.1-1.2c-0.1-0.5-0.1-1-0.2-1.5
		c-0.1-0.5-0.1-0.9-0.2-1.2l-0.7-5.1h-2.3l2.2,13.8h2.1l1.2-5.8c0.3-1.3,0.5-2.5,0.6-3.5c0.1,0.5,0.2,1,0.3,1.6
		c0.1,0.6,0.2,1.2,0.4,1.9l1.2,5.8h2.1L-103.4,597.1z M-94.4,611v-2.4h-4.8v-3.8h3.1v-2.3h-3.1v-2.9h4.6v-2.4h-7.1V611L-94.4,611
		L-94.4,611z M-84.9,607.2c0-0.8-0.1-1.4-0.4-1.9c-0.3-0.5-0.6-1-1.1-1.4c-0.5-0.4-1.2-0.8-2-1.2c-0.7-0.4-1.3-0.7-1.6-1.1
		c-0.3-0.3-0.4-0.7-0.4-1.1c0-0.4,0.1-0.6,0.4-0.9c0.2-0.2,0.6-0.3,0.9-0.3c0.5,0,0.8,0.1,1.1,0.3c0.3,0.2,0.6,0.5,1,0.9l1.6-1.6
		c-0.5-0.7-1-1.1-1.6-1.5c-0.6-0.3-1.3-0.5-2.1-0.5c-1.2,0-2.1,0.4-2.8,1.1c-0.7,0.7-1,1.6-1.1,2.6c0,1.1,0.3,2,0.9,2.7
		c0.6,0.7,1.4,1.2,2.4,1.7c0.8,0.4,1.3,0.8,1.7,1.1c0.3,0.4,0.5,0.7,0.5,1.1c0,0.5-0.1,0.8-0.4,1.1c-0.3,0.3-0.7,0.4-1.2,0.4
		c-0.4,0-0.8-0.1-1.3-0.4c-0.4-0.3-0.8-0.7-1.3-1.2l-1.7,1.8c0.5,0.6,1,1.1,1.7,1.5c0.7,0.4,1.5,0.6,2.4,0.7c1.3,0,2.3-0.4,3-1.1
		C-85.2,609.3-84.9,608.4-84.9,607.2L-84.9,607.2z"/>
	<path display="inline" fill="#808285" d="M-76,599.5v-2.4h-8.2v2.4h2.9V611h2.5v-11.4H-76z M-64.2,611v-13.8h-2.4l-1.6,5.1
		c-0.2,0.6-0.4,1.2-0.6,1.8c-0.2,0.6-0.3,1-0.4,1.4c-0.1-0.3-0.2-0.8-0.4-1.3c-0.2-0.6-0.4-1.1-0.6-1.8l-1.6-5.1h-2.5V611h2.2v-4.5
		c0-0.8,0-1.6,0-2.3c0-0.7,0-1.3,0-1.9c0.1,0.5,0.3,1.1,0.5,1.8c0.2,0.7,0.5,1.5,0.7,2.3l1.6,4.9l1.6-4.9c0.3-0.8,0.5-1.6,0.7-2.3
		c0.2-0.7,0.4-1.3,0.5-1.8c0,0.5,0,1.1,0,1.9c0,0.7,0,1.5,0,2.3v4.5H-64.2L-64.2,611z M-59.1,611v-13.8h-2.5V611H-59.1z M-48.2,611
		v-13.8h-2.2v5.7c0,0.5,0,1,0,1.6c0,0.6,0,1.1,0,1.6c-0.1-0.4-0.3-0.9-0.5-1.4c-0.2-0.5-0.4-1-0.6-1.5l-2.4-6.1h-2.5V611h2.2v-5.8
		c0-0.5,0-1,0-1.6c0-0.6,0-1.1,0-1.6c0.1,0.4,0.3,0.9,0.5,1.4c0.2,0.5,0.4,1,0.6,1.4l2.5,6.2H-48.2z M-38.2,607.2
		c0-0.8-0.1-1.4-0.4-1.9c-0.3-0.5-0.6-1-1.1-1.4c-0.5-0.4-1.2-0.8-2-1.2c-0.7-0.4-1.3-0.7-1.6-1.1c-0.3-0.3-0.4-0.7-0.4-1.1
		c0-0.4,0.1-0.6,0.4-0.9c0.2-0.2,0.6-0.3,0.9-0.3c0.5,0,0.8,0.1,1.1,0.3c0.3,0.2,0.6,0.5,1,0.9l1.6-1.6c-0.5-0.7-1-1.1-1.6-1.5
		c-0.6-0.3-1.3-0.5-2.1-0.5c-1.2,0-2.1,0.4-2.8,1.1c-0.7,0.7-1,1.6-1.1,2.6c0,1.1,0.3,2,0.9,2.7c0.6,0.7,1.4,1.2,2.4,1.7
		c0.8,0.4,1.3,0.8,1.7,1.1s0.5,0.7,0.5,1.1c0,0.5-0.1,0.8-0.4,1.1c-0.3,0.3-0.6,0.4-1.2,0.4c-0.4,0-0.8-0.1-1.3-0.4
		c-0.4-0.3-0.8-0.7-1.3-1.2l-1.7,1.8c0.5,0.6,1,1.1,1.7,1.5c0.7,0.4,1.5,0.6,2.4,0.7c1.3,0,2.3-0.4,3-1.1
		C-38.6,609.3-38.2,608.4-38.2,607.2L-38.2,607.2z"/>
	<path display="inline" fill="#808285" d="M-29.3,599.5v-2.4h-8.2v2.4h2.9V611h2.5v-11.4H-29.3z M-20.2,611v-2.4H-25v-3.8h3.1v-2.3
		H-25v-2.9h4.6v-2.4h-7.1V611L-20.2,611L-20.2,611z M-10,611l-2.4-5.7c0.7-0.3,1.2-0.8,1.7-1.4c0.4-0.6,0.7-1.4,0.7-2.4
		c0-1.4-0.4-2.5-1.2-3.2c-0.8-0.7-1.8-1.1-3.2-1.1h-3.7V611h2.5v-5.2h0.8l2.1,5.2H-10z M-12.5,601.5c0,0.6-0.2,1.1-0.5,1.4
		c-0.3,0.3-0.8,0.5-1.4,0.5h-1.2v-3.8h1.1c0.7,0,1.3,0.2,1.6,0.5C-12.7,600.4-12.5,600.9-12.5,601.5L-12.5,601.5z"/>
	<path display="inline" fill="#808285" d="M146.7,587.8v-2.4h-4.4v2.3h2c0,1-0.1,1.7-0.4,2.2c-0.3,0.4-0.8,0.7-1.5,0.6
		c-0.7,0-1.3-0.4-1.6-1.2c-0.3-0.8-0.5-2-0.5-3.4c0-1.5,0.2-2.6,0.5-3.4c0.3-0.8,0.8-1.2,1.6-1.2c0.5,0,0.9,0.1,1.2,0.4
		c0.3,0.3,0.6,0.7,0.8,1.4l2.3-0.7c-0.3-1.2-0.8-2.1-1.5-2.6c-0.7-0.6-1.6-0.8-2.7-0.8c-1.1,0-2,0.3-2.6,1c-0.7,0.6-1.2,1.5-1.5,2.5
		c-0.3,1.1-0.5,2.3-0.5,3.6c0,1.3,0.2,2.5,0.5,3.6c0.3,1.1,0.8,1.9,1.5,2.5c0.7,0.6,1.6,0.9,2.6,1c1.4,0,2.5-0.5,3.3-1.4
		C146.4,590.7,146.7,589.4,146.7,587.8L146.7,587.8z"/>
	<path display="inline" fill="#808285" d="M157.4,592.8l-3.5-13.8h-2.4l-3.5,13.8h2.5l0.6-2.9h3.1l0.6,2.9H157.4z M153.6,587.6h-2
		l0.4-1.7c0.1-0.6,0.3-1.2,0.4-1.8c0.1-0.6,0.2-1.1,0.3-1.5c0.1,0.4,0.1,0.9,0.3,1.5c0.1,0.7,0.3,1.3,0.4,1.8L153.6,587.6z
		 M167.3,592.8l-2.4-5.7c0.7-0.3,1.2-0.8,1.7-1.4c0.4-0.6,0.6-1.4,0.7-2.4c0-1.4-0.4-2.5-1.2-3.2c-0.8-0.7-1.8-1.1-3.2-1.1h-3.7
		v13.8h2.5v-5.2h0.8l2.1,5.2L167.3,592.8L167.3,592.8z M164.8,583.3c0,0.6-0.2,1.1-0.5,1.4c-0.3,0.3-0.8,0.5-1.4,0.5h-1.2v-3.8h1.1
		c0.7,0,1.3,0.2,1.6,0.5C164.6,582.2,164.8,582.7,164.8,583.3L164.8,583.3z M177.6,585.9c0-2.4-0.5-4.2-1.4-5.3
		c-0.9-1.1-2.2-1.6-3.9-1.6h-3.1v13.8h3.1c1.6,0,2.9-0.5,3.9-1.6C177.1,590,177.6,588.3,177.6,585.9L177.6,585.9z M175.1,585.9
		c0,1.3-0.2,2.4-0.5,3.2c-0.4,0.8-1.1,1.3-2.2,1.3h-0.6v-9h0.6c1.1,0,1.8,0.5,2.2,1.3C174.9,583.5,175.1,584.6,175.1,585.9
		L175.1,585.9z M187,592.8v-2.4h-4.8v-3.8h3.1v-2.3h-3.1v-2.9h4.6V579h-7.1v13.8H187z M197.2,592.8V579H195v5.7c0,0.5,0,1,0,1.6
		c0,0.6,0,1.1,0,1.6c-0.1-0.4-0.3-0.9-0.5-1.4c-0.2-0.5-0.4-1-0.6-1.5l-2.4-6.1h-2.5v13.8h2.2V587c0-0.5,0-1,0-1.6
		c0-0.6,0-1.1,0-1.6c0.1,0.4,0.3,0.9,0.5,1.4c0.2,0.5,0.4,1,0.6,1.4l2.5,6.2L197.2,592.8L197.2,592.8z"/>
	<path display="inline" fill="#808285" d="M152.4,607.5v-2.4H148v2.3h2c0,1-0.1,1.7-0.4,2.2c-0.3,0.4-0.8,0.7-1.5,0.6
		c-0.7,0-1.3-0.4-1.6-1.2c-0.3-0.8-0.5-2-0.5-3.4c0-1.5,0.2-2.6,0.5-3.4c0.3-0.8,0.9-1.2,1.6-1.2c0.5,0,0.9,0.1,1.2,0.4
		c0.3,0.3,0.6,0.7,0.8,1.4l2.3-0.7c-0.3-1.2-0.8-2.1-1.5-2.6c-0.7-0.6-1.6-0.8-2.7-0.8c-1.1,0-2,0.3-2.6,1c-0.7,0.6-1.2,1.5-1.5,2.5
		c-0.3,1.1-0.5,2.3-0.5,3.6c0,1.3,0.2,2.5,0.5,3.6c0.3,1.1,0.8,1.9,1.5,2.5c0.7,0.6,1.6,0.9,2.6,1c1.4,0,2.5-0.5,3.3-1.4
		C152,610.4,152.4,609.2,152.4,607.5L152.4,607.5z M162.7,612.5l-2.4-5.7c0.7-0.3,1.2-0.8,1.7-1.4c0.4-0.6,0.7-1.4,0.7-2.4
		c0-1.4-0.4-2.5-1.2-3.2c-0.8-0.7-1.8-1.1-3.2-1.1h-3.7v13.8h2.5v-5.2h0.8l2.1,5.2H162.7z M160.2,603c0,0.6-0.2,1.1-0.5,1.4
		c-0.3,0.3-0.8,0.5-1.4,0.5H157v-3.8h1.1c0.7,0,1.3,0.2,1.6,0.5C160,601.9,160.2,602.4,160.2,603L160.2,603z"/>
	<path display="inline" fill="#808285" d="M173.1,605.6c0-1.3-0.2-2.5-0.5-3.6c-0.3-1.1-0.8-1.9-1.5-2.5c-0.7-0.6-1.5-0.9-2.6-1
		c-1.1,0-2,0.3-2.6,1c-0.7,0.6-1.2,1.5-1.5,2.5c-0.3,1.1-0.5,2.3-0.5,3.6c0,1.3,0.2,2.5,0.5,3.6c0.3,1.1,0.8,1.9,1.5,2.5
		c0.7,0.6,1.6,0.9,2.6,1c1.1,0,1.9-0.3,2.6-1c0.7-0.6,1.2-1.5,1.5-2.5C172.9,608.1,173.1,606.9,173.1,605.6L173.1,605.6z
		 M170.5,605.6c0,1.5-0.2,2.6-0.5,3.4c-0.3,0.8-0.8,1.2-1.6,1.2c-0.7,0-1.3-0.4-1.6-1.2c-0.3-0.8-0.5-2-0.5-3.4
		c0-1.5,0.2-2.6,0.5-3.4c0.3-0.8,0.9-1.2,1.6-1.2c0.7,0,1.3,0.4,1.6,1.2C170.4,603,170.5,604.1,170.5,605.6L170.5,605.6z M183,598.7
		h-2.5l-1.3,6.7c-0.1,0.3-0.2,0.7-0.2,1.2c-0.1,0.5-0.2,0.9-0.3,1.3c-0.1,0.4-0.1,0.7-0.2,1c0-0.2-0.1-0.5-0.2-0.9
		c-0.1-0.4-0.2-0.9-0.3-1.3c-0.1-0.5-0.2-0.9-0.2-1.2l-1.3-6.7h-2.5l3.3,13.8h2.4L183,598.7z"/>
	<polygon display="inline" fill="#808285" points="192,612.5 192,610.1 187.2,610.1 187.2,606.3 190.3,606.3 190.3,604 187.2,604 
		187.2,601.1 191.8,601.1 191.8,598.7 184.8,598.7 184.8,612.5 	"/>
	<polygon display="inline" points="25.7,816.5 45,816.5 45,834.9 25.7,834.9 	"/>
	<polygon display="inline" fill="#939598" points="292.9,938.7 382.7,938.7 382.7,948.8 292.9,948.8 	"/>
	<polygon display="inline" points="334.5,946.9 334.5,937 385,936.9 385,946.8 	"/>
	<path display="inline" fill="#020405" d="M321.7,934.2v-10H321c-0.1,0.4-0.3,0.7-0.5,0.8c-0.3,0.2-0.6,0.2-1.1,0.3v0.7h1.4v8.2
		L321.7,934.2L321.7,934.2z M327,922.9h-0.9l-3.2,12.5h0.9L327,922.9z"/>
	<path display="inline" fill="#020405" d="M332.1,931.6v-0.9h-0.9v-6.5h-0.9l-3.7,6.6v0.8h3.7v2.6h0.9v-2.6L332.1,931.6L332.1,931.6
		z M330.3,925.9c0,0.1,0,0.3,0,0.5c0,0.2,0,0.4,0,0.6v3.7h-2.1c-0.1,0-0.2,0-0.3,0c-0.1,0-0.2,0-0.3,0c0.1-0.2,0.2-0.4,0.4-0.7
		c0.1-0.3,0.3-0.5,0.4-0.8l1-1.7c0.2-0.3,0.3-0.6,0.5-0.9C330,926.4,330.2,926.1,330.3,925.9L330.3,925.9z M344.1,934.2v-5.1
		c0-0.8-0.2-1.5-0.5-1.9c-0.3-0.4-0.8-0.6-1.4-0.6c-0.4,0-0.8,0.1-1.1,0.3c-0.3,0.2-0.5,0.4-0.7,0.7c-0.1-0.3-0.3-0.5-0.6-0.7
		c-0.2-0.2-0.5-0.3-0.9-0.3c-0.3,0-0.6,0.1-0.9,0.2c-0.2,0.1-0.5,0.3-0.6,0.6v-0.6h-1v7.5h1v-5.9c0.2-0.3,0.3-0.5,0.5-0.6
		c0.2-0.2,0.4-0.2,0.7-0.2c0.4,0,0.6,0.1,0.8,0.4c0.2,0.3,0.3,0.7,0.3,1.4v5h1v-5.9c0.2-0.3,0.3-0.5,0.5-0.6
		c0.2-0.2,0.4-0.2,0.7-0.2c0.4,0,0.6,0.1,0.8,0.4c0.2,0.3,0.3,0.7,0.3,1.4v5L344.1,934.2L344.1,934.2z M347.2,924.6
		c0-0.2-0.1-0.4-0.2-0.5c-0.1-0.1-0.3-0.2-0.5-0.2c-0.2,0-0.4,0.1-0.5,0.2c-0.1,0.1-0.2,0.3-0.2,0.5c0,0.2,0.1,0.4,0.2,0.5
		c0.1,0.1,0.3,0.2,0.5,0.2c0.2,0,0.3-0.1,0.5-0.2C347.1,925,347.2,924.8,347.2,924.6L347.2,924.6z M347,934.2v-7.5h-1v7.5H347z
		 M350,934.2v-10.4l-1,0.6v9.8L350,934.2L350,934.2z M356.4,930.4c0-1.2-0.2-2.1-0.6-2.8c-0.4-0.7-1-1-1.7-1c-0.7,0-1.3,0.4-1.8,1
		c-0.4,0.7-0.6,1.6-0.7,2.9c0,1.3,0.3,2.3,0.7,2.9c0.5,0.6,1,0.9,1.7,0.9c0.4,0,0.8-0.1,1.2-0.3c0.3-0.2,0.7-0.5,1-0.8l-0.6-0.6
		c-0.3,0.3-0.5,0.5-0.7,0.6c-0.2,0.1-0.5,0.2-0.8,0.2c-0.5,0-0.8-0.3-1.1-0.7c-0.2-0.5-0.4-1.1-0.4-1.9h3.8c0-0.1,0-0.1,0-0.2
		C356.4,930.6,356.4,930.5,356.4,930.4L356.4,930.4z M355.5,929.9h-2.8c0-0.8,0.2-1.5,0.5-1.9c0.2-0.4,0.6-0.6,1-0.6
		c0.5,0,0.8,0.2,1,0.7C355.3,928.6,355.5,929.2,355.5,929.9L355.5,929.9z"/>
	<polygon display="inline" fill="#FFFFFF" points="295.8,945.5 295.8,936.9 340,936.9 340,946.6 	"/>
	<path display="inline" d="M105.1,645.6v-12.3h-1.2v5.2h-4v-5.2h-1.2v12.3h1.2v-5.9h4v5.9H105.1z M112.8,645.6v-6.8
		c0-1-0.2-1.6-0.7-2c-0.4-0.4-1.1-0.6-1.9-0.6c-0.5,0-0.9,0.1-1.3,0.2c-0.4,0.2-0.8,0.4-1.2,0.7l0.5,0.9c0.3-0.2,0.6-0.4,0.9-0.6
		c0.3-0.1,0.6-0.2,1-0.2c0.5,0,0.9,0.1,1.1,0.4c0.2,0.3,0.4,0.7,0.4,1.2v1.3c-0.2-0.1-0.4-0.2-0.7-0.3c-0.3-0.1-0.6-0.1-0.9-0.1
		c-0.8,0-1.5,0.2-2,0.7c-0.5,0.5-0.8,1.2-0.8,2.3c0,1,0.2,1.8,0.7,2.3c0.4,0.5,1,0.7,1.7,0.7c0.4,0,0.8-0.1,1.2-0.3
		c0.4-0.2,0.7-0.4,0.9-0.7v0.8L112.8,645.6L112.8,645.6z M111.6,643.8c-0.2,0.3-0.5,0.5-0.8,0.7c-0.3,0.2-0.7,0.3-1.1,0.3
		c-0.4,0-0.8-0.2-1-0.5c-0.2-0.4-0.3-0.9-0.3-1.5c0-0.6,0.1-1.1,0.4-1.4c0.2-0.3,0.6-0.5,1.2-0.5c0.4,0,0.7,0,1,0.1
		c0.3,0.1,0.5,0.2,0.7,0.3L111.6,643.8L111.6,643.8z M119.8,645.6v-1h-3.9l3.9-7.2v-0.9h-4.9v1h3.6l-3.9,7.2v0.9H119.8L119.8,645.6z
		 M127.1,645.6v-6.8c0-1-0.2-1.6-0.7-2c-0.4-0.4-1.1-0.6-1.9-0.6c-0.5,0-0.9,0.1-1.3,0.2c-0.4,0.2-0.8,0.4-1.2,0.7l0.6,0.9
		c0.3-0.2,0.6-0.4,0.9-0.6c0.3-0.1,0.6-0.2,1-0.2c0.5,0,0.9,0.1,1.1,0.4c0.2,0.3,0.4,0.7,0.4,1.2v1.3c-0.2-0.1-0.4-0.2-0.7-0.3
		c-0.3-0.1-0.6-0.1-0.9-0.1c-0.8,0-1.5,0.2-2,0.7c-0.5,0.5-0.8,1.2-0.8,2.3c0,1,0.2,1.8,0.7,2.3c0.4,0.5,1,0.7,1.7,0.7
		c0.4,0,0.9-0.1,1.2-0.3c0.4-0.2,0.7-0.4,0.9-0.7v0.8L127.1,645.6L127.1,645.6z M125.9,643.8c-0.2,0.3-0.5,0.5-0.8,0.7
		c-0.3,0.2-0.7,0.3-1.1,0.3c-0.4,0-0.8-0.2-1-0.5c-0.2-0.4-0.3-0.9-0.3-1.5c0-0.6,0.1-1.1,0.4-1.4c0.2-0.3,0.6-0.5,1.2-0.5
		c0.4,0,0.7,0,1,0.1c0.3,0.1,0.5,0.2,0.7,0.3L125.9,643.8L125.9,643.8z M133.5,636.4c-0.1-0.1-0.3-0.1-0.5-0.1
		c-0.2,0-0.4-0.1-0.7-0.1c-0.4,0-0.7,0.1-1,0.3c-0.3,0.2-0.5,0.4-0.7,0.7v-0.8h-1.2v9.2h1.2v-7.2c0.2-0.3,0.4-0.5,0.6-0.7
		c0.3-0.2,0.5-0.3,0.8-0.3c0.2,0,0.4,0,0.6,0.1c0.2,0,0.4,0.1,0.5,0.2L133.5,636.4z"/>
	<path display="inline" d="M140.2,645.6v-12.8l-1.2,0.7v3.6c-0.2-0.3-0.5-0.5-0.8-0.6c-0.3-0.2-0.7-0.3-1.1-0.3
		c-0.9,0-1.5,0.4-2,1.3c-0.5,0.8-0.7,2-0.7,3.6c0,1.5,0.2,2.7,0.7,3.5c0.4,0.8,1.1,1.2,1.9,1.2c0.4,0,0.8-0.1,1.2-0.3
		c0.4-0.2,0.6-0.4,0.9-0.7v0.8H140.2z M139,643.8c-0.2,0.3-0.5,0.5-0.8,0.7c-0.3,0.2-0.6,0.2-0.9,0.2c-0.6,0-1-0.3-1.3-0.9
		c-0.3-0.6-0.4-1.5-0.4-2.8c0-1.2,0.1-2.1,0.4-2.7c0.3-0.7,0.7-1,1.3-1c0.4,0,0.7,0.1,1,0.3c0.3,0.2,0.6,0.4,0.8,0.7V643.8z"/>
	<path display="inline" d="M153,645.6l-2.9-12.3h-1.3l-2.9,12.3h1.2l0.7-3.2h3.2l0.7,3.2H153z M150.7,641.3H148l0.7-3
		c0.1-0.6,0.3-1.2,0.4-1.8c0.1-0.6,0.2-1.1,0.3-1.6c0.1,0.5,0.2,1,0.3,1.6c0.1,0.6,0.2,1.2,0.4,1.8L150.7,641.3z M159.8,636.4h-1.2
		l-1.5,6.3c-0.1,0.2-0.1,0.5-0.2,0.8c-0.1,0.3-0.1,0.6-0.1,0.8c0-0.2-0.1-0.5-0.1-0.8c-0.1-0.3-0.1-0.6-0.2-0.8l-1.5-6.3h-1.3
		l2.5,9.2h1.1L159.8,636.4z"/>
	<path display="inline" d="M166.9,640.9c0-1.5-0.2-2.6-0.7-3.5c-0.5-0.8-1.2-1.2-2.2-1.3c-0.9,0-1.6,0.4-2.2,1.3
		c-0.5,0.8-0.8,2-0.8,3.5c0,1.6,0.3,2.8,0.9,3.6c0.6,0.8,1.3,1.2,2.1,1.2c0.5,0,1-0.1,1.5-0.4c0.4-0.2,0.9-0.6,1.2-1l-0.7-0.8
		c-0.3,0.4-0.6,0.6-0.9,0.8c-0.3,0.2-0.6,0.2-1,0.2c-0.6,0-1-0.3-1.3-0.9c-0.3-0.6-0.5-1.4-0.5-2.4h4.7c0-0.1,0-0.1,0-0.2
		C166.9,641.1,166.9,641.1,166.9,640.9L166.9,640.9z M165.7,640.4h-3.5c0.1-1,0.2-1.8,0.6-2.3c0.3-0.5,0.7-0.7,1.2-0.7
		c0.6,0,1,0.3,1.3,0.9C165.5,638.7,165.7,639.5,165.7,640.4L165.7,640.4z M170,644.9c0-0.3-0.1-0.5-0.2-0.6
		c-0.2-0.2-0.4-0.3-0.7-0.3c-0.3,0-0.5,0.1-0.6,0.3c-0.2,0.2-0.3,0.4-0.3,0.6c0,0.3,0.1,0.5,0.3,0.6c0.2,0.2,0.4,0.3,0.6,0.3
		c0.3,0,0.5-0.1,0.7-0.3C169.9,645.4,170,645.1,170,644.9L170,644.9z"/>
	<path display="inline" d="M193.5,826.1c0-0.9-0.2-1.6-0.6-2c-0.4-0.5-0.8-0.8-1.3-0.9c0.4-0.2,0.8-0.5,1.1-0.9
		c0.3-0.4,0.4-1,0.4-1.7c0-1-0.3-1.8-0.8-2.3c-0.5-0.5-1.2-0.8-2.2-0.8h-2.8v12.3h2.8c1,0,1.8-0.3,2.4-0.9
		C193.2,828.2,193.5,827.3,193.5,826.1L193.5,826.1z M191.9,820.5c0,0.6-0.1,1.1-0.4,1.5c-0.3,0.4-0.7,0.6-1.4,0.6h-1.5v-4h1.5
		c0.6,0,1,0.2,1.3,0.5C191.8,819.4,191.9,819.9,191.9,820.5L191.9,820.5z M192.3,826.1c0,0.8-0.2,1.4-0.5,1.8
		c-0.3,0.4-0.8,0.6-1.5,0.6h-1.6v-4.8h1.5c0.7,0,1.2,0.2,1.6,0.6C192.1,824.8,192.3,825.4,192.3,826.1L192.3,826.1z M201.5,825
		c0-1.6-0.3-2.8-0.9-3.6s-1.3-1.2-2.3-1.2c-1,0-1.7,0.4-2.3,1.2c-0.6,0.8-0.9,2-0.9,3.6c0,1.6,0.3,2.8,0.9,3.6
		c0.5,0.8,1.3,1.2,2.3,1.2c1,0,1.7-0.4,2.3-1.2C201.2,827.8,201.4,826.6,201.5,825L201.5,825z M200.2,825.1c0,1.2-0.2,2.2-0.5,2.8
		c-0.3,0.6-0.8,0.9-1.4,0.9s-1.1-0.3-1.4-0.9c-0.3-0.6-0.5-1.5-0.5-2.8c0-1.2,0.2-2.2,0.5-2.8c0.3-0.6,0.8-0.9,1.4-0.9
		s1.1,0.3,1.4,0.9C200.1,822.9,200.2,823.8,200.2,825.1L200.2,825.1z M204.7,829.7v-12.8l-1.2,0.7v12.1L204.7,829.7L204.7,829.7z
		 M211.9,827.4c0-0.7-0.2-1.3-0.5-1.7c-0.4-0.5-0.9-0.9-1.6-1.3c-0.7-0.4-1.1-0.7-1.3-1c-0.2-0.3-0.4-0.6-0.3-0.9
		c0-0.3,0.1-0.6,0.3-0.8c0.2-0.2,0.5-0.3,0.9-0.3c0.4,0,0.7,0.1,0.9,0.3c0.2,0.2,0.5,0.4,0.7,0.7l0.9-0.8c-0.3-0.4-0.6-0.7-1-1
		c-0.4-0.2-0.9-0.4-1.4-0.4c-0.7,0-1.3,0.2-1.7,0.6c-0.4,0.4-0.7,1-0.7,1.6c0,0.7,0.2,1.2,0.5,1.6c0.4,0.4,0.9,0.8,1.6,1.3
		c0.7,0.4,1.1,0.8,1.4,1.1c0.2,0.3,0.4,0.7,0.3,1.1c0,0.4-0.1,0.6-0.4,0.9c-0.2,0.2-0.6,0.3-1,0.3c-0.3,0-0.7-0.1-0.9-0.3
		c-0.3-0.2-0.6-0.5-0.9-0.9l-0.9,0.8c0.3,0.4,0.7,0.8,1.1,1.1c0.4,0.3,0.9,0.4,1.5,0.4c0.7,0,1.3-0.2,1.8-0.6
		C211.6,828.8,211.8,828.2,211.9,827.4L211.9,827.4z M219,829.7v-6.8c0-1-0.2-1.6-0.7-2c-0.4-0.4-1.1-0.6-1.9-0.6
		c-0.5,0-0.9,0.1-1.3,0.2c-0.4,0.2-0.8,0.4-1.2,0.7l0.6,0.9c0.3-0.2,0.6-0.4,0.9-0.6s0.6-0.2,1-0.2c0.5,0,0.8,0.1,1.1,0.4
		c0.2,0.3,0.4,0.7,0.4,1.2v1.3c-0.2-0.1-0.4-0.2-0.7-0.3c-0.3-0.1-0.6-0.1-0.9-0.1c-0.8,0-1.5,0.2-2,0.7c-0.5,0.5-0.8,1.2-0.8,2.3
		c0,1.1,0.2,1.8,0.7,2.3c0.4,0.5,1,0.7,1.7,0.7c0.4,0,0.9-0.1,1.2-0.3c0.4-0.2,0.7-0.4,0.9-0.7v0.8L219,829.7L219,829.7z
		 M217.8,827.9c-0.2,0.3-0.5,0.5-0.8,0.7c-0.3,0.2-0.7,0.3-1.1,0.3c-0.4,0-0.8-0.2-1-0.5c-0.2-0.4-0.3-0.9-0.3-1.5
		c0-0.6,0.1-1.1,0.4-1.4c0.2-0.3,0.6-0.5,1.2-0.5c0.4,0,0.7,0,1,0.1c0.3,0.1,0.5,0.2,0.7,0.3V827.9z"/>
	<path display="inline" d="M231.7,829.7l-2.9-12.3h-1.3l-2.9,12.3h1.2l0.7-3.2h3.2l0.7,3.2H231.7z M229.4,825.3h-2.7l0.7-3
		c0.1-0.6,0.3-1.2,0.4-1.8c0.1-0.6,0.2-1.1,0.3-1.6c0.1,0.5,0.2,1,0.3,1.6c0.1,0.6,0.2,1.2,0.4,1.8L229.4,825.3z M238.5,820.5h-1.2
		l-1.5,6.3c-0.1,0.2-0.1,0.5-0.2,0.8c-0.1,0.3-0.1,0.6-0.1,0.8c0-0.2-0.1-0.5-0.1-0.8c-0.1-0.3-0.1-0.6-0.2-0.8l-1.5-6.3h-1.3
		l2.6,9.2h1.1L238.5,820.5z"/>
	<path display="inline" d="M245.6,825c0-1.5-0.2-2.6-0.7-3.5c-0.5-0.8-1.2-1.2-2.2-1.3c-0.9,0-1.6,0.4-2.2,1.3
		c-0.5,0.8-0.8,2-0.8,3.5c0,1.6,0.3,2.8,0.9,3.6c0.6,0.8,1.3,1.2,2.1,1.2c0.5,0,1-0.1,1.5-0.3c0.4-0.2,0.8-0.6,1.2-1l-0.7-0.8
		c-0.3,0.4-0.6,0.6-0.9,0.8c-0.3,0.2-0.6,0.2-1,0.2c-0.6,0-1-0.3-1.3-0.9c-0.3-0.6-0.5-1.4-0.5-2.4h4.7c0-0.1,0-0.1,0-0.2
		C245.6,825.2,245.6,825.1,245.6,825L245.6,825z M244.4,824.4h-3.5c0.1-1,0.2-1.8,0.6-2.3c0.3-0.5,0.7-0.7,1.2-0.7
		c0.6,0,1,0.3,1.3,0.9C244.2,822.8,244.4,823.5,244.4,824.4L244.4,824.4z M248.7,829c0-0.3-0.1-0.5-0.2-0.6
		c-0.2-0.2-0.4-0.3-0.7-0.3c-0.3,0-0.5,0.1-0.6,0.3c-0.2,0.2-0.3,0.4-0.3,0.6s0.1,0.5,0.3,0.6c0.2,0.2,0.4,0.3,0.6,0.3
		c0.3,0,0.5-0.1,0.7-0.3C248.6,829.4,248.7,829.2,248.7,829L248.7,829z"/>
	<path display="inline" d="M-170,919.2c0-0.9-0.2-1.6-0.6-2c-0.4-0.5-0.8-0.8-1.3-0.9c0.4-0.2,0.8-0.5,1.1-0.9
		c0.3-0.4,0.4-1,0.4-1.7c0-1-0.3-1.8-0.8-2.3c-0.5-0.5-1.2-0.8-2.2-0.8h-2.8v12.3h2.8c1,0,1.8-0.3,2.4-0.9
		C-170.3,921.4-170,920.5-170,919.2L-170,919.2z M-171.6,913.7c0,0.6-0.1,1.1-0.4,1.5c-0.3,0.4-0.7,0.6-1.4,0.6h-1.5v-4h1.5
		c0.6,0,1,0.2,1.3,0.5C-171.7,912.6-171.6,913.1-171.6,913.7L-171.6,913.7z M-171.2,919.3c0,0.8-0.2,1.4-0.5,1.8
		c-0.3,0.4-0.8,0.6-1.5,0.6h-1.6v-4.8h1.5c0.7,0,1.2,0.2,1.6,0.6C-171.4,917.9-171.2,918.5-171.2,919.3L-171.2,919.3z M-166.5,911
		c0-0.2-0.1-0.5-0.2-0.6c-0.1-0.2-0.3-0.3-0.6-0.3c-0.2,0-0.4,0.1-0.6,0.3c-0.2,0.2-0.2,0.4-0.2,0.6c0,0.2,0.1,0.5,0.2,0.6
		c0.2,0.2,0.4,0.3,0.6,0.3c0.2,0,0.4-0.1,0.6-0.3C-166.5,911.5-166.5,911.3-166.5,911L-166.5,911z M-166.7,922.8v-9.2h-1.2v9.2
		H-166.7z M-159.6,920.6c0-0.7-0.2-1.3-0.5-1.7c-0.4-0.5-0.9-0.9-1.6-1.3c-0.7-0.4-1.1-0.7-1.3-1c-0.2-0.3-0.4-0.6-0.3-0.9
		c0-0.3,0.1-0.6,0.3-0.8c0.2-0.2,0.5-0.3,0.9-0.3c0.4,0,0.7,0.1,0.9,0.3c0.2,0.2,0.5,0.4,0.7,0.7l0.9-0.8c-0.3-0.4-0.6-0.7-1-1
		c-0.4-0.2-0.9-0.4-1.5-0.4c-0.7,0-1.3,0.2-1.7,0.6c-0.4,0.4-0.7,1-0.7,1.6c0,0.7,0.2,1.2,0.5,1.6c0.4,0.4,0.9,0.8,1.6,1.3
		c0.7,0.4,1.1,0.8,1.4,1.1c0.2,0.3,0.4,0.7,0.3,1.1c0,0.4-0.1,0.6-0.4,0.9c-0.2,0.2-0.6,0.3-1,0.3c-0.3,0-0.7-0.1-0.9-0.3
		c-0.3-0.2-0.6-0.5-0.9-0.9l-0.9,0.8c0.3,0.4,0.7,0.8,1.1,1.1c0.4,0.3,0.9,0.4,1.5,0.4c0.7,0,1.3-0.2,1.8-0.6
		C-159.9,922-159.6,921.4-159.6,920.6L-159.6,920.6z M-152,922.8v-6.3c0-1-0.2-1.8-0.6-2.3c-0.4-0.5-1-0.8-1.8-0.8
		c-0.5,0-0.9,0.1-1.2,0.3c-0.3,0.2-0.6,0.4-0.8,0.7v-4.3l-1.2,0.7v12.1h1.2v-7.2c0.2-0.3,0.4-0.5,0.7-0.8c0.3-0.2,0.6-0.3,1-0.3
		c0.5,0,0.9,0.2,1.2,0.5c0.2,0.3,0.4,0.9,0.4,1.6v6.2L-152,922.8L-152,922.8z M-143.7,918.2c0-1.6-0.3-2.7-0.9-3.6
		c-0.6-0.8-1.3-1.2-2.3-1.2c-1,0-1.7,0.4-2.3,1.2c-0.6,0.8-0.9,2-0.9,3.6c0,1.6,0.3,2.8,0.9,3.6c0.5,0.8,1.3,1.2,2.3,1.2
		c1,0,1.7-0.4,2.3-1.2C-144,921-143.8,919.8-143.7,918.2L-143.7,918.2z M-145,918.2c0,1.2-0.2,2.2-0.5,2.8c-0.3,0.6-0.8,0.9-1.4,0.9
		c-0.6,0-1.1-0.3-1.4-0.9c-0.3-0.6-0.5-1.5-0.5-2.8c0-1.2,0.2-2.2,0.5-2.8c0.3-0.6,0.8-0.9,1.4-0.9c0.6,0,1.1,0.3,1.4,0.9
		C-145.1,916-145,917-145,918.2L-145,918.2z M-135.9,918.2c0-1.5-0.2-2.7-0.7-3.5c-0.4-0.8-1.1-1.2-1.9-1.2c-0.4,0-0.8,0.1-1.2,0.3
		c-0.3,0.2-0.6,0.4-0.9,0.7v-0.8h-1.2v12.6l1.2-0.7v-3.4c0.2,0.3,0.5,0.5,0.8,0.6c0.3,0.2,0.7,0.3,1.1,0.3c0.9,0,1.6-0.4,2-1.3
		C-136.2,920.9-135.9,919.7-135.9,918.2L-135.9,918.2z M-137.1,918.2c0,1.2-0.1,2.1-0.4,2.7c-0.3,0.7-0.7,1-1.3,1
		c-0.4,0-0.7-0.1-1-0.3c-0.3-0.2-0.6-0.4-0.8-0.7v-5.6c0.2-0.3,0.5-0.5,0.8-0.7c0.3-0.2,0.6-0.2,1-0.2c0.6,0,1,0.3,1.3,0.9
		C-137.3,916-137.1,916.9-137.1,918.2L-137.1,918.2z M-124.1,914c0-1.2-0.3-2-0.9-2.6c-0.6-0.6-1.3-0.8-2.3-0.8h-2.9v12.3h1.2v-5.3
		h1.5c1,0,1.8-0.3,2.4-0.9C-124.5,916.1-124.1,915.2-124.1,914L-124.1,914z M-125.4,914c0,0.8-0.2,1.4-0.5,1.8
		c-0.4,0.4-0.9,0.6-1.5,0.6h-1.5v-4.7h1.6c0.7,0,1.1,0.2,1.5,0.6C-125.5,912.7-125.4,913.3-125.4,914L-125.4,914z M-121.1,922.8
		v-12.8l-1.2,0.7v12.1H-121.1z"/>
	<path display="inline" d="M-117.2,922.1c0-0.3-0.1-0.5-0.2-0.6c-0.2-0.2-0.4-0.3-0.7-0.3c-0.3,0-0.5,0.1-0.6,0.3
		c-0.2,0.2-0.3,0.4-0.3,0.6c0,0.3,0.1,0.5,0.3,0.6c0.2,0.2,0.4,0.3,0.6,0.3c0.3,0,0.5-0.1,0.7-0.3
		C-117.3,922.6-117.2,922.4-117.2,922.1L-117.2,922.1z"/>
	<path display="inline" d="M-121.1,656.7h12.3v-1.3l-6.4-1.9c-0.5-0.2-1.1-0.3-1.5-0.4c-0.5-0.1-0.9-0.2-1.4-0.3
		c0.4-0.1,0.9-0.1,1.4-0.2c0.5-0.1,1-0.2,1.5-0.4l6.4-1.9v-1.4h-12.3v1.2h7.3c0.4,0,0.7,0,1.1,0c0.4,0,0.7,0,1,0
		c-0.4,0.1-0.8,0.2-1.2,0.2c-0.4,0.1-0.8,0.2-1.3,0.4l-7.4,2.2l7.4,2.2c0.5,0.1,0.9,0.2,1.3,0.4c0.4,0.1,0.8,0.2,1.1,0.2
		c-0.3,0-0.6,0-1,0c-0.4,0-0.8,0-1.1,0h-7.3L-121.1,656.7L-121.1,656.7z M-121.1,664.3h6.8c1,0,1.6-0.2,2-0.7
		c0.4-0.4,0.6-1.1,0.6-1.9c0-0.5-0.1-0.9-0.2-1.3c-0.2-0.4-0.4-0.8-0.7-1.2l-0.9,0.5c0.2,0.3,0.4,0.6,0.6,0.9c0.1,0.3,0.2,0.6,0.2,1
		c0,0.5-0.1,0.9-0.4,1.1s-0.7,0.4-1.2,0.4h-1.3c0.1-0.2,0.2-0.4,0.3-0.7c0.1-0.3,0.1-0.6,0.1-0.9c0-0.8-0.2-1.5-0.7-2
		c-0.5-0.5-1.2-0.8-2.3-0.8c-1.1,0-1.8,0.2-2.3,0.7c-0.5,0.4-0.7,1-0.7,1.7c0,0.4,0.1,0.9,0.3,1.2c0.2,0.4,0.4,0.7,0.7,0.9h-0.8
		L-121.1,664.3L-121.1,664.3z M-119.3,663.1c-0.3-0.2-0.5-0.5-0.7-0.8c-0.2-0.3-0.3-0.7-0.3-1.1c0-0.4,0.2-0.8,0.5-1
		c0.4-0.2,0.9-0.3,1.5-0.3c0.6,0,1.1,0.1,1.4,0.4c0.3,0.2,0.5,0.6,0.5,1.2c0,0.4,0,0.7-0.1,1c-0.1,0.3-0.2,0.5-0.3,0.7H-119.3z
		 M-120.2,672.1h8.4v-1.2h-0.7c0.3-0.2,0.5-0.5,0.6-0.8c0.2-0.3,0.3-0.7,0.3-1.1c0-0.9-0.4-1.5-1.3-2c-0.8-0.5-2-0.7-3.6-0.7
		c-1.5,0-2.7,0.2-3.5,0.7c-0.8,0.4-1.2,1.1-1.2,1.9c0,0.4,0.1,0.8,0.3,1.2c0.2,0.4,0.4,0.6,0.7,0.9h-0.4c-0.9,0-1.5-0.2-1.9-0.6
		c-0.5-0.4-0.8-1.2-0.9-2.3l-0.9,0.4c0.2,1.4,0.6,2.4,1.3,2.9C-122.5,671.9-121.5,672.2-120.2,672.1L-120.2,672.1z M-119.3,670.9
		c-0.3-0.2-0.5-0.5-0.7-0.8c-0.2-0.3-0.2-0.6-0.2-0.9c0-0.6,0.3-1,0.9-1.3c0.6-0.3,1.5-0.4,2.7-0.4c1.2,0,2.1,0.1,2.8,0.4
		c0.7,0.3,1,0.7,1,1.3c0,0.4-0.1,0.7-0.3,1c-0.2,0.3-0.4,0.6-0.7,0.8L-119.3,670.9L-119.3,670.9z M-121.1,680.1h6.3
		c1,0,1.8-0.2,2.3-0.6c0.5-0.4,0.8-1,0.8-1.8c0-0.5-0.1-0.9-0.3-1.2c-0.2-0.3-0.4-0.6-0.7-0.8h0.8v-1.2h-9.2v1.2h7.2
		c0.3,0.2,0.5,0.4,0.8,0.7c0.2,0.3,0.3,0.6,0.3,1c0,0.5-0.2,0.9-0.5,1.2c-0.3,0.2-0.9,0.4-1.6,0.4h-6.2V680.1z M-116.4,688.4
		c1.6,0,2.7-0.3,3.6-0.9c0.8-0.6,1.2-1.3,1.2-2.3c0-1-0.4-1.7-1.2-2.3c-0.8-0.6-2-0.9-3.6-0.9c-1.6,0-2.8,0.3-3.6,0.9
		c-0.8,0.5-1.2,1.3-1.2,2.3c0,1,0.4,1.7,1.2,2.3C-119.2,688.1-118,688.3-116.4,688.4L-116.4,688.4z M-116.5,687.1
		c-1.2,0-2.2-0.2-2.8-0.5c-0.6-0.3-0.9-0.8-0.9-1.4s0.3-1.1,0.9-1.4c0.6-0.3,1.5-0.5,2.8-0.5c1.2,0,2.2,0.2,2.8,0.5
		c0.6,0.3,0.9,0.8,0.9,1.4c0,0.6-0.3,1.1-0.9,1.4C-114.3,687-115.2,687.1-116.5,687.1L-116.5,687.1z M-121.1,691.6h12.8l-0.7-1.2
		h-12.1L-121.1,691.6L-121.1,691.6z M-109.3,695.6c0.2,0,0.5-0.1,0.6-0.2c0.2-0.1,0.3-0.3,0.3-0.6c0-0.2-0.1-0.4-0.3-0.6
		c-0.2-0.2-0.4-0.2-0.6-0.2s-0.5,0.1-0.6,0.2c-0.2,0.2-0.3,0.4-0.3,0.6c0,0.2,0.1,0.4,0.3,0.6C-109.7,695.5-109.5,695.6-109.3,695.6
		L-109.3,695.6z M-121.1,695.4h9.2v-1.2h-9.2V695.4z M-121.1,703h6.8c1,0,1.6-0.2,2-0.7c0.4-0.4,0.6-1.1,0.6-1.9
		c0-0.5-0.1-0.9-0.2-1.3c-0.2-0.4-0.4-0.8-0.7-1.2l-0.9,0.5c0.2,0.3,0.4,0.6,0.6,0.9s0.2,0.6,0.2,1c0,0.5-0.1,0.8-0.4,1.1
		s-0.7,0.4-1.2,0.4h-1.3c0.1-0.2,0.2-0.4,0.3-0.7c0.1-0.3,0.1-0.6,0.1-0.9c0-0.8-0.2-1.5-0.7-2c-0.5-0.5-1.2-0.8-2.3-0.8
		c-1.1,0-1.8,0.2-2.3,0.7c-0.5,0.4-0.7,1-0.7,1.7c0,0.4,0.1,0.9,0.3,1.2c0.2,0.4,0.4,0.7,0.7,0.9h-0.8L-121.1,703L-121.1,703z
		 M-119.3,701.8c-0.3-0.2-0.5-0.5-0.7-0.8c-0.2-0.3-0.3-0.7-0.3-1.1c0-0.4,0.2-0.8,0.5-1c0.4-0.2,0.9-0.3,1.5-0.3
		c0.6,0,1.1,0.1,1.4,0.4c0.3,0.2,0.5,0.6,0.5,1.2c0,0.4,0,0.7-0.1,1c-0.1,0.3-0.2,0.5-0.3,0.7L-119.3,701.8L-119.3,701.8z
		 M-118.3,714.6c0.8,0,1.6-0.2,2.2-0.6c0.7-0.4,1.3-1.1,1.9-2c0.5-0.8,1-1.3,1.5-1.6c0.4-0.2,0.9-0.4,1.3-0.4c0.4,0,0.8,0.1,1.1,0.4
		c0.3,0.2,0.5,0.6,0.5,1.1c0,0.4-0.1,0.8-0.4,1.1c-0.3,0.3-0.6,0.5-1.1,0.8l0.6,1.1c0.6-0.3,1.1-0.7,1.5-1.1c0.4-0.4,0.6-1,0.6-1.8
		c0-0.9-0.3-1.5-0.8-2c-0.5-0.5-1.2-0.7-2-0.7c-0.8,0-1.5,0.2-2,0.5c-0.5,0.4-1.1,1-1.7,1.9c-0.6,0.8-1.1,1.4-1.6,1.7
		c-0.5,0.3-1.1,0.5-1.7,0.5c-0.5,0-0.9-0.2-1.2-0.5c-0.3-0.3-0.5-0.7-0.5-1.3c0-0.4,0.2-0.8,0.5-1.1c0.3-0.3,0.8-0.6,1.3-0.8
		l-0.5-1.1c-0.8,0.3-1.4,0.6-1.8,1.1c-0.4,0.5-0.6,1.1-0.6,1.9c0,0.9,0.3,1.7,0.8,2.2C-119.9,714.3-119.1,714.5-118.3,714.6
		L-118.3,714.6z M-119.9,719.9c-0.1-0.2-0.2-0.4-0.2-0.6c0-0.2-0.1-0.4-0.1-0.6c0-0.2,0.1-0.4,0.2-0.5c0.1-0.1,0.4-0.2,0.7-0.2h6.3
		v1.8h1v-1.8h3.6l-0.7-1.2h-2.9v-1h-1v1h-6.4c-0.6,0-1.1,0.1-1.5,0.4c-0.3,0.3-0.5,0.6-0.5,1.2c0,0.3,0,0.5,0.1,0.7
		c0,0.2,0.1,0.4,0.2,0.6L-119.9,719.9z M-120.3,723.2c0.3,0,0.5-0.1,0.6-0.2c0.2-0.2,0.3-0.4,0.3-0.7c0-0.3-0.1-0.5-0.3-0.6
		c-0.2-0.2-0.4-0.3-0.6-0.3c-0.3,0-0.5,0.1-0.6,0.3c-0.2,0.2-0.3,0.4-0.3,0.6c0,0.3,0.1,0.5,0.3,0.7
		C-120.8,723.1-120.6,723.2-120.3,723.2L-120.3,723.2z"/>
	<path display="inline" d="M65.8,655c0.9,0,1.6-0.2,2-0.6c0.5-0.4,0.8-0.8,0.9-1.3c0.2,0.4,0.5,0.8,0.9,1.1c0.4,0.3,1,0.4,1.7,0.4
		c1,0,1.8-0.3,2.3-0.8c0.5-0.5,0.8-1.2,0.8-2.2v-2.8H62.2v2.8c0,1,0.3,1.8,0.9,2.4C63.6,654.7,64.5,655,65.8,655L65.8,655z
		 M71.3,653.4c-0.6,0-1.1-0.1-1.5-0.4c-0.4-0.3-0.6-0.7-0.6-1.4v-1.5h4v1.5c0,0.6-0.2,1-0.5,1.3C72.5,653.3,72,653.4,71.3,653.4
		L71.3,653.4z M65.7,653.8c-0.8,0-1.4-0.2-1.8-0.5c-0.4-0.3-0.6-0.8-0.6-1.5v-1.6h4.8v1.5c0,0.7-0.2,1.2-0.6,1.6
		C67.1,653.6,66.5,653.8,65.7,653.8L65.7,653.8z M62.2,662.6h9.2v-1.2h-7.2c-0.3-0.2-0.5-0.4-0.8-0.7c-0.2-0.3-0.3-0.6-0.3-1
		c0-0.5,0.2-0.9,0.5-1.2c0.3-0.2,0.9-0.4,1.6-0.4h6.2V657h-6.3c-1,0-1.8,0.2-2.3,0.6c-0.5,0.4-0.8,1-0.8,1.8c0,0.5,0.1,0.9,0.3,1.2
		c0.2,0.3,0.4,0.6,0.7,0.8h-0.8L62.2,662.6L62.2,662.6z M64.4,669.6c0.7,0,1.3-0.2,1.7-0.5c0.5-0.4,0.9-0.9,1.3-1.6
		c0.4-0.7,0.7-1.1,1-1.3c0.3-0.2,0.6-0.4,0.9-0.3c0.3,0,0.6,0.1,0.8,0.3c0.2,0.2,0.3,0.5,0.3,0.8c0,0.4-0.1,0.7-0.3,0.9
		c-0.2,0.2-0.4,0.5-0.7,0.7l0.8,0.9c0.4-0.3,0.7-0.6,1-1c0.2-0.4,0.4-0.9,0.4-1.5c0-0.7-0.2-1.3-0.6-1.7c-0.4-0.4-1-0.7-1.6-0.7
		c-0.7,0-1.2,0.2-1.6,0.5c-0.4,0.4-0.8,0.9-1.3,1.6c-0.4,0.7-0.8,1.2-1.1,1.4c-0.3,0.2-0.7,0.4-1.1,0.3c-0.4,0-0.6-0.1-0.9-0.4
		c-0.2-0.2-0.3-0.6-0.3-1c0-0.3,0.1-0.7,0.3-0.9s0.5-0.6,0.9-0.8l-0.8-0.9c-0.4,0.3-0.8,0.7-1.1,1.1c-0.3,0.4-0.4,0.9-0.4,1.5
		c0,0.7,0.2,1.3,0.6,1.8C63.1,669.3,63.7,669.6,64.4,669.6L64.4,669.6z M62.2,677.2h6.3c1,0,1.8-0.2,2.3-0.6c0.5-0.4,0.8-1,0.8-1.8
		c0-0.5-0.1-0.9-0.3-1.2c-0.2-0.3-0.4-0.6-0.7-0.8H75l-0.7-1.2H62.2v1.2h7.2c0.3,0.2,0.5,0.4,0.8,0.7c0.2,0.3,0.3,0.6,0.3,1
		c0,0.5-0.2,0.9-0.5,1.2c-0.3,0.2-0.9,0.4-1.6,0.4h-6.2L62.2,677.2L62.2,677.2z M62.2,684.7H69c1,0,1.6-0.2,2-0.7
		c0.4-0.4,0.6-1.1,0.6-1.9c0-0.5-0.1-0.9-0.2-1.3c-0.2-0.4-0.4-0.8-0.7-1.2l-0.9,0.5c0.2,0.3,0.4,0.6,0.6,0.9c0.1,0.3,0.2,0.6,0.2,1
		c0,0.5-0.1,0.9-0.4,1.1c-0.3,0.2-0.7,0.4-1.2,0.4h-1.3c0.1-0.2,0.2-0.4,0.3-0.7c0.1-0.3,0.1-0.6,0.1-0.9c0-0.8-0.2-1.5-0.7-2
		c-0.5-0.5-1.2-0.8-2.3-0.8c-1,0-1.8,0.2-2.3,0.7c-0.5,0.4-0.7,1-0.7,1.7c0,0.4,0.1,0.9,0.3,1.2c0.2,0.4,0.4,0.7,0.7,0.9h-0.8
		L62.2,684.7L62.2,684.7z M64,683.5c-0.3-0.2-0.5-0.5-0.7-0.8c-0.2-0.3-0.3-0.7-0.3-1.1c0-0.4,0.2-0.8,0.5-1
		c0.4-0.2,0.9-0.3,1.5-0.3c0.6,0,1.1,0.1,1.4,0.4c0.3,0.2,0.5,0.6,0.5,1.2c0,0.4,0,0.7-0.1,1c-0.1,0.3-0.2,0.5-0.3,0.7H64L64,683.5z
		 M71.4,691.2c0.1-0.1,0.1-0.3,0.1-0.5c0-0.2,0.1-0.4,0.1-0.7c0-0.4-0.1-0.7-0.3-1c-0.2-0.3-0.4-0.5-0.7-0.7h0.8V687h-9.2v1.2h7.2
		c0.3,0.2,0.5,0.4,0.7,0.6c0.2,0.3,0.3,0.5,0.3,0.8c0,0.2,0,0.4-0.1,0.6c0,0.2-0.1,0.4-0.2,0.5L71.4,691.2z"/>
	<path display="inline" d="M62.2,697.9H75l-0.7-1.2h-3.6c0.3-0.2,0.5-0.5,0.6-0.8c0.2-0.3,0.3-0.7,0.3-1.1c0-0.9-0.4-1.5-1.3-2
		c-0.8-0.5-2-0.7-3.6-0.7c-1.5,0-2.7,0.2-3.5,0.7c-0.8,0.4-1.2,1.1-1.2,1.9c0,0.4,0.1,0.8,0.3,1.2c0.2,0.4,0.4,0.6,0.7,0.9h-0.8
		V697.9z M64,696.7c-0.3-0.2-0.5-0.5-0.7-0.8c-0.2-0.3-0.2-0.6-0.2-0.9c0-0.6,0.3-1,0.9-1.3c0.6-0.3,1.5-0.4,2.8-0.4
		c1.2,0,2.1,0.1,2.7,0.4c0.7,0.3,1,0.7,1,1.3c0,0.4-0.1,0.7-0.3,1c-0.2,0.3-0.4,0.6-0.7,0.8L64,696.7L64,696.7z M65,709.4
		c0.8,0,1.6-0.2,2.2-0.6c0.7-0.4,1.3-1.1,1.9-2c0.5-0.8,1-1.3,1.5-1.6c0.4-0.2,0.9-0.4,1.3-0.4c0.4,0,0.8,0.1,1.1,0.4
		c0.3,0.2,0.5,0.6,0.5,1.1c0,0.4-0.1,0.8-0.4,1.1c-0.3,0.3-0.6,0.5-1.1,0.8l0.6,1.1c0.6-0.3,1.1-0.7,1.5-1.1c0.4-0.4,0.6-1,0.6-1.8
		c0-0.8-0.3-1.5-0.8-2c-0.5-0.5-1.2-0.7-2-0.7c-0.8,0-1.5,0.2-2,0.5c-0.5,0.4-1.1,1-1.7,1.9c-0.6,0.8-1.1,1.4-1.6,1.7
		c-0.5,0.3-1.1,0.5-1.7,0.5c-0.5,0-0.9-0.2-1.2-0.5c-0.3-0.3-0.5-0.7-0.5-1.3c0-0.4,0.2-0.8,0.5-1.1c0.3-0.3,0.8-0.6,1.3-0.8
		l-0.5-1.1c-0.8,0.3-1.4,0.6-1.8,1.1c-0.4,0.5-0.6,1.1-0.6,1.9c0,0.9,0.3,1.7,0.8,2.2C63.4,709.1,64.1,709.4,65,709.4L65,709.4z
		 M63.4,714.7c-0.1-0.2-0.2-0.4-0.2-0.6c0-0.2-0.1-0.4-0.1-0.6c0-0.2,0.1-0.4,0.2-0.5c0.1-0.1,0.4-0.2,0.7-0.2h6.3v1.8h1v-1.8H75
		l-0.7-1.2h-2.9v-1h-1v1H64c-0.6,0-1.1,0.1-1.5,0.4c-0.3,0.2-0.5,0.6-0.5,1.2c0,0.3,0,0.5,0.1,0.7c0,0.2,0.1,0.4,0.2,0.6L63.4,714.7
		z"/>
	<path display="inline" d="M62.9,718c0.3,0,0.5-0.1,0.6-0.2c0.2-0.2,0.3-0.4,0.3-0.7c0-0.3-0.1-0.5-0.3-0.6
		c-0.2-0.2-0.4-0.3-0.6-0.3c-0.3,0-0.5,0.1-0.6,0.3c-0.2,0.2-0.3,0.4-0.3,0.6c0,0.3,0.1,0.5,0.3,0.7C62.4,717.9,62.7,718,62.9,718
		L62.9,718z"/>
	<path display="inline" d="M248.5,663.4c0.9,0,1.6-0.2,2-0.6c0.5-0.4,0.8-0.8,0.9-1.3c0.2,0.4,0.5,0.8,0.9,1.1
		c0.4,0.3,1,0.4,1.7,0.4c1,0,1.7-0.3,2.3-0.8c0.5-0.5,0.8-1.2,0.8-2.2v-2.8h-12.3v2.8c0,1,0.3,1.8,0.9,2.4
		C246.3,663.1,247.2,663.4,248.5,663.4L248.5,663.4z M254,661.8c-0.6,0-1.1-0.1-1.5-0.4c-0.4-0.3-0.6-0.7-0.6-1.4v-1.5h4v1.5
		c0,0.6-0.2,1-0.5,1.3C255.1,661.7,254.6,661.8,254,661.8L254,661.8z M248.4,662.2c-0.8,0-1.4-0.2-1.8-0.5c-0.4-0.3-0.6-0.8-0.6-1.5
		v-1.6h4.8v1.5c0,0.7-0.2,1.2-0.6,1.6C249.8,662,249.2,662.2,248.4,662.2L248.4,662.2z M254.1,669.5c0.1-0.1,0.1-0.3,0.1-0.5
		c0-0.2,0.1-0.4,0.1-0.7c0-0.4-0.1-0.7-0.3-1c-0.2-0.3-0.4-0.5-0.7-0.7h0.8v-1.2h-9.2v1.2h7.2c0.3,0.2,0.5,0.4,0.7,0.6
		c0.2,0.3,0.3,0.5,0.3,0.8c0,0.2,0,0.4-0.1,0.6c0,0.2-0.1,0.4-0.2,0.5L254.1,669.5z"/>
	<path display="inline" d="M249.5,676.8c1.6,0,2.8-0.3,3.6-0.9c0.8-0.6,1.2-1.3,1.2-2.3c0-1-0.4-1.7-1.2-2.3c-0.8-0.6-2-0.9-3.6-0.9
		c-1.6,0-2.8,0.3-3.6,0.9c-0.8,0.5-1.2,1.3-1.2,2.3c0,1,0.4,1.7,1.2,2.3C246.7,676.5,247.9,676.8,249.5,676.8L249.5,676.8z
		 M249.5,675.6c-1.2,0-2.2-0.2-2.8-0.5c-0.6-0.3-0.9-0.8-0.9-1.4c0-0.6,0.3-1.1,0.9-1.4c0.6-0.3,1.5-0.5,2.8-0.5
		c1.2,0,2.2,0.2,2.8,0.5c0.6,0.3,0.9,0.8,0.9,1.4s-0.3,1.1-0.9,1.4C251.7,675.4,250.7,675.6,249.5,675.6L249.5,675.6z M249.5,684.7
		c1.6,0,2.8-0.3,3.6-0.9c0.8-0.6,1.2-1.3,1.2-2.3c0-1-0.4-1.7-1.2-2.3c-0.8-0.6-2-0.9-3.6-0.9c-1.6,0-2.8,0.3-3.6,0.9
		c-0.8,0.5-1.2,1.3-1.2,2.3c0,1,0.4,1.7,1.2,2.3C246.7,684.4,247.9,684.7,249.5,684.7L249.5,684.7z M249.5,683.5
		c-1.2,0-2.2-0.2-2.8-0.5c-0.6-0.3-0.9-0.8-0.9-1.4c0-0.6,0.3-1.1,0.9-1.4c0.6-0.3,1.5-0.5,2.8-0.5c1.2,0,2.2,0.2,2.8,0.5
		c0.6,0.3,0.9,0.8,0.9,1.4c0,0.6-0.3,1.1-0.9,1.4C251.7,683.3,250.7,683.5,249.5,683.5L249.5,683.5z M244.9,692.2l5.8-2.4l3.3,2.1
		v-1.3l-3.5-2.1c-0.1-0.1-0.3-0.2-0.5-0.3c-0.2-0.1-0.4-0.2-0.6-0.3c0.1,0,0.3,0,0.5,0c0.2,0,0.4,0,0.5,0h7.2l-0.7-1.2h-12.1v1.2
		h2.9l1.8,1.1l-4.7,1.9L244.9,692.2L244.9,692.2z M244.9,699.5h6.3c1,0,1.8-0.2,2.3-0.6c0.5-0.4,0.8-1,0.8-1.8
		c0-0.5-0.1-0.9-0.3-1.2c-0.2-0.3-0.4-0.6-0.7-0.8h4.3l-0.7-1.2h-12.1v1.2h7.2c0.3,0.2,0.5,0.4,0.8,0.7c0.2,0.3,0.3,0.6,0.3,1
		c0,0.5-0.2,0.9-0.5,1.1c-0.3,0.2-0.9,0.4-1.6,0.4h-6.2L244.9,699.5L244.9,699.5z M244.9,707.3h9.2v-1.2h-7.2
		c-0.3-0.2-0.5-0.4-0.8-0.7c-0.2-0.3-0.3-0.6-0.3-1c0-0.5,0.2-0.9,0.5-1.1c0.3-0.2,0.9-0.4,1.6-0.4h6.2v-1.2h-6.3
		c-1,0-1.8,0.2-2.3,0.6c-0.5,0.4-0.8,1-0.8,1.8c0,0.5,0.1,0.9,0.3,1.2c0.2,0.3,0.4,0.6,0.7,0.8h-0.8L244.9,707.3L244.9,707.3z
		 M254.1,713.8c0.1-0.1,0.1-0.3,0.1-0.5c0-0.2,0.1-0.4,0.1-0.7c0-0.4-0.1-0.7-0.3-1c-0.2-0.3-0.4-0.5-0.7-0.7h0.8v-1.2h-9.2v1.2h7.2
		c0.3,0.2,0.5,0.4,0.7,0.6c0.2,0.3,0.3,0.5,0.3,0.8c0,0.2,0,0.4-0.1,0.6c0,0.2-0.1,0.4-0.2,0.5L254.1,713.8z M247.1,720
		c0.7,0,1.3-0.2,1.7-0.5c0.5-0.4,0.9-0.9,1.3-1.6c0.4-0.7,0.7-1.1,1-1.3c0.3-0.2,0.6-0.4,0.9-0.3c0.3,0,0.6,0.1,0.8,0.3
		c0.2,0.2,0.3,0.5,0.3,0.8c0,0.4-0.1,0.7-0.3,0.9c-0.2,0.2-0.4,0.5-0.7,0.7l0.8,0.9c0.4-0.3,0.7-0.6,1-1c0.2-0.4,0.4-0.9,0.4-1.5
		c0-0.7-0.2-1.3-0.6-1.7c-0.4-0.4-1-0.7-1.6-0.7c-0.7,0-1.2,0.2-1.6,0.5c-0.4,0.4-0.8,0.9-1.3,1.6c-0.4,0.7-0.8,1.1-1.1,1.4
		c-0.3,0.2-0.7,0.4-1.1,0.3c-0.4,0-0.6-0.1-0.9-0.4c-0.2-0.2-0.3-0.6-0.3-1c0-0.3,0.1-0.7,0.3-0.9c0.2-0.3,0.5-0.6,0.9-0.9l-0.8-0.9
		c-0.4,0.3-0.8,0.7-1.1,1.1c-0.3,0.4-0.4,0.9-0.4,1.5c0,0.7,0.2,1.3,0.6,1.8C245.7,719.8,246.3,720,247.1,720L247.1,720z
		 M246.1,725.3c-0.1-0.2-0.2-0.4-0.2-0.6c0-0.2-0.1-0.4-0.1-0.6c0-0.2,0.1-0.4,0.2-0.5c0.1-0.1,0.4-0.2,0.7-0.2h6.3v1.8h1v-1.8h3.6
		l-0.7-1.2h-2.9v-1h-1v1h-6.4c-0.6,0-1.1,0.1-1.5,0.4c-0.3,0.2-0.5,0.6-0.5,1.2c0,0.3,0,0.5,0.1,0.7c0,0.2,0.1,0.4,0.2,0.6
		L246.1,725.3z M247.7,736.5c0.8,0,1.6-0.2,2.2-0.6c0.7-0.4,1.3-1.1,1.9-2c0.5-0.8,1-1.3,1.5-1.6c0.4-0.2,0.9-0.4,1.3-0.4
		c0.4,0,0.8,0.1,1.1,0.4c0.3,0.2,0.5,0.6,0.5,1.1c0,0.4-0.1,0.8-0.4,1.1c-0.3,0.3-0.6,0.6-1.1,0.8l0.6,1.1c0.6-0.3,1.1-0.7,1.5-1.1
		c0.4-0.4,0.6-1,0.6-1.8c0-0.9-0.3-1.5-0.8-2c-0.5-0.5-1.2-0.7-2-0.7c-0.8,0-1.5,0.2-2,0.5c-0.5,0.4-1.1,1-1.7,1.9
		c-0.6,0.8-1.1,1.4-1.6,1.7c-0.5,0.3-1.1,0.5-1.7,0.5c-0.5,0-0.9-0.2-1.2-0.5c-0.3-0.3-0.5-0.7-0.5-1.3c0-0.4,0.2-0.8,0.5-1.1
		c0.3-0.3,0.8-0.6,1.3-0.8l-0.5-1.1c-0.8,0.3-1.4,0.6-1.8,1.1c-0.4,0.5-0.6,1.1-0.6,1.9c0,0.9,0.3,1.7,0.8,2.2
		C246.1,736.2,246.8,736.5,247.7,736.5L247.7,736.5z M246.1,741.8c-0.1-0.2-0.2-0.4-0.2-0.6c0-0.2-0.1-0.4-0.1-0.6
		c0-0.3,0.1-0.4,0.2-0.5c0.1-0.1,0.4-0.2,0.7-0.2h6.3v1.8h1V740h3.6l-0.7-1.2h-2.9v-1h-1v1h-6.4c-0.6,0-1.1,0.1-1.5,0.4
		c-0.3,0.2-0.5,0.6-0.5,1.2c0,0.3,0,0.5,0.1,0.7c0,0.2,0.1,0.4,0.2,0.6L246.1,741.8z M245.6,745.1c0.3,0,0.5-0.1,0.6-0.2
		c0.2-0.2,0.3-0.4,0.3-0.7c0-0.3-0.1-0.5-0.3-0.6c-0.2-0.2-0.4-0.3-0.6-0.3c-0.3,0-0.5,0.1-0.6,0.3c-0.2,0.2-0.3,0.4-0.3,0.6
		c0,0.3,0.1,0.5,0.3,0.7C245.1,745,245.3,745.1,245.6,745.1L245.6,745.1z"/>
	<path display="inline" d="M416.9,880.2V879l-7.2-1c-0.4-0.1-0.9-0.1-1.5-0.2c-0.5-0.1-1-0.1-1.4-0.1c0.4,0,0.8-0.1,1.4-0.2
		c0.5-0.1,1-0.2,1.5-0.2l7.2-1.3v-1l-7.2-1.3c-0.4-0.1-0.9-0.2-1.5-0.2c-0.5-0.1-1-0.2-1.4-0.2c0.4,0,0.8-0.1,1.4-0.1
		c0.5-0.1,1-0.1,1.5-0.2l7.2-1v-1.2l-12.3,1.9v1.1l6,1.1c0.3,0.1,0.8,0.1,1.2,0.2c0.5,0.1,0.9,0.1,1.4,0.2c0.5,0.1,0.9,0.1,1.3,0.2
		c-0.4,0-0.8,0.1-1.3,0.2c-0.5,0.1-1,0.1-1.4,0.2c-0.5,0.1-0.9,0.1-1.2,0.2l-6,1.1v1.2L416.9,880.2z M404.6,886.7h6.8
		c1,0,1.6-0.2,2-0.7c0.4-0.4,0.6-1.1,0.6-1.9c0-0.5-0.1-0.9-0.2-1.3c-0.2-0.4-0.4-0.8-0.7-1.2l-0.9,0.5c0.2,0.3,0.4,0.6,0.6,0.9
		c0.1,0.3,0.2,0.6,0.2,1c0,0.5-0.1,0.9-0.4,1.1c-0.3,0.2-0.7,0.4-1.2,0.4H410c0.1-0.2,0.2-0.4,0.3-0.7c0.1-0.3,0.1-0.6,0.1-0.9
		c0-0.8-0.2-1.5-0.7-2c-0.5-0.5-1.2-0.8-2.3-0.8c-1.1,0-1.8,0.2-2.3,0.7c-0.5,0.4-0.7,1-0.7,1.7c0,0.4,0.1,0.8,0.3,1.2
		c0.2,0.4,0.4,0.7,0.7,0.9h-0.8L404.6,886.7L404.6,886.7z M406.4,885.5c-0.3-0.2-0.5-0.5-0.7-0.8c-0.2-0.3-0.3-0.7-0.3-1.1
		c0-0.4,0.2-0.8,0.5-1c0.4-0.2,0.9-0.3,1.5-0.3c0.6,0,1.1,0.1,1.4,0.4c0.3,0.2,0.5,0.6,0.5,1.2c0,0.4,0,0.7-0.1,1
		c-0.1,0.3-0.2,0.5-0.3,0.7H406.4L406.4,885.5z"/>
	<path display="inline" d="M413.8,893.2c0.1-0.1,0.1-0.3,0.1-0.5c0-0.2,0.1-0.4,0.1-0.7c0-0.4-0.1-0.7-0.3-1
		c-0.2-0.3-0.4-0.5-0.7-0.7h0.8V889h-9.2v1.2h7.2c0.3,0.2,0.5,0.4,0.7,0.6c0.2,0.3,0.3,0.5,0.3,0.8c0,0.2,0,0.4-0.1,0.6
		c0,0.2-0.1,0.4-0.2,0.5L413.8,893.2z M404.6,900h12.8l-0.7-1.2h-3.6c0.3-0.2,0.5-0.5,0.6-0.8c0.2-0.3,0.3-0.7,0.3-1.1
		c0-0.9-0.4-1.5-1.3-2c-0.8-0.5-2-0.7-3.6-0.7c-1.5,0-2.7,0.2-3.5,0.7c-0.8,0.4-1.2,1.1-1.2,1.9c0,0.4,0.1,0.8,0.3,1.2
		c0.2,0.4,0.4,0.6,0.7,0.9h-0.8L404.6,900L404.6,900z M406.4,898.8c-0.3-0.2-0.5-0.5-0.7-0.8c-0.2-0.3-0.2-0.6-0.2-0.9
		c0-0.6,0.3-1,0.9-1.3c0.6-0.3,1.5-0.4,2.8-0.4c1.2,0,2.1,0.1,2.7,0.4c0.7,0.3,1,0.7,1,1.3c0,0.4-0.1,0.7-0.3,1
		c-0.2,0.3-0.4,0.6-0.7,0.8L406.4,898.8L406.4,898.8z"/>
	<path display="inline" d="M407.4,911.6c0.8,0,1.6-0.2,2.2-0.6c0.7-0.4,1.3-1.1,1.9-2c0.5-0.8,1-1.3,1.5-1.6
		c0.4-0.2,0.9-0.4,1.4-0.4c0.4,0,0.8,0.1,1.1,0.4c0.3,0.2,0.5,0.6,0.5,1.1c0,0.4-0.1,0.8-0.4,1.1c-0.3,0.3-0.6,0.5-1.1,0.8l0.6,1.1
		c0.6-0.3,1.1-0.7,1.5-1.1c0.4-0.4,0.6-1,0.6-1.8c0-0.9-0.3-1.5-0.8-2c-0.5-0.5-1.2-0.7-2-0.7c-0.8,0-1.5,0.2-2,0.5
		c-0.5,0.4-1.1,1-1.7,1.9c-0.6,0.8-1.1,1.4-1.6,1.7c-0.5,0.3-1.1,0.5-1.7,0.5c-0.5,0-0.9-0.2-1.2-0.5c-0.3-0.3-0.5-0.7-0.5-1.3
		c0-0.4,0.2-0.8,0.5-1.1c0.3-0.3,0.8-0.6,1.3-0.8l-0.5-1.1c-0.8,0.3-1.4,0.6-1.8,1.1c-0.4,0.5-0.6,1.1-0.6,1.9
		c0,0.9,0.3,1.7,0.8,2.2C405.8,911.3,406.5,911.6,407.4,911.6L407.4,911.6z M405.8,916.9c-0.1-0.2-0.2-0.4-0.2-0.6
		c0-0.2-0.1-0.4-0.1-0.6c0-0.2,0.1-0.4,0.2-0.5c0.1-0.1,0.4-0.2,0.7-0.2h6.3v1.8h1v-1.8h3.6l-0.7-1.2h-2.9v-1h-1v1h-6.4
		c-0.6,0-1.1,0.1-1.5,0.4c-0.3,0.2-0.5,0.6-0.5,1.2c0,0.3,0,0.5,0.1,0.7c0,0.2,0.1,0.4,0.2,0.6L405.8,916.9z M405.3,920.2
		c0.3,0,0.5-0.1,0.6-0.2c0.2-0.2,0.3-0.4,0.3-0.7c0-0.3-0.1-0.5-0.3-0.6c-0.2-0.2-0.4-0.3-0.6-0.3c-0.3,0-0.5,0.1-0.6,0.3
		c-0.2,0.2-0.3,0.4-0.3,0.6c0,0.3,0.1,0.5,0.3,0.7C404.8,920.1,405.1,920.2,405.3,920.2L405.3,920.2z"/>
	<path display="inline" d="M-79.7,851.5v-1l-6.3-0.9c-0.4-0.1-0.8-0.1-1.3-0.2c-0.5,0-0.9-0.1-1.2-0.1c0.3,0,0.7-0.1,1.2-0.2
		c0.5-0.1,0.9-0.2,1.3-0.2l6.3-1.1v-0.9l-6.3-1.1c-0.4-0.1-0.8-0.1-1.3-0.2c-0.5-0.1-0.9-0.1-1.2-0.2c0.3,0,0.7-0.1,1.2-0.1
		c0.5-0.1,0.9-0.1,1.3-0.2l6.3-0.9v-1l-10.7,1.7v1l5.3,1c0.3,0.1,0.7,0.1,1.1,0.2c0.4,0.1,0.8,0.1,1.3,0.2c0.4,0.1,0.8,0.1,1.1,0.1
		c-0.3,0-0.7,0.1-1.1,0.1c-0.4,0.1-0.8,0.1-1.3,0.2c-0.4,0.1-0.8,0.1-1.1,0.2l-5.3,1v1L-79.7,851.5z"/>
	<path display="inline" d="M-86.3,857.6c1.3,0,2.3-0.2,3-0.7c0.7-0.4,1.1-1.1,1.1-1.9c0-0.8-0.4-1.4-1.1-1.9
		c-0.7-0.5-1.7-0.7-3.1-0.7c-1.4,0-2.5,0.3-3.2,0.8c-0.7,0.5-1,1.1-1,1.8c0,0.5,0.1,0.9,0.3,1.3c0.2,0.4,0.5,0.7,0.9,1.1l0.7-0.6
		c-0.3-0.3-0.6-0.5-0.7-0.8c-0.2-0.3-0.2-0.5-0.2-0.9c0-0.5,0.3-0.9,0.8-1.2c0.5-0.3,1.2-0.4,2.1-0.4v4.1c0.1,0,0.1,0,0.2,0
		C-86.5,857.6-86.4,857.6-86.3,857.6L-86.3,857.6z M-85.8,856.6v-3.1c0.9,0,1.6,0.2,2,0.5c0.4,0.3,0.6,0.6,0.6,1.1
		c0,0.5-0.3,0.9-0.8,1.1C-84.4,856.4-85,856.5-85.8,856.6L-85.8,856.6z M-88.5,863.4c0.6,0,1.1-0.2,1.5-0.5c0.4-0.3,0.8-0.8,1.1-1.4
		c0.4-0.6,0.6-1,0.9-1.2c0.2-0.2,0.5-0.3,0.8-0.3c0.3,0,0.5,0.1,0.7,0.3c0.2,0.2,0.3,0.4,0.3,0.7c0,0.3-0.1,0.6-0.2,0.8
		c-0.2,0.2-0.4,0.4-0.6,0.6l0.7,0.8c0.4-0.2,0.6-0.5,0.8-0.9c0.2-0.4,0.3-0.8,0.3-1.3c0-0.6-0.2-1.1-0.6-1.5
		c-0.4-0.4-0.8-0.6-1.4-0.6c-0.6,0-1.1,0.2-1.4,0.5c-0.4,0.3-0.7,0.8-1.1,1.4c-0.4,0.6-0.7,1-0.9,1.2c-0.3,0.2-0.6,0.3-0.9,0.3
		c-0.3,0-0.6-0.1-0.8-0.3c-0.2-0.2-0.3-0.5-0.3-0.9c0-0.3,0.1-0.6,0.3-0.8c0.2-0.2,0.4-0.5,0.8-0.7l-0.7-0.8c-0.4,0.3-0.7,0.6-0.9,1
		c-0.2,0.4-0.4,0.8-0.4,1.3c0,0.6,0.2,1.2,0.6,1.6C-89.7,863.2-89.1,863.4-88.5,863.4L-88.5,863.4z M-89.4,868
		c-0.1-0.2-0.1-0.3-0.2-0.5c0-0.2,0-0.3,0-0.5c0-0.2,0.1-0.4,0.2-0.5c0.1-0.1,0.3-0.2,0.6-0.2h5.5v1.6h0.9v-1.6h3.1l-0.6-1h-2.5
		v-0.8h-0.9v0.8h-5.6c-0.6,0-1,0.1-1.3,0.3c-0.3,0.2-0.4,0.6-0.4,1c0,0.2,0,0.4,0.1,0.7c0,0.2,0.1,0.4,0.2,0.6L-89.4,868z
		 M-88.5,873.8c0.6,0,1.1-0.2,1.5-0.5c0.4-0.3,0.8-0.8,1.1-1.4c0.4-0.6,0.6-1,0.9-1.2c0.2-0.2,0.5-0.3,0.8-0.3
		c0.3,0,0.5,0.1,0.7,0.3c0.2,0.2,0.3,0.4,0.3,0.7c0,0.3-0.1,0.6-0.2,0.8c-0.2,0.2-0.4,0.4-0.6,0.6l0.7,0.8c0.4-0.2,0.6-0.5,0.8-0.9
		c0.2-0.4,0.3-0.8,0.3-1.3c0-0.6-0.2-1.1-0.6-1.5c-0.4-0.4-0.8-0.6-1.4-0.6c-0.6,0-1.1,0.2-1.4,0.5c-0.4,0.3-0.7,0.8-1.1,1.4
		c-0.4,0.6-0.7,1-0.9,1.2c-0.3,0.2-0.6,0.3-0.9,0.3c-0.3,0-0.6-0.1-0.8-0.3c-0.2-0.2-0.3-0.5-0.3-0.9c0-0.3,0.1-0.6,0.3-0.8
		c0.2-0.2,0.4-0.5,0.8-0.7l-0.7-0.8c-0.4,0.3-0.7,0.6-0.9,1c-0.2,0.4-0.4,0.8-0.4,1.3c0,0.6,0.2,1.2,0.6,1.6
		C-89.7,873.5-89.1,873.8-88.5,873.8L-88.5,873.8z M-89.4,878.3c-0.1-0.2-0.1-0.3-0.2-0.5c0-0.2,0-0.3,0-0.5c0-0.2,0.1-0.4,0.2-0.5
		c0.1-0.1,0.3-0.2,0.6-0.2h5.5v1.6h0.9v-1.6h3.1l-0.6-1h-2.5v-0.8h-0.9v0.8h-5.6c-0.6,0-1,0.1-1.3,0.3c-0.3,0.2-0.4,0.6-0.4,1
		c0,0.2,0,0.4,0.1,0.6c0,0.2,0.1,0.4,0.2,0.6L-89.4,878.3z M-90.4,884.6h6c0.8,0,1.4-0.2,1.8-0.6c0.3-0.4,0.5-0.9,0.5-1.6
		c0-0.4-0.1-0.8-0.2-1.2c-0.1-0.4-0.3-0.7-0.6-1l-0.8,0.5c0.2,0.3,0.4,0.6,0.5,0.8c0.1,0.3,0.2,0.5,0.2,0.8c0,0.4-0.1,0.7-0.3,0.9
		c-0.2,0.2-0.6,0.3-1.1,0.3h-1.1c0.1-0.2,0.2-0.4,0.3-0.6c0.1-0.2,0.1-0.5,0.1-0.8c0-0.7-0.2-1.3-0.6-1.7c-0.4-0.4-1.1-0.7-2-0.7
		c-0.9,0-1.6,0.2-2,0.6c-0.4,0.4-0.6,0.9-0.6,1.5c0,0.4,0.1,0.7,0.2,1c0.2,0.3,0.4,0.6,0.6,0.8h-0.7V884.6z M-88.8,883.5
		c-0.2-0.2-0.4-0.4-0.6-0.7c-0.2-0.3-0.2-0.6-0.2-0.9c0-0.4,0.2-0.7,0.5-0.9c0.3-0.2,0.8-0.3,1.3-0.3c0.5,0,0.9,0.1,1.2,0.3
		c0.3,0.2,0.4,0.6,0.4,1c0,0.4,0,0.6-0.1,0.9c-0.1,0.2-0.2,0.4-0.3,0.6L-88.8,883.5L-88.8,883.5z M-89.4,889.4
		c-0.1-0.2-0.1-0.3-0.2-0.5c0-0.2,0-0.3,0-0.5c0-0.2,0.1-0.4,0.2-0.5c0.1-0.1,0.3-0.2,0.6-0.2h5.5v1.6h0.9v-1.6h3.1l-0.6-1h-2.5V886
		h-0.9v0.8h-5.6c-0.6,0-1,0.1-1.3,0.3c-0.3,0.2-0.4,0.6-0.4,1c0,0.2,0,0.5,0.1,0.7c0,0.2,0.1,0.4,0.2,0.6L-89.4,889.4z M-86.3,896
		c1.3,0,2.3-0.2,3-0.6c0.7-0.4,1.1-1.1,1.1-1.9c0-0.8-0.4-1.4-1.1-1.9c-0.7-0.5-1.7-0.7-3.1-0.7c-1.4,0-2.5,0.3-3.2,0.8
		c-0.7,0.5-1,1.1-1,1.8c0,0.5,0.1,0.9,0.3,1.3c0.2,0.4,0.5,0.7,0.9,1.1l0.7-0.6c-0.3-0.3-0.6-0.5-0.7-0.8c-0.2-0.3-0.2-0.5-0.2-0.9
		c0-0.5,0.3-0.9,0.8-1.2c0.5-0.3,1.2-0.4,2.1-0.4v4.1c0.1,0,0.1,0,0.2,0C-86.5,896-86.4,896-86.3,896L-86.3,896z M-85.8,894.9v-3.1
		c0.9,0,1.6,0.2,2,0.5c0.4,0.3,0.6,0.6,0.6,1.1c0,0.5-0.3,0.9-0.8,1.1C-84.4,894.8-85,894.9-85.8,894.9L-85.8,894.9z M-88,905.8
		c0.7,0,1.4-0.2,2-0.5c0.6-0.4,1.1-0.9,1.7-1.8c0.5-0.7,0.9-1.1,1.3-1.4c0.4-0.2,0.8-0.3,1.2-0.3c0.4,0,0.7,0.1,0.9,0.3
		c0.3,0.2,0.4,0.5,0.4,1c0,0.4-0.1,0.7-0.3,1c-0.2,0.2-0.6,0.5-1,0.7l0.5,0.9c0.6-0.2,1-0.6,1.3-1c0.3-0.4,0.5-0.9,0.5-1.6
		c0-0.7-0.2-1.3-0.7-1.7c-0.5-0.4-1-0.6-1.7-0.7c-0.7,0-1.3,0.2-1.8,0.5c-0.5,0.3-1,0.9-1.5,1.6c-0.5,0.7-1,1.2-1.4,1.5
		c-0.5,0.3-1,0.4-1.5,0.4c-0.4,0-0.8-0.1-1.1-0.4c-0.3-0.3-0.4-0.6-0.4-1.1c0-0.4,0.1-0.7,0.4-1c0.3-0.3,0.7-0.5,1.2-0.7l-0.4-1
		c-0.7,0.2-1.2,0.6-1.6,1c-0.4,0.4-0.6,1-0.6,1.7c0,0.8,0.3,1.5,0.7,1.9C-89.4,905.5-88.7,905.8-88,905.8L-88,905.8z M-89.4,910.5
		c-0.1-0.2-0.1-0.3-0.2-0.5c0-0.2,0-0.3,0-0.5c0-0.2,0.1-0.4,0.2-0.5c0.1-0.1,0.3-0.2,0.6-0.2h5.5v1.6h0.9v-1.6h3.1l-0.6-1h-2.5V907
		h-0.9v0.8h-5.6c-0.6,0-1,0.1-1.3,0.3c-0.3,0.2-0.4,0.6-0.4,1c0,0.2,0,0.4,0.1,0.7c0,0.2,0.1,0.4,0.2,0.6L-89.4,910.5z M-89.8,913.3
		c0.2,0,0.4-0.1,0.6-0.2c0.2-0.2,0.2-0.3,0.2-0.6c0-0.2-0.1-0.4-0.2-0.6c-0.2-0.2-0.3-0.2-0.6-0.2c-0.2,0-0.4,0.1-0.6,0.2
		c-0.2,0.1-0.2,0.3-0.2,0.6c0,0.2,0.1,0.4,0.2,0.6C-90.2,913.2-90,913.3-89.8,913.3L-89.8,913.3z"/>
</g>
<g id="Layer_2">
	<g display="none">
		<polygon display="inline" points="-28.5,752.8 0,752.8 0,768.1 -28.5,768.1 		"/>
		<path display="inline" fill="#020405" d="M-27.3,746.9c0-0.8-0.2-1.4-0.5-2c-0.4-0.6-0.9-1.2-1.8-1.7c-0.7-0.5-1.2-0.9-1.4-1.3
			c-0.2-0.4-0.3-0.8-0.3-1.2c0-0.4,0.1-0.7,0.3-1s0.5-0.4,1-0.4c0.4,0,0.7,0.1,1,0.3c0.3,0.2,0.5,0.6,0.7,1l0.9-0.5
			c-0.3-0.6-0.6-1-1-1.3c-0.4-0.3-0.9-0.5-1.6-0.5c-0.8,0-1.3,0.3-1.8,0.7c-0.4,0.5-0.6,1.1-0.7,1.8c0,0.7,0.2,1.3,0.5,1.8
			c0.3,0.5,0.9,1,1.7,1.5c0.7,0.5,1.2,1,1.5,1.5c0.3,0.5,0.4,1,0.4,1.5c0,0.5-0.1,0.8-0.4,1.1c-0.3,0.3-0.6,0.4-1.1,0.4
			c-0.4,0-0.7-0.1-1-0.4c-0.3-0.3-0.5-0.7-0.7-1.2l-1,0.5c0.2,0.7,0.6,1.2,1,1.6c0.4,0.4,1,0.6,1.7,0.6c0.8,0,1.5-0.3,2-0.8
			C-27.6,748.3-27.3,747.7-27.3,746.9L-27.3,746.9z M-19.7,746.1v-7.7h-1.1v7.7c0,0.8-0.1,1.4-0.4,1.8c-0.3,0.4-0.7,0.6-1.3,0.6
			c-0.6,0-1-0.2-1.4-0.6c-0.3-0.4-0.5-1-0.5-1.8v-7.7h-1.1v7.7c0,1.1,0.3,2,0.7,2.6c0.5,0.6,1.2,0.9,2.1,0.9c0.9,0,1.6-0.3,2.1-0.9
			C-19.9,748.1-19.7,747.2-19.7,746.1L-19.7,746.1z M-12.1,741.4c0-1.1-0.3-1.8-0.8-2.3c-0.5-0.5-1.2-0.7-2-0.7h-2.6v11h1.1v-4.8
			h1.3c0.9,0,1.6-0.3,2.1-0.8C-12.4,743.3-12.1,742.5-12.1,741.4L-12.1,741.4z M-13.2,741.5c0,0.7-0.2,1.2-0.5,1.6
			c-0.3,0.3-0.8,0.5-1.4,0.5h-1.4v-4.2h1.4c0.6,0,1,0.2,1.3,0.5C-13.4,740.3-13.2,740.8-13.2,741.5L-13.2,741.5z M-5.6,749.4v-1
			h-3.8V744h2.3v-1h-2.3v-3.6h3.6v-1h-4.7v11L-5.6,749.4L-5.6,749.4z M1.7,749.4L0,744.1c0.5-0.2,0.9-0.6,1.2-1
			c0.3-0.5,0.5-1.1,0.5-1.8c0-1-0.3-1.7-0.8-2.2c-0.5-0.5-1.2-0.7-2-0.7h-2.7v11h1.1v-5c0.1,0,0.2,0,0.5,0s0.4,0,0.7,0
			c0.2,0,0.3,0,0.4,0l1.7,5H1.7z M0.6,741.4c0,0.7-0.2,1.2-0.5,1.5c-0.3,0.3-0.8,0.5-1.4,0.5h-1.4v-4h1.5c0.6,0,1,0.2,1.3,0.5
			C0.4,740.2,0.6,740.7,0.6,741.4L0.6,741.4z M10.5,749.4v-11H9.3l-1.7,5.8c-0.1,0.5-0.3,0.9-0.4,1.4S7,746.4,7,746.8
			c0-0.4-0.1-0.8-0.2-1.2c-0.1-0.4-0.2-0.9-0.4-1.4l-1.7-5.8H3.5v11h1v-6.6c0-0.3,0-0.7,0-1c0-0.4,0-0.7,0-0.9
			c0.1,0.3,0.1,0.7,0.2,1c0.1,0.3,0.2,0.7,0.3,1.1l1.9,6.7l1.9-6.7c0.1-0.4,0.2-0.8,0.3-1.2c0.1-0.3,0.2-0.7,0.2-1
			c0,0.3,0,0.6,0,0.9c0,0.4,0,0.7,0,1v6.6L10.5,749.4L10.5,749.4z M18.6,749.4l-2.6-11h-1.2l-2.6,11h1.1l0.7-2.9h2.9l0.6,2.9H18.6z
			 M16.6,745.5h-2.4l0.6-2.7c0.1-0.5,0.2-1.1,0.3-1.6c0.1-0.5,0.2-1,0.3-1.4c0.1,0.4,0.2,0.9,0.3,1.4c0.1,0.5,0.2,1.1,0.3,1.6
			L16.6,745.5z M25.8,749.4l-1.7-5.3c0.5-0.2,0.9-0.6,1.2-1c0.3-0.5,0.5-1.1,0.5-1.8c0-1-0.3-1.7-0.8-2.2c-0.5-0.5-1.2-0.7-2-0.7
			h-2.7v11h1.1v-5c0.1,0,0.2,0,0.5,0c0.2,0,0.4,0,0.7,0c0.2,0,0.3,0,0.4,0l1.7,5H25.8z M24.7,741.4c0,0.7-0.2,1.2-0.5,1.5
			c-0.3,0.3-0.8,0.5-1.4,0.5h-1.4v-4h1.5c0.6,0,1,0.2,1.3,0.5C24.5,740.2,24.7,740.7,24.7,741.4L24.7,741.4z M33.3,749.4l-2.7-6.9
			l2.4-4.1h-1.2l-1.9,3.2c-0.2,0.3-0.4,0.7-0.6,1.1c-0.2,0.4-0.4,0.8-0.6,1c0-0.2,0-0.5,0-0.9c0-0.4,0-0.7,0-0.9v-3.6h-1.1v11h1.1
			v-4.1l1.1-1.7l2.3,5.8L33.3,749.4L33.3,749.4z M39.8,749.4v-1H36V744h2.3v-1H36v-3.6h3.6v-1h-4.7v11L39.8,749.4L39.8,749.4z
			 M46.5,739.4v-1h-5.6v1h2.2v10h1.1v-10H46.5z M56.5,742.2c0-1.3-0.3-2.4-0.8-3c-0.5-0.7-1.2-1-2-1c-0.9,0-1.6,0.3-2.1,1
			c-0.5,0.6-0.8,1.5-0.8,2.5c0,1,0.2,1.8,0.7,2.4c0.5,0.6,1.1,0.9,1.9,0.9c0.5,0,0.9-0.1,1.2-0.3c0.3-0.2,0.6-0.4,0.8-0.7
			c-0.2,1.1-0.6,2.1-1.2,2.9c-0.6,0.8-1.4,1.4-2.4,1.7l0.3,0.9c1-0.4,1.8-0.9,2.5-1.6c0.6-0.7,1.1-1.6,1.4-2.6
			C56.4,744.4,56.5,743.3,56.5,742.2L56.5,742.2z M55.4,741.6c0,0.7-0.1,1.2-0.4,1.7c-0.3,0.4-0.7,0.7-1.3,0.7c-0.6,0-1-0.2-1.3-0.7
			s-0.4-1-0.4-1.7c0-0.7,0.2-1.3,0.5-1.7c0.3-0.4,0.7-0.7,1.3-0.7c0.5,0,0.9,0.2,1.3,0.7C55.3,740.3,55.4,740.9,55.4,741.6
			L55.4,741.6z"/>
		<path display="inline" fill="#020405" d="M63.5,742.2c0-1.3-0.3-2.4-0.8-3c-0.5-0.7-1.2-1-2-1c-0.9,0-1.6,0.3-2.1,1
			c-0.5,0.6-0.8,1.5-0.8,2.5c0,1,0.2,1.8,0.7,2.4c0.5,0.6,1.1,0.9,1.9,0.9c0.5,0,0.9-0.1,1.2-0.3c0.3-0.2,0.6-0.4,0.8-0.7
			c-0.2,1.1-0.6,2.1-1.2,2.9c-0.6,0.8-1.4,1.4-2.4,1.7l0.3,0.9c1-0.4,1.8-0.9,2.5-1.6c0.6-0.7,1.1-1.6,1.4-2.6
			C63.3,744.4,63.5,743.3,63.5,742.2L63.5,742.2z M62.4,741.6c0,0.7-0.1,1.2-0.4,1.7c-0.3,0.4-0.7,0.7-1.3,0.7c-0.6,0-1-0.2-1.3-0.7
			s-0.4-1-0.4-1.7c0-0.7,0.2-1.3,0.5-1.7c0.3-0.4,0.7-0.7,1.3-0.7c0.5,0,0.9,0.2,1.3,0.7C62.2,740.3,62.4,740.9,62.4,741.6
			L62.4,741.6z"/>
	</g>
	<g display="none">
		<polygon display="inline" points="184.4,846.2 207.8,846.2 207.8,861.6 184.4,861.6 		"/>
		<path display="inline" fill="#020405" d="M184.7,885.4v-1h-3.5v-10h-1.1v11H184.7z M187.6,885.4v-11h-1.1v11H187.6z M194.8,875.4
			v-1h-5.6v1h2.2v10h1.1v-10H194.8z M201.4,875.4v-1h-5.6v1h2.2v10h1.1v-10H201.4z M207.6,885.4v-1h-3.5v-10H203v11H207.6z
			 M214.2,885.4v-1h-3.8V880h2.3v-1h-2.3v-3.6h3.6v-1h-4.7v11L214.2,885.4L214.2,885.4z"/>
		<path display="inline" fill="#020405" d="M182.4,898.1c0-0.8-0.2-1.4-0.5-2c-0.4-0.6-0.9-1.2-1.8-1.7c-0.7-0.5-1.2-0.9-1.4-1.3
			c-0.2-0.4-0.3-0.8-0.3-1.2c0-0.4,0.1-0.7,0.3-1c0.2-0.3,0.5-0.4,1-0.4c0.4,0,0.7,0.1,1,0.3c0.3,0.2,0.5,0.6,0.7,1l0.9-0.5
			c-0.2-0.6-0.6-1-1-1.3c-0.4-0.3-0.9-0.5-1.6-0.5c-0.8,0-1.3,0.3-1.8,0.7c-0.4,0.5-0.6,1.1-0.7,1.8c0,0.7,0.2,1.3,0.5,1.8
			c0.3,0.5,0.9,1,1.7,1.5c0.7,0.5,1.2,1,1.5,1.5c0.3,0.5,0.4,1,0.4,1.5c0,0.5-0.1,0.8-0.4,1.1c-0.3,0.3-0.6,0.4-1.1,0.4
			c-0.4,0-0.7-0.1-1-0.4c-0.3-0.3-0.5-0.7-0.7-1.2l-1,0.5c0.2,0.7,0.6,1.2,1,1.6c0.4,0.4,1,0.6,1.7,0.6c0.8,0,1.5-0.3,2-0.8
			C182.1,899.6,182.4,898.9,182.4,898.1L182.4,898.1z M190.2,900.6l-2.6-11h-1.2l-2.6,11h1.1l0.7-2.9h2.9l0.6,2.9H190.2z
			 M188.2,896.7h-2.4l0.6-2.7c0.1-0.5,0.2-1.1,0.3-1.6c0.1-0.5,0.2-1,0.3-1.4c0.1,0.4,0.2,0.9,0.3,1.4c0.1,0.5,0.2,1.1,0.3,1.6
			L188.2,896.7z M193,900.6v-11h-1.1v11H193z M200.9,896.8V895h-2.6v1h1.5v0.8c0,1-0.1,1.7-0.4,2.2c-0.3,0.5-0.7,0.7-1.3,0.7
			c-0.6,0-1.1-0.4-1.5-1.2c-0.3-0.8-0.5-1.9-0.5-3.5c0-1.5,0.2-2.7,0.5-3.5c0.3-0.8,0.8-1.2,1.4-1.2c0.4,0,0.7,0.1,0.9,0.4
			c0.3,0.3,0.5,0.7,0.7,1.4l1-0.4c-0.2-0.7-0.5-1.3-0.9-1.7c-0.4-0.4-1-0.6-1.7-0.7c-1,0-1.8,0.5-2.3,1.5c-0.5,1-0.8,2.4-0.8,4.2
			c0,1.8,0.3,3.2,0.8,4.2c0.5,1,1.3,1.5,2.3,1.5c1,0,1.7-0.4,2.2-1.1C200.7,898.9,200.9,898,200.9,896.8L200.9,896.8z M208.7,895.1
			c0-1.8-0.3-3.2-0.8-4.2c-0.5-1-1.3-1.5-2.4-1.5c-1,0-1.8,0.5-2.4,1.5c-0.5,1-0.8,2.4-0.8,4.2s0.3,3.2,0.8,4.2
			c0.5,1,1.3,1.5,2.4,1.5c1,0,1.8-0.5,2.4-1.5C208.4,898.3,208.7,896.9,208.7,895.1L208.7,895.1z M207.6,895.1
			c0,1.5-0.2,2.7-0.6,3.5c-0.4,0.8-0.9,1.2-1.5,1.2s-1.1-0.4-1.5-1.2c-0.4-0.8-0.6-1.9-0.6-3.5s0.2-2.7,0.6-3.5
			c0.4-0.8,0.9-1.2,1.5-1.2c0.6,0,1.1,0.4,1.5,1.2C207.4,892.4,207.6,893.6,207.6,895.1L207.6,895.1z M216.3,900.6v-11h-1v6.3
			c0,0.3,0,0.7,0,1.2c0,0.4,0,0.8,0,1c-0.1-0.3-0.3-0.7-0.5-1.2c-0.2-0.5-0.4-1-0.6-1.5l-2.5-5.8h-1.1v11h1V894c0-0.3,0-0.7,0-1.2
			c0-0.4,0-0.7,0-1c0.1,0.4,0.3,0.8,0.5,1.3c0.2,0.5,0.4,1,0.6,1.4l2.7,6.1L216.3,900.6L216.3,900.6z"/>
		<path display="inline" fill="#020405" d="M185.8,907.9c0-1.1-0.3-1.8-0.8-2.3c-0.5-0.5-1.2-0.7-2-0.7h-2.6v11h1.1v-4.8h1.3
			c0.9,0,1.6-0.3,2.1-0.8C185.5,909.8,185.8,909,185.8,907.9L185.8,907.9z M184.7,907.9c0,0.7-0.2,1.2-0.5,1.6
			c-0.3,0.3-0.8,0.5-1.4,0.5h-1.4v-4.2h1.4c0.6,0,1,0.2,1.3,0.5C184.6,906.7,184.7,907.3,184.7,907.9L184.7,907.9z M192.1,915.9v-1
			h-3.5v-10h-1.1v11H192.1z M199.7,915.9l-2.6-11h-1.2l-2.6,11h1.1l0.7-2.9h2.9l0.6,2.9H199.7z M197.7,912h-2.4l0.6-2.7
			c0.1-0.5,0.2-1.1,0.3-1.6c0.1-0.5,0.2-1,0.3-1.4c0.1,0.4,0.2,0.9,0.3,1.4c0.1,0.5,0.2,1.1,0.3,1.6L197.7,912z M206.3,915.9v-1
			h-3.7h-0.5c0.1-0.1,0.1-0.2,0.2-0.3c0.1-0.1,0.1-0.2,0.2-0.3l3.8-8.4v-1h-5v1h3.4h0.5c0,0.1-0.1,0.2-0.2,0.3
			c0,0.1-0.1,0.2-0.2,0.4l-3.9,8.4v1L206.3,915.9L206.3,915.9z"/>
		<path display="inline" fill="#020405" d="M214,915.9l-2.6-11h-1.2l-2.6,11h1.1l0.7-2.9h2.9l0.6,2.9H214z M212,912h-2.4l0.6-2.7
			c0.1-0.5,0.2-1.1,0.3-1.6c0.1-0.5,0.2-1,0.3-1.4c0.1,0.4,0.2,0.9,0.3,1.4c0.1,0.5,0.2,1.1,0.3,1.6L212,912z"/>
		
			<line display="inline" fill="none" stroke="#000000" stroke-width="0.5" stroke-miterlimit="3.8637" x1="189.2" y1="855.2" x2="189.6" y2="868.9"/>
	</g>
	<g>
		<polygon points="147.4,748.8 222.6,748.8 222.6,778.4 147.4,778.4 		"/>
		<polygon fill="#020405" points="171.7,713 171.7,712 166.1,712 166.1,713 168.4,713 168.4,723 169.5,723 169.5,713 		"/>
		<path fill="#020405" d="M178.9,717.5c0-1.8-0.3-3.2-0.8-4.2c-0.5-1-1.3-1.5-2.4-1.5c-1,0-1.8,0.5-2.4,1.5c-0.5,1-0.8,2.4-0.8,4.2
			c0,1.8,0.3,3.2,0.8,4.2c0.5,1,1.3,1.5,2.4,1.5c1,0,1.8-0.5,2.4-1.5C178.7,720.7,178.9,719.3,178.9,717.5L178.9,717.5z
			 M177.8,717.5c0,1.5-0.2,2.7-0.6,3.5c-0.4,0.8-0.9,1.2-1.5,1.2c-0.6,0-1.1-0.4-1.5-1.2c-0.4-0.8-0.6-1.9-0.6-3.5
			c0-1.5,0.2-2.7,0.6-3.5c0.3-0.8,0.9-1.2,1.5-1.2c0.6,0,1.1,0.4,1.5,1.2C177.6,714.8,177.8,716,177.8,717.5L177.8,717.5z
			 M186.5,717.4c0-1.8-0.3-3.1-0.9-4.1c-0.6-0.9-1.5-1.4-2.6-1.4h-2.1v11h2c1.2,0,2.1-0.4,2.7-1.4
			C186.2,720.8,186.5,719.4,186.5,717.4L186.5,717.4z M185.4,717.5c0,1.6-0.2,2.8-0.7,3.5c-0.4,0.7-1,1-1.8,1h-1v-9h1
			c0.8,0,1.4,0.4,1.8,1.1C185.2,714.9,185.4,716,185.4,717.5L185.4,717.5z"/>
		<path fill="#020405" d="M194,723l-2.6-11h-1.2l-2.6,11h1.1l0.7-2.9h2.9l0.6,2.9H194z M192,719.1h-2.4l0.6-2.7
			c0.1-0.5,0.2-1.1,0.3-1.6c0.1-0.5,0.2-1,0.3-1.4c0.1,0.4,0.2,0.9,0.3,1.4c0.1,0.5,0.2,1.1,0.3,1.6L192,719.1z M200.4,712h-1.2
			l-1.1,2.9c-0.2,0.4-0.3,0.9-0.5,1.3c-0.2,0.4-0.3,0.8-0.4,1.2c-0.1-0.3-0.2-0.7-0.4-1.2c-0.2-0.5-0.3-0.9-0.5-1.4l-1.1-2.9h-1.2
			l2.6,6.4v4.6h1.1v-4.6L200.4,712z"/>
		<path fill="#020405" d="M172.2,730.3c0-1.1-0.3-1.8-0.8-2.3c-0.5-0.5-1.2-0.7-2-0.7h-2.6v11h1.1v-4.8h1.3c0.9,0,1.6-0.2,2.1-0.8
			C171.9,732.2,172.2,731.4,172.2,730.3L172.2,730.3z M171.1,730.4c0,0.7-0.2,1.2-0.5,1.6c-0.3,0.3-0.8,0.5-1.4,0.5h-1.4v-4.2h1.4
			c0.6,0,1,0.2,1.3,0.5C170.9,729.1,171.1,729.7,171.1,730.4L171.1,730.4z M178.4,738.3v-1h-3.5v-10h-1.1v11H178.4z M186,738.3
			l-2.6-11h-1.2l-2.6,11h1.1l0.7-2.9h2.9l0.6,2.9H186z M184,734.4h-2.4l0.6-2.7c0.1-0.5,0.2-1.1,0.3-1.6c0.1-0.5,0.2-1,0.3-1.4
			c0.1,0.4,0.2,0.9,0.3,1.4c0.1,0.5,0.2,1.1,0.3,1.6L184,734.4z M192.6,738.3v-1h-3.7h-0.5c0.1-0.1,0.1-0.2,0.2-0.3
			c0-0.1,0.1-0.2,0.2-0.3l3.8-8.4v-1h-5v1h3.4h0.5c0,0.1-0.1,0.2-0.2,0.3c0,0.1-0.1,0.2-0.2,0.4l-3.9,8.4v1H192.6L192.6,738.3z"/>
		<path fill="#020405" d="M200.3,738.3l-2.6-11h-1.2l-2.6,11h1.1l0.7-2.9h2.9l0.6,2.9H200.3z M198.3,734.4h-2.4l0.6-2.7
			c0.1-0.5,0.2-1.1,0.3-1.6c0.1-0.5,0.2-1,0.3-1.4c0.1,0.4,0.2,0.9,0.2,1.4c0.1,0.5,0.2,1.1,0.4,1.6L198.3,734.4z"/>
		<polygon points="155.1,764.3 180.2,764.3 180.2,827.7 155.1,827.7 		"/>
	</g>
	<g display="none">
		<polygon display="inline" points="100.6,797.5 147.4,797.5 147.4,828.9 100.6,828.9 		"/>
		<path display="inline" fill="#020405" d="M65.4,792c0-0.8-0.2-1.4-0.5-1.8c-0.3-0.4-0.7-0.7-1.2-0.9c0.4-0.2,0.7-0.4,1-0.8
			c0.2-0.4,0.4-0.9,0.4-1.5c0-0.9-0.2-1.6-0.7-2c-0.5-0.5-1.1-0.7-1.9-0.7H60v11h2.5c0.9,0,1.6-0.3,2.1-0.8
			C65.2,793.9,65.4,793.1,65.4,792L65.4,792z M64,787c0,0.5-0.1,1-0.4,1.3c-0.3,0.3-0.7,0.5-1.2,0.5h-1.3v-3.6h1.3
			c0.5,0,0.9,0.2,1.2,0.5C63.9,785.9,64,786.4,64,787L64,787z M64.3,792c0,0.7-0.1,1.2-0.4,1.6c-0.3,0.4-0.7,0.6-1.3,0.6h-1.5v-4.3
			h1.3c0.6,0,1.1,0.2,1.4,0.6C64.2,790.8,64.3,791.3,64.3,792L64.3,792z M73.2,789.7c0-1.8-0.3-3.2-0.8-4.2c-0.5-1-1.3-1.5-2.4-1.5
			c-1,0-1.8,0.5-2.4,1.5c-0.5,1-0.8,2.4-0.8,4.2c0,1.8,0.3,3.2,0.8,4.2c0.5,1,1.3,1.5,2.4,1.5c1,0,1.8-0.5,2.4-1.5
			C73,792.9,73.2,791.5,73.2,789.7L73.2,789.7z M72.1,789.7c0,1.5-0.2,2.7-0.6,3.5c-0.4,0.8-0.9,1.2-1.5,1.2s-1.1-0.4-1.5-1.2
			c-0.4-0.8-0.6-1.9-0.6-3.5c0-1.5,0.2-2.7,0.6-3.5c0.3-0.8,0.9-1.2,1.5-1.2c0.6,0,1.1,0.4,1.5,1.2C71.9,787,72.1,788.1,72.1,789.7
			L72.1,789.7z M79.7,795.2v-1h-3.5v-10h-1.1v11L79.7,795.2L79.7,795.2z M86.3,792.7c0-0.8-0.2-1.4-0.5-2c-0.4-0.6-0.9-1.2-1.8-1.7
			c-0.7-0.5-1.2-0.9-1.4-1.3c-0.2-0.4-0.3-0.8-0.3-1.2c0-0.4,0.1-0.7,0.3-1c0.2-0.3,0.5-0.4,1-0.4c0.4,0,0.7,0.1,1,0.3
			c0.3,0.2,0.5,0.6,0.7,1l0.9-0.5c-0.3-0.6-0.6-1-1-1.3c-0.4-0.3-0.9-0.5-1.6-0.5c-0.8,0-1.3,0.2-1.8,0.7c-0.4,0.5-0.6,1.1-0.7,1.8
			c0,0.7,0.2,1.3,0.5,1.8c0.3,0.5,0.9,1,1.7,1.5c0.7,0.5,1.2,1,1.5,1.5c0.3,0.5,0.4,1,0.4,1.5c0,0.5-0.1,0.8-0.4,1.1
			c-0.3,0.3-0.6,0.4-1.1,0.4c-0.4,0-0.7-0.1-1-0.4c-0.3-0.3-0.5-0.7-0.7-1.2l-1,0.5c0.2,0.7,0.6,1.2,1,1.6c0.4,0.4,1,0.6,1.7,0.6
			c0.8,0,1.5-0.3,2-0.8C86.1,794.1,86.3,793.5,86.3,792.7L86.3,792.7z"/>
		<path display="inline" fill="#020405" d="M94,795.2l-2.6-11h-1.2l-2.6,11h1.1l0.7-2.9h2.9l0.6,2.9H94z M92,791.3h-2.4l0.6-2.7
			c0.1-0.5,0.2-1.1,0.3-1.6c0.1-0.5,0.2-1,0.3-1.4c0.1,0.4,0.2,0.9,0.3,1.4c0.1,0.5,0.2,1.1,0.3,1.6L92,791.3z"/>
		<path display="inline" fill="#020405" d="M78.6,810.4v-11h-1.2l-1.7,5.8c-0.1,0.5-0.3,0.9-0.4,1.4c-0.1,0.4-0.2,0.9-0.2,1.2
			c0-0.4-0.1-0.8-0.2-1.2c-0.1-0.4-0.2-0.9-0.4-1.4l-1.7-5.8h-1.2v11h1v-6.6c0-0.3,0-0.7,0-1c0-0.4,0-0.7,0-0.9
			c0.1,0.3,0.1,0.7,0.2,1c0.1,0.3,0.2,0.7,0.3,1.2l1.9,6.7l1.9-6.7c0.1-0.4,0.2-0.8,0.3-1.2c0.1-0.3,0.2-0.7,0.2-1
			c0,0.3,0,0.6,0,0.9c0,0.4,0,0.7,0,1v6.6L78.6,810.4L78.6,810.4z M82,810.4v-11h-1.1v11H82z M90,810.4v-11h-1v6.3
			c0,0.3,0,0.7,0,1.2c0,0.4,0,0.8,0,1c-0.1-0.3-0.3-0.7-0.5-1.2c-0.2-0.5-0.4-1-0.6-1.5l-2.5-5.8h-1.1v11h1v-6.6c0-0.3,0-0.7,0-1.2
			c0-0.4,0-0.7,0-1c0.1,0.4,0.3,0.8,0.5,1.3c0.2,0.5,0.4,1,0.6,1.4l2.6,6.1L90,810.4L90,810.4z M93.4,810.4v-11h-1.1v11H93.4z"/>
		<path display="inline" fill="#020405" d="M73.3,825.7v-11h-1.2l-1.7,5.8c-0.1,0.5-0.3,0.9-0.4,1.4c-0.1,0.4-0.2,0.8-0.2,1.2
			c0-0.4-0.1-0.8-0.2-1.2c-0.1-0.4-0.2-0.9-0.4-1.4l-1.7-5.8h-1.2v11h1v-6.6c0-0.3,0-0.7,0-1c0-0.4,0-0.7,0-0.9
			c0.1,0.3,0.1,0.7,0.2,1c0.1,0.3,0.2,0.7,0.3,1.2l1.9,6.7l1.9-6.7c0.1-0.4,0.2-0.8,0.3-1.2c0.1-0.3,0.2-0.7,0.2-1
			c0,0.3,0,0.6,0,0.9c0,0.4,0,0.7,0,1v6.6L73.3,825.7L73.3,825.7z M81.4,825.7l-2.6-11h-1.2l-2.6,11h1.1l0.7-2.9h2.9l0.6,2.9H81.4z
			 M79.4,821.8H77l0.6-2.7c0.1-0.5,0.2-1.1,0.3-1.6c0.1-0.5,0.2-1,0.3-1.4c0.1,0.4,0.2,0.9,0.3,1.4c0.1,0.5,0.2,1.1,0.3,1.6
			L79.4,821.8z M87.7,825.7v-1h-3.5v-10h-1.1v11H87.7L87.7,825.7z"/>
		<polygon display="inline" fill="#020405" points="94.1,825.7 94.1,824.6 90.5,824.6 90.5,814.6 89.4,814.6 89.4,825.7 		"/>
	</g>
	<g display="none">
		<polygon display="inline" points="-49.3,778.8 -38.2,778.8 -38.2,830.7 -49.3,830.7 		"/>
		<polygon display="inline" points="-58,805.3 -38.2,805.3 -38.2,831.8 -58,831.8 		"/>
		<path display="inline" fill="#020405" d="M-108.3,763.1l-2.6-11h-1.2l-2.6,11h1.1l0.7-2.9h2.9l0.6,2.9H-108.3z M-110.3,759.2h-2.4
			l0.6-2.7c0.1-0.5,0.2-1.1,0.3-1.6c0.1-0.5,0.2-1,0.3-1.4c0.1,0.4,0.2,0.9,0.3,1.4c0.1,0.5,0.2,1.1,0.3,1.6L-110.3,759.2z
			 M-101.7,760.6c0-0.8-0.2-1.4-0.5-2c-0.4-0.6-0.9-1.2-1.8-1.7c-0.7-0.5-1.2-0.9-1.4-1.3c-0.2-0.4-0.3-0.8-0.3-1.2
			c0-0.4,0.1-0.7,0.3-1c0.2-0.3,0.5-0.4,1-0.4c0.4,0,0.7,0.1,1,0.3c0.3,0.2,0.5,0.6,0.7,1l0.9-0.5c-0.3-0.6-0.6-1-1-1.3
			c-0.4-0.3-0.9-0.5-1.6-0.5c-0.8,0-1.3,0.3-1.8,0.7c-0.4,0.5-0.6,1.1-0.7,1.8c0,0.7,0.2,1.3,0.5,1.8c0.3,0.5,0.9,1,1.7,1.5
			c0.7,0.5,1.2,1,1.5,1.5c0.3,0.5,0.4,1,0.4,1.5c0,0.5-0.1,0.8-0.4,1.1c-0.3,0.3-0.6,0.4-1.1,0.4c-0.4,0-0.7-0.1-1-0.4
			c-0.3-0.3-0.5-0.7-0.7-1.2l-1,0.5c0.2,0.7,0.6,1.2,1,1.6c0.4,0.4,1,0.6,1.7,0.6c0.8,0,1.5-0.3,2-0.8
			C-102,762.1-101.7,761.4-101.7,760.6L-101.7,760.6z M-98.7,763.1v-11h-1.1v11H-98.7z M-90.5,763.1l-2.6-11h-1.2l-2.6,11h1.1
			l0.7-2.9h2.9l0.6,2.9H-90.5z M-92.5,759.2h-2.4l0.6-2.7c0.1-0.5,0.2-1.1,0.3-1.6c0.1-0.5,0.2-1,0.3-1.4c0.1,0.4,0.2,0.9,0.3,1.4
			c0.1,0.5,0.2,1.1,0.3,1.6L-92.5,759.2z"/>
		<path display="inline" fill="#020405" d="M-83,763.1v-11h-1v6.3c0,0.3,0,0.7,0,1.2c0,0.4,0,0.8,0,1c-0.1-0.3-0.3-0.7-0.5-1.2
			c-0.2-0.5-0.4-1-0.6-1.5l-2.5-5.8h-1.1v11h1v-6.6c0-0.3,0-0.7,0-1.2c0-0.4,0-0.7,0-1c0.1,0.4,0.3,0.8,0.5,1.3
			c0.2,0.5,0.4,1,0.6,1.4l2.6,6.1L-83,763.1L-83,763.1z"/>
		<path display="inline" fill="#020405" d="M-108.4,767.3h-1.1l-1.5,6.7c-0.1,0.5-0.2,1-0.3,1.5c-0.1,0.5-0.2,1-0.2,1.4
			c-0.1-0.4-0.1-0.9-0.2-1.4c-0.1-0.5-0.2-1-0.3-1.5l-1.5-6.7h-1.1l2.6,11h1.1L-108.4,767.3z M-105.5,778.4v-11h-1.1v11H-105.5z
			 M-98.6,778.4v-1h-3.5v-10h-1.1v11H-98.6z M-92.3,778.4v-1h-3.5v-10h-1.1v11H-92.3z"/>
		<path display="inline" fill="#020405" d="M-84.7,778.4l-2.6-11h-1.2l-2.6,11h1.1l0.7-2.9h2.9l0.6,2.9H-84.7z M-86.7,774.5h-2.4
			l0.6-2.7c0.1-0.5,0.2-1.1,0.3-1.6c0.1-0.5,0.2-1,0.3-1.4c0.1,0.4,0.2,0.9,0.3,1.4c0.1,0.5,0.2,1.1,0.3,1.6L-86.7,774.5z
			 M-77.5,774.5v-1.8h-2.6v1h1.5v0.8c0,1-0.1,1.7-0.4,2.2c-0.3,0.5-0.7,0.7-1.3,0.7c-0.6,0-1.1-0.4-1.5-1.2s-0.5-1.9-0.5-3.5
			c0-1.5,0.2-2.7,0.5-3.5c0.3-0.8,0.8-1.2,1.4-1.2c0.4,0,0.7,0.1,0.9,0.4c0.3,0.3,0.5,0.7,0.7,1.4l1-0.4c-0.2-0.7-0.5-1.3-0.9-1.7
			c-0.4-0.4-1-0.6-1.7-0.7c-1,0-1.8,0.5-2.3,1.5c-0.5,1-0.8,2.4-0.8,4.2c0,1.8,0.3,3.2,0.8,4.2s1.3,1.5,2.3,1.5c1,0,1.7-0.4,2.2-1.1
			C-77.8,776.7-77.5,775.7-77.5,774.5L-77.5,774.5z"/>
		<polygon display="inline" fill="#020405" points="-70.8,778.4 -70.8,777.3 -74.6,777.3 -74.6,773 -72.3,773 -72.3,772 -74.6,772 
			-74.6,768.4 -71,768.4 -71,767.3 -75.7,767.3 -75.7,778.4 		"/>
		<path display="inline" fill="#020405" d="M-107.2,793.6v-11h-1.2l-1.7,5.8c-0.1,0.5-0.3,0.9-0.4,1.4c-0.1,0.4-0.2,0.9-0.2,1.2
			c0-0.4-0.1-0.8-0.2-1.2c-0.1-0.4-0.2-0.9-0.4-1.4l-1.7-5.8h-1.2v11h1V787c0-0.3,0-0.7,0-1c0-0.4,0-0.7,0-0.9
			c0.1,0.3,0.1,0.7,0.2,1c0.1,0.3,0.2,0.7,0.3,1.2l1.9,6.7l1.9-6.7c0.1-0.4,0.2-0.8,0.3-1.2c0.1-0.3,0.2-0.7,0.2-1
			c0,0.3,0,0.6,0,0.9c0,0.4,0,0.7,0,1v6.6L-107.2,793.6L-107.2,793.6z M-99.1,793.6l-2.6-11h-1.2l-2.6,11h1.1l0.7-2.9h2.9l0.6,2.9
			H-99.1z M-101.1,789.7h-2.4l0.6-2.7c0.1-0.5,0.2-1.1,0.3-1.6c0.1-0.5,0.2-1,0.3-1.4c0.1,0.4,0.2,0.9,0.3,1.4
			c0.1,0.5,0.2,1.1,0.3,1.6L-101.1,789.7z M-92.8,793.6v-1h-3.5v-10h-1.1v11H-92.8z"/>
		<polygon display="inline" fill="#020405" points="-86.4,793.6 -86.4,792.6 -90,792.6 -90,782.6 -91.1,782.6 -91.1,793.6 		"/>
	</g>
	<g display="none">
		<polygon display="inline" points="59.5,845.6 138.8,845.6 138.8,863.6 59.5,863.6 		"/>
		<path display="inline" fill="#020405" d="M83.7,876.9c0-0.8-0.2-1.4-0.5-1.8c-0.3-0.4-0.7-0.7-1.2-0.9c0.4-0.2,0.7-0.4,1-0.8
			c0.2-0.4,0.4-0.9,0.4-1.5c0-0.9-0.2-1.6-0.7-2.1c-0.5-0.5-1.1-0.7-1.9-0.7h-2.5v11h2.5c0.9,0,1.6-0.3,2.1-0.8
			C83.4,878.9,83.6,878.1,83.7,876.9L83.7,876.9z M82.2,872c0,0.5-0.1,1-0.4,1.3c-0.3,0.3-0.7,0.5-1.2,0.5h-1.3v-3.6h1.3
			c0.5,0,0.9,0.2,1.2,0.5C82.1,870.9,82.2,871.4,82.2,872L82.2,872z M82.5,877c0,0.7-0.1,1.2-0.4,1.6c-0.3,0.4-0.7,0.6-1.3,0.6h-1.5
			v-4.3h1.3c0.6,0,1.1,0.2,1.4,0.6C82.4,875.8,82.5,876.3,82.5,877L82.5,877z M91.5,874.7c0-1.8-0.3-3.2-0.8-4.2
			c-0.5-1-1.3-1.5-2.4-1.5c-1,0-1.8,0.5-2.4,1.5c-0.5,1-0.8,2.4-0.8,4.2c0,1.8,0.3,3.2,0.8,4.2c0.5,1,1.3,1.5,2.4,1.5
			c1,0,1.8-0.5,2.4-1.5S91.5,876.5,91.5,874.7L91.5,874.7z M90.4,874.7c0,1.5-0.2,2.7-0.6,3.5c-0.4,0.8-0.9,1.2-1.5,1.2
			s-1.1-0.4-1.5-1.2c-0.4-0.8-0.6-1.9-0.6-3.5c0-1.5,0.2-2.7,0.6-3.5c0.3-0.8,0.9-1.2,1.5-1.2c0.6,0,1.1,0.4,1.5,1.2
			C90.2,872,90.3,873.1,90.4,874.7L90.4,874.7z M98,880.2v-1h-3.5v-10h-1.1v11L98,880.2L98,880.2z M104.6,877.7c0-0.8-0.2-1.4-0.5-2
			c-0.4-0.6-0.9-1.2-1.8-1.7c-0.7-0.5-1.2-0.9-1.4-1.3c-0.2-0.4-0.3-0.8-0.3-1.2c0-0.4,0.1-0.7,0.3-1c0.2-0.3,0.5-0.4,1-0.4
			c0.4,0,0.7,0.1,1,0.3c0.3,0.2,0.5,0.6,0.7,1l0.9-0.5c-0.3-0.6-0.6-1-1-1.3c-0.4-0.3-0.9-0.5-1.6-0.5c-0.8,0-1.3,0.3-1.8,0.7
			c-0.4,0.5-0.6,1.1-0.7,1.8c0,0.7,0.2,1.3,0.5,1.8c0.3,0.5,0.9,1,1.7,1.5c0.7,0.5,1.2,1,1.5,1.5c0.3,0.5,0.4,1,0.4,1.5
			c0,0.5-0.1,0.8-0.4,1.1c-0.3,0.3-0.6,0.4-1.1,0.4c-0.4,0-0.7-0.1-1-0.4c-0.3-0.3-0.5-0.7-0.7-1.2l-1,0.5c0.2,0.7,0.6,1.2,1,1.6
			c0.4,0.4,1,0.6,1.7,0.6c0.8,0,1.5-0.3,2-0.8C104.3,879.1,104.6,878.5,104.6,877.7L104.6,877.7z"/>
		<path display="inline" fill="#020405" d="M112.2,880.2l-2.6-11h-1.2l-2.6,11h1.1l0.7-2.9h2.9l0.6,2.9H112.2z M110.2,876.3h-2.4
			l0.6-2.7c0.1-0.5,0.2-1.1,0.3-1.6c0.1-0.5,0.2-1,0.3-1.4c0.1,0.4,0.2,0.9,0.3,1.4c0.1,0.5,0.2,1.1,0.3,1.6L110.2,876.3z"/>
		<path display="inline" fill="#020405" d="M80.8,895.4v-11h-1.2l-1.7,5.8c-0.1,0.5-0.3,0.9-0.4,1.4c-0.1,0.4-0.2,0.9-0.2,1.2
			c0-0.4-0.1-0.8-0.2-1.2c-0.1-0.4-0.2-0.9-0.4-1.4l-1.7-5.8h-1.2v11h1v-6.6c0-0.3,0-0.7,0-1c0-0.4,0-0.7,0-0.9
			c0.1,0.3,0.1,0.7,0.2,1c0.1,0.3,0.2,0.7,0.3,1.2l1.9,6.7l1.9-6.7c0.1-0.4,0.2-0.8,0.3-1.2c0.1-0.3,0.2-0.7,0.2-1
			c0,0.3,0,0.6,0,0.9c0,0.4,0,0.7,0,1v6.6L80.8,895.4L80.8,895.4z M88.9,895.4l-2.6-11h-1.2l-2.6,11h1.1l0.7-2.9h2.9l0.6,2.9H88.9z
			 M86.9,891.5h-2.4l0.6-2.7c0.1-0.5,0.2-1.1,0.3-1.6c0.1-0.5,0.2-1,0.3-1.4c0.1,0.4,0.2,0.9,0.3,1.4c0.1,0.5,0.2,1.1,0.3,1.6
			L86.9,891.5z M96.1,895.4l-1.7-5.3c0.5-0.2,0.9-0.6,1.2-1c0.3-0.5,0.5-1.1,0.5-1.8c0-1-0.3-1.7-0.8-2.2c-0.5-0.5-1.2-0.7-2-0.7
			h-2.6v11h1.1v-5c0.1,0,0.2,0,0.5,0c0.2,0,0.4,0,0.7,0c0.2,0,0.3,0,0.4,0l1.7,5H96.1L96.1,895.4z M94.9,887.4
			c0,0.7-0.2,1.2-0.5,1.5c-0.3,0.3-0.8,0.5-1.4,0.5h-1.4v-4h1.5c0.6,0,1,0.2,1.3,0.5C94.8,886.2,94.9,886.7,94.9,887.4L94.9,887.4z
			 M103.5,895.4l-2.7-6.9l2.4-4.1h-1.2l-1.9,3.2c-0.2,0.3-0.4,0.7-0.6,1.1c-0.2,0.4-0.4,0.8-0.6,1c0-0.2,0-0.5,0-0.9
			c0-0.4,0-0.7,0-0.9v-3.6h-1.1v11H99v-4.1l1.1-1.7l2.3,5.8L103.5,895.4L103.5,895.4z M110.1,895.4v-1h-3.8V890h2.3v-1h-2.3v-3.6
			h3.6v-1h-4.7v11H110.1z M116.7,885.4v-1h-5.6v1h2.2v10h1.1v-10H116.7z"/>
		<path display="inline" fill="#020405" d="M84.2,902.7c0-1.1-0.3-1.8-0.8-2.3c-0.5-0.5-1.2-0.7-2-0.7h-2.6v11h1.1v-4.8h1.3
			c0.9,0,1.6-0.3,2.1-0.8C83.9,904.6,84.2,903.8,84.2,902.7L84.2,902.7z M83.1,902.7c0,0.7-0.2,1.2-0.5,1.6
			c-0.3,0.3-0.8,0.5-1.4,0.5h-1.4v-4.2h1.4c0.6,0,1,0.2,1.3,0.5C82.9,901.5,83.1,902,83.1,902.7L83.1,902.7z M90.5,910.6v-1h-3.5
			v-10h-1.1v11L90.5,910.6L90.5,910.6z"/>
		<path display="inline" fill="#020405" d="M98.1,910.6l-2.6-11h-1.2l-2.6,11h1.1l0.7-2.9h2.9l0.6,2.9H98.1z M96.1,906.8h-2.4
			l0.6-2.7c0.1-0.5,0.2-1.1,0.3-1.6c0.1-0.5,0.2-1,0.3-1.4c0.1,0.4,0.2,0.9,0.3,1.4c0.1,0.5,0.2,1.1,0.3,1.6L96.1,906.8z M105,908.5
			l-0.9-0.5c-0.2,0.6-0.5,1.1-0.7,1.3c-0.3,0.3-0.6,0.4-1,0.4c-0.6,0-1.1-0.4-1.5-1.2c-0.3-0.8-0.5-1.9-0.5-3.5
			c0-1.5,0.2-2.7,0.5-3.5c0.3-0.8,0.8-1.2,1.4-1.2c0.4,0,0.7,0.1,0.9,0.4c0.3,0.3,0.5,0.7,0.7,1.4l1-0.4c-0.3-0.8-0.6-1.3-1-1.8
			c-0.4-0.4-1-0.6-1.6-0.6c-1,0-1.8,0.5-2.3,1.5c-0.5,1-0.8,2.4-0.8,4.2c0,1.8,0.3,3.2,0.8,4.2c0.5,1,1.3,1.5,2.3,1.5
			c0.7,0,1.3-0.2,1.7-0.6C104.4,909.8,104.8,909.2,105,908.5L105,908.5z"/>
		<polygon display="inline" fill="#020405" points="111.6,910.6 111.6,909.6 107.8,909.6 107.8,905.3 110.1,905.3 110.1,904.2 
			107.8,904.2 107.8,900.6 111.4,900.6 111.4,899.6 106.7,899.6 106.7,910.6 		"/>
	</g>
	<g display="none">
		<polygon display="inline" points="212.7,846.2 227.5,846.2 227.5,861 212.7,861 		"/>
		
			<line display="inline" fill="none" stroke="#000000" stroke-width="0.5" stroke-miterlimit="3.8637" x1="227.5" y1="853.6" x2="248" y2="853.6"/>
		<path display="inline" fill="#020405" d="M261.4,859.1v-1h-3.5v-10h-1.1v11L261.4,859.1L261.4,859.1z M264.2,859.1v-11h-1.1v11
			H264.2z M272,855.8c0-0.8-0.2-1.4-0.5-1.8c-0.3-0.4-0.7-0.7-1.2-0.9c0.4-0.2,0.7-0.4,1-0.8c0.2-0.4,0.4-0.9,0.4-1.5
			c0-0.9-0.2-1.6-0.7-2.1c-0.5-0.5-1.1-0.7-1.9-0.7h-2.5v11h2.5c0.9,0,1.6-0.3,2.1-0.8C271.7,857.8,271.9,857,272,855.8L272,855.8z
			 M270.5,850.9c0,0.5-0.1,1-0.4,1.3c-0.3,0.3-0.7,0.5-1.2,0.5h-1.3v-3.6h1.3c0.5,0,0.9,0.2,1.2,0.5
			C270.4,849.8,270.5,850.3,270.5,850.9L270.5,850.9z M270.9,855.9c0,0.7-0.1,1.2-0.4,1.6c-0.3,0.4-0.7,0.6-1.3,0.6h-1.5v-4.3h1.3
			c0.6,0,1.1,0.2,1.4,0.6C270.7,854.7,270.9,855.2,270.9,855.9L270.9,855.9z M278.7,859.1v-1h-3.8v-4.4h2.3v-1h-2.3v-3.6h3.6v-1
			h-4.7v11L278.7,859.1L278.7,859.1z M285.9,859.1l-1.7-5.3c0.5-0.2,0.9-0.6,1.2-1c0.3-0.5,0.5-1.1,0.5-1.8c0-1-0.3-1.7-0.8-2.2
			c-0.5-0.5-1.2-0.7-2-0.7h-2.7v11h1.1v-5c0.1,0,0.2,0,0.5,0c0.2,0,0.4,0,0.7,0c0.2,0,0.3,0,0.4,0l1.7,5L285.9,859.1L285.9,859.1z
			 M284.8,851.1c0,0.7-0.2,1.2-0.5,1.5c-0.3,0.3-0.8,0.5-1.4,0.5h-1.4v-4h1.5c0.6,0,1,0.2,1.3,0.5
			C284.6,849.9,284.8,850.4,284.8,851.1L284.8,851.1z"/>
		<polygon display="inline" fill="#020405" points="292.5,849 292.5,848 287,848 287,849 289.2,849 289.2,859.1 290.3,859.1 
			290.3,849 		"/>
		<path display="inline" fill="#020405" d="M299.8,848h-1.1l-1.1,2.9c-0.2,0.4-0.3,0.9-0.5,1.3c-0.2,0.4-0.3,0.8-0.4,1.2
			c-0.1-0.3-0.2-0.7-0.4-1.2c-0.2-0.5-0.3-0.9-0.5-1.4l-1.1-2.9h-1.2l2.6,6.4v4.6h1.1v-4.6L299.8,848z"/>
		<path display="inline" fill="#020405" d="M262,871.8c0-0.8-0.2-1.4-0.5-2c-0.4-0.6-0.9-1.2-1.8-1.7c-0.7-0.5-1.2-0.9-1.4-1.3
			c-0.2-0.4-0.3-0.8-0.3-1.2c0-0.4,0.1-0.7,0.3-1c0.2-0.3,0.5-0.4,1-0.4c0.4,0,0.7,0.1,1,0.3c0.3,0.2,0.5,0.6,0.7,1l0.9-0.5
			c-0.3-0.6-0.6-1-1-1.3c-0.4-0.3-0.9-0.5-1.6-0.5c-0.8,0-1.3,0.3-1.8,0.7c-0.4,0.5-0.6,1.1-0.7,1.8c0,0.7,0.2,1.3,0.5,1.8
			c0.3,0.5,0.9,1,1.7,1.5c0.7,0.5,1.2,1,1.5,1.5c0.3,0.5,0.4,1,0.4,1.5c0,0.5-0.1,0.8-0.4,1.1c-0.3,0.3-0.6,0.4-1.1,0.4
			c-0.4,0-0.7-0.1-1-0.4c-0.3-0.3-0.5-0.7-0.7-1.2l-1,0.5c0.2,0.7,0.6,1.2,1,1.6c0.4,0.4,1,0.6,1.7,0.6c0.8,0,1.5-0.3,2-0.8
			C261.7,873.2,262,872.6,262,871.8L262,871.8z M269.9,868.8c0-1.8-0.3-3.2-0.8-4.2c-0.5-1-1.3-1.5-2.4-1.5c-1,0-1.8,0.5-2.3,1.5
			c-0.5,1-0.8,2.4-0.8,4.2c0,1.8,0.3,3.2,0.8,4.2c0.5,1,1.3,1.5,2.3,1.5c0.3,0,0.5,0,0.7-0.1c0.2-0.1,0.4-0.2,0.6-0.3l0.5,0.8
			l0.8-0.6l-0.6-0.9c0.4-0.5,0.6-1.1,0.8-1.9C269.8,870.7,269.9,869.8,269.9,868.8L269.9,868.8z M268.8,868.8c0,0.9-0.1,1.6-0.2,2.2
			c-0.1,0.6-0.3,1.1-0.5,1.4l-0.7-0.9l-0.8,0.6l0.8,1.1c-0.1,0.1-0.2,0.1-0.3,0.2c-0.1,0-0.3,0-0.4,0c-0.6,0-1.1-0.4-1.5-1.2
			c-0.4-0.8-0.6-1.9-0.6-3.5c0-1.5,0.2-2.7,0.5-3.5c0.3-0.8,0.9-1.2,1.5-1.2c0.6,0,1.1,0.4,1.5,1.2
			C268.6,866.1,268.7,867.2,268.8,868.8L268.8,868.8z M277.4,871v-7.7h-1.1v7.7c0,0.8-0.1,1.4-0.4,1.8c-0.3,0.4-0.7,0.6-1.3,0.6
			c-0.6,0-1-0.2-1.4-0.6c-0.3-0.4-0.5-1-0.5-1.8v-7.7h-1.1v7.7c0,1.1,0.3,2,0.7,2.6c0.5,0.6,1.2,0.9,2.1,0.9c0.9,0,1.6-0.3,2.1-0.9
			C277.2,873,277.4,872.1,277.4,871L277.4,871z"/>
		<path display="inline" fill="#020405" d="M285.3,874.3l-2.6-11h-1.2l-2.6,11h1.1l0.7-2.9h2.9l0.6,2.9H285.3z M283.3,870.4h-2.4
			l0.6-2.7c0.1-0.5,0.2-1.1,0.3-1.6c0.1-0.5,0.2-1,0.2-1.4c0.1,0.4,0.2,0.9,0.3,1.4c0.1,0.5,0.2,1.1,0.3,1.6L283.3,870.4z
			 M292.5,874.3l-1.7-5.3c0.5-0.2,0.9-0.6,1.2-1c0.3-0.5,0.5-1.1,0.5-1.8c0-1-0.3-1.7-0.8-2.2c-0.5-0.5-1.2-0.7-2-0.7H287v11h1.1v-5
			c0.1,0,0.2,0,0.5,0c0.2,0,0.4,0,0.7,0c0.2,0,0.3,0,0.4,0l1.7,5H292.5z M291.4,866.3c0,0.7-0.2,1.2-0.5,1.5
			c-0.3,0.3-0.8,0.5-1.4,0.5h-1.4v-4h1.5c0.6,0,1,0.2,1.3,0.5C291.2,865.2,291.4,865.6,291.4,866.3L291.4,866.3z M299.3,874.3v-1
			h-3.8v-4.4h2.3v-1h-2.3v-3.6h3.6v-1h-4.7v11L299.3,874.3L299.3,874.3z"/>
	</g>
	<g display="none">
		<polygon display="inline" points="283.4,811.1 297,811.1 297,830.8 283.4,830.8 		"/>
		<path display="inline" fill="#020405" d="M279.3,764.6v-1h-3.5v-10h-1.1v11H279.3z M282.2,764.6v-11h-1.1v11H282.2z M289.4,754.5
			v-1h-5.6v1h2.2v10h1.1v-10H289.4z M296,754.5v-1h-5.6v1h2.2v10h1.1v-10H296z M302.2,764.6v-1h-3.5v-10h-1.1v11H302.2z
			 M308.8,764.6v-1H305v-4.4h2.3v-1H305v-3.6h3.6v-1h-4.7v11L308.8,764.6L308.8,764.6z"/>
		<path display="inline" fill="#020405" d="M277,777.3c0-0.8-0.2-1.4-0.5-2c-0.4-0.6-0.9-1.2-1.8-1.7c-0.7-0.5-1.2-0.9-1.4-1.3
			c-0.2-0.4-0.3-0.8-0.3-1.2c0-0.4,0.1-0.7,0.3-1c0.2-0.3,0.5-0.4,1-0.4c0.4,0,0.7,0.1,1,0.3c0.3,0.2,0.5,0.6,0.7,1l0.9-0.5
			c-0.3-0.6-0.6-1-1-1.3c-0.4-0.3-0.9-0.5-1.6-0.5c-0.8,0-1.3,0.3-1.8,0.7c-0.4,0.5-0.6,1.1-0.7,1.8c0,0.7,0.2,1.3,0.5,1.8
			c0.3,0.5,0.9,1,1.7,1.5c0.7,0.5,1.2,1,1.5,1.5c0.3,0.5,0.4,1,0.4,1.5c0,0.5-0.1,0.8-0.4,1.1c-0.3,0.3-0.6,0.4-1.1,0.4
			c-0.4,0-0.7-0.1-1-0.4c-0.3-0.3-0.5-0.7-0.7-1.2l-1,0.5c0.2,0.7,0.6,1.2,1,1.6c0.4,0.4,1,0.6,1.7,0.6c0.8,0,1.5-0.3,2-0.8
			C276.7,778.8,277,778.1,277,777.3L277,777.3z M284.7,779.8l-2.6-11h-1.2l-2.6,11h1.1l0.7-2.9h2.9l0.6,2.9H284.7z M282.7,775.9
			h-2.4l0.6-2.7c0.1-0.5,0.2-1.1,0.3-1.6c0.1-0.5,0.2-1,0.3-1.4c0.1,0.4,0.2,0.9,0.2,1.4c0.1,0.5,0.2,1.1,0.3,1.6L282.7,775.9z
			 M287.6,779.8v-11h-1.1v11H287.6z M295.5,776v-1.8h-2.6v1h1.5v0.8c0,1-0.1,1.7-0.4,2.2c-0.3,0.5-0.7,0.7-1.3,0.7
			c-0.6,0-1.1-0.4-1.5-1.2c-0.3-0.8-0.5-1.9-0.5-3.5c0-1.5,0.2-2.7,0.5-3.5c0.3-0.8,0.8-1.2,1.4-1.2c0.4,0,0.7,0.1,0.9,0.4
			c0.2,0.3,0.5,0.7,0.7,1.4l1-0.4c-0.2-0.7-0.5-1.3-0.9-1.7c-0.4-0.4-1-0.6-1.7-0.7c-1,0-1.8,0.5-2.3,1.5c-0.5,1-0.8,2.4-0.8,4.2
			c0,1.8,0.2,3.2,0.8,4.2c0.5,1,1.3,1.5,2.3,1.5c1,0,1.7-0.4,2.2-1.1C295.2,778.1,295.5,777.2,295.5,776L295.5,776z M303.3,774.3
			c0-1.8-0.3-3.2-0.8-4.2c-0.5-1-1.3-1.5-2.4-1.5c-1,0-1.8,0.5-2.4,1.5c-0.5,1-0.8,2.4-0.8,4.2c0,1.8,0.3,3.2,0.8,4.2
			c0.5,1,1.3,1.5,2.3,1.5c1,0,1.8-0.5,2.4-1.5C303,777.5,303.3,776.1,303.3,774.3L303.3,774.3z M302.2,774.3c0,1.5-0.2,2.7-0.6,3.5
			c-0.4,0.8-0.8,1.2-1.5,1.2c-0.6,0-1.1-0.4-1.5-1.2c-0.4-0.8-0.6-1.9-0.6-3.5c0-1.5,0.2-2.7,0.6-3.5c0.3-0.8,0.9-1.2,1.5-1.2
			c0.6,0,1.1,0.4,1.5,1.2C302,771.6,302.1,772.8,302.2,774.3L302.2,774.3z M310.9,779.8v-11h-1v6.3c0,0.3,0,0.7,0,1.2
			c0,0.4,0,0.8,0,1c-0.1-0.3-0.3-0.7-0.5-1.2c-0.2-0.5-0.4-1-0.6-1.5l-2.5-5.8h-1.1v11h1v-6.6c0-0.3,0-0.7,0-1.2c0-0.4,0-0.7,0-1
			c0.1,0.4,0.3,0.8,0.5,1.3c0.2,0.5,0.4,1,0.6,1.4l2.7,6.1L310.9,779.8L310.9,779.8z"/>
		<path display="inline" fill="#020405" d="M275.8,784h-1.1l-1.5,6.7c-0.1,0.5-0.2,1-0.3,1.5c-0.1,0.5-0.2,1-0.2,1.4
			c-0.1-0.4-0.1-0.9-0.2-1.4c-0.1-0.5-0.2-1-0.3-1.5l-1.5-6.7h-1.1l2.6,11h1.1L275.8,784z M278.7,795.1v-11h-1.1v11H278.7z
			 M285.6,795.1v-1h-3.5v-10H281v11L285.6,795.1L285.6,795.1z M291.9,795.1v-1h-3.5v-10h-1.1v11L291.9,795.1L291.9,795.1z"/>
		<path display="inline" fill="#020405" d="M299.5,795.1l-2.6-11h-1.2l-2.6,11h1.1l0.7-2.9h2.9l0.6,2.9H299.5z M297.5,791.2h-2.4
			l0.6-2.7c0.1-0.5,0.2-1.1,0.3-1.6c0.1-0.5,0.2-1,0.3-1.4c0.1,0.4,0.2,0.9,0.3,1.4c0.1,0.5,0.2,1.1,0.3,1.6L297.5,791.2z
			 M306.7,791.2v-1.8h-2.6v1h1.5v0.8c0,1-0.1,1.7-0.4,2.2c-0.3,0.5-0.7,0.7-1.3,0.7c-0.6,0-1.1-0.4-1.5-1.2
			c-0.3-0.8-0.5-1.9-0.5-3.5c0-1.5,0.2-2.7,0.5-3.5c0.3-0.8,0.8-1.2,1.4-1.2c0.4,0,0.7,0.1,0.9,0.4c0.2,0.3,0.5,0.7,0.7,1.4l1-0.4
			c-0.2-0.7-0.5-1.3-0.9-1.7c-0.4-0.4-1-0.6-1.7-0.7c-1,0-1.8,0.5-2.3,1.5c-0.5,1-0.8,2.4-0.8,4.2c0,1.8,0.3,3.2,0.8,4.2
			c0.5,1,1.3,1.5,2.3,1.5c1,0,1.7-0.4,2.2-1.1C306.4,793.4,306.7,792.4,306.7,791.2L306.7,791.2z"/>
		<polygon display="inline" fill="#020405" points="313.4,795.1 313.4,794 309.6,794 309.6,789.7 311.9,789.7 311.9,788.6 
			309.6,788.6 309.6,785 313.2,785 313.2,784 308.5,784 308.5,795.1 		"/>
	</g>
	<g display="none">
		<polygon display="inline" points="384.5,820.9 413.4,820.9 413.4,830.8 384.5,830.8 		"/>
		<path display="inline" fill="#020405" d="M389.8,773.3c0-0.8-0.2-1.4-0.5-1.8c-0.3-0.4-0.7-0.7-1.2-0.9c0.4-0.2,0.7-0.4,1-0.8
			c0.2-0.4,0.4-0.9,0.4-1.5c0-0.9-0.2-1.6-0.7-2c-0.5-0.5-1.1-0.7-1.9-0.7h-2.5v11h2.5c0.9,0,1.6-0.3,2.1-0.8
			C389.5,775.2,389.8,774.4,389.8,773.3L389.8,773.3z M388.4,768.3c0,0.5-0.1,1-0.4,1.3c-0.2,0.4-0.7,0.5-1.2,0.5h-1.3v-3.6h1.3
			c0.5,0,0.9,0.2,1.2,0.5C388.3,767.2,388.4,767.7,388.4,768.3L388.4,768.3z M388.7,773.3c0,0.7-0.1,1.2-0.4,1.6
			c-0.3,0.4-0.7,0.6-1.3,0.6h-1.5v-4.3h1.3c0.6,0,1.1,0.2,1.4,0.6C388.5,772.1,388.7,772.6,388.7,773.3L388.7,773.3z M397.6,771
			c0-1.8-0.3-3.2-0.8-4.2c-0.5-1-1.3-1.5-2.4-1.5c-1,0-1.8,0.5-2.4,1.5c-0.5,1-0.8,2.4-0.8,4.2c0,1.8,0.3,3.2,0.8,4.2
			c0.5,1,1.3,1.5,2.3,1.5c1,0,1.8-0.5,2.4-1.5C397.4,774.2,397.6,772.8,397.6,771L397.6,771z M396.5,771c0,1.5-0.2,2.7-0.6,3.5
			c-0.4,0.8-0.8,1.2-1.5,1.2c-0.6,0-1.1-0.4-1.5-1.2c-0.4-0.8-0.6-1.9-0.6-3.5c0-1.5,0.2-2.7,0.6-3.5c0.3-0.8,0.9-1.2,1.5-1.2
			c0.6,0,1.1,0.4,1.5,1.2C396.3,768.3,396.5,769.4,396.5,771L396.5,771z M404.1,776.5v-1h-3.5v-10h-1.1v11H404.1z M410.7,774
			c0-0.8-0.2-1.4-0.5-2c-0.4-0.6-0.9-1.2-1.8-1.7c-0.7-0.5-1.2-0.9-1.4-1.3c-0.2-0.4-0.3-0.8-0.3-1.2c0-0.4,0.1-0.7,0.3-1
			c0.2-0.3,0.5-0.4,1-0.4c0.4,0,0.7,0.1,1,0.3c0.2,0.2,0.5,0.6,0.7,1l0.9-0.5c-0.3-0.6-0.6-1-1-1.3c-0.4-0.3-0.9-0.5-1.6-0.5
			c-0.8,0-1.3,0.3-1.8,0.7c-0.4,0.5-0.6,1.1-0.7,1.8c0,0.7,0.2,1.3,0.5,1.8c0.3,0.5,0.9,1,1.7,1.5c0.7,0.5,1.2,1,1.5,1.5
			c0.3,0.5,0.4,1,0.4,1.5c0,0.5-0.1,0.8-0.4,1.1c-0.3,0.3-0.6,0.4-1.1,0.4c-0.4,0-0.7-0.1-1-0.4c-0.3-0.3-0.5-0.7-0.7-1.2l-1,0.5
			c0.2,0.7,0.6,1.2,1,1.6c0.4,0.4,1,0.6,1.7,0.6c0.8,0,1.5-0.3,2-0.8C410.5,775.4,410.7,774.8,410.7,774L410.7,774z"/>
		<path display="inline" fill="#020405" d="M418.4,776.5l-2.6-11h-1.2l-2.6,11h1.1l0.7-2.9h2.9l0.6,2.9H418.4z M416.4,772.6h-2.4
			l0.6-2.7c0.1-0.5,0.2-1.1,0.3-1.6c0.1-0.5,0.2-1,0.2-1.4c0.1,0.4,0.2,0.9,0.3,1.4c0.1,0.5,0.2,1.1,0.3,1.6L416.4,772.6z"/>
		<path display="inline" fill="#020405" d="M395.5,780.7h-1.1l-0.9,6.5c-0.1,0.4-0.1,0.8-0.2,1.3c0,0.5-0.1,0.9-0.1,1.2
			c0-0.3-0.1-0.7-0.2-1.2c-0.1-0.5-0.2-0.9-0.2-1.3l-1.1-6.5h-0.9l-1.1,6.5c-0.1,0.4-0.1,0.8-0.2,1.3c-0.1,0.5-0.1,0.9-0.2,1.2
			c0-0.3-0.1-0.7-0.1-1.2c-0.1-0.5-0.1-0.9-0.2-1.3l-0.9-6.5H387l1.7,11h1l1-5.4c0.1-0.3,0.1-0.7,0.2-1.1c0.1-0.4,0.1-0.9,0.2-1.3
			c0.1-0.4,0.1-0.8,0.1-1.2c0,0.3,0.1,0.7,0.1,1.2c0.1,0.4,0.1,0.9,0.2,1.3c0.1,0.4,0.1,0.8,0.2,1.1l1,5.4h1L395.5,780.7z
			 M402,791.7v-1h-3.8v-4.4h2.3v-1h-2.3v-3.6h3.6v-1h-4.7v11L402,791.7L402,791.7z"/>
		<path display="inline" fill="#020405" d="M408.6,789.2c0-0.8-0.2-1.4-0.5-2c-0.4-0.6-0.9-1.2-1.8-1.7c-0.7-0.5-1.2-0.9-1.4-1.3
			c-0.2-0.4-0.3-0.8-0.3-1.2c0-0.4,0.1-0.7,0.3-1c0.2-0.3,0.5-0.4,1-0.4c0.4,0,0.7,0.1,1,0.3c0.2,0.2,0.5,0.6,0.7,1l0.9-0.5
			c-0.2-0.6-0.6-1-1-1.3c-0.4-0.3-0.9-0.5-1.6-0.5c-0.8,0-1.3,0.3-1.8,0.7c-0.4,0.5-0.6,1.1-0.7,1.8c0,0.7,0.2,1.3,0.5,1.8
			c0.3,0.5,0.9,1,1.7,1.5c0.7,0.5,1.2,1,1.5,1.5c0.3,0.5,0.4,1,0.4,1.5c0,0.5-0.1,0.8-0.4,1.1c-0.3,0.3-0.6,0.4-1.1,0.4
			c-0.4,0-0.7-0.1-1-0.4c-0.3-0.3-0.5-0.7-0.7-1.2l-1,0.5c0.2,0.7,0.6,1.2,1,1.6c0.4,0.4,1,0.6,1.7,0.6c0.8,0,1.5-0.3,2-0.8
			C408.3,790.7,408.6,790,408.6,789.2L408.6,789.2z M415.3,781.7v-1h-5.6v1h2.2v10h1.1v-10H415.3z"/>
		<path display="inline" fill="#020405" d="M386.5,804.8l-0.9-0.5c-0.2,0.6-0.5,1.1-0.7,1.3c-0.3,0.3-0.6,0.4-1,0.4
			c-0.6,0-1.1-0.4-1.4-1.2c-0.3-0.8-0.5-1.9-0.5-3.5c0-1.5,0.2-2.7,0.5-3.5c0.3-0.8,0.8-1.2,1.4-1.2c0.4,0,0.7,0.1,0.9,0.4
			c0.3,0.3,0.5,0.7,0.7,1.4l1-0.4c-0.2-0.8-0.6-1.3-1-1.8c-0.4-0.4-1-0.6-1.6-0.6c-1,0-1.8,0.5-2.3,1.5c-0.5,1-0.8,2.4-0.8,4.2
			c0,1.8,0.2,3.2,0.8,4.2c0.5,1,1.3,1.5,2.3,1.5c0.7,0,1.3-0.2,1.7-0.6C385.9,806.1,386.3,805.5,386.5,804.8L386.5,804.8z
			 M393.1,807v-1h-3.8v-4.4h2.3v-1h-2.3v-3.6h3.6v-1h-4.7v11L393.1,807L393.1,807z M400.6,807v-11h-1v6.3c0,0.3,0,0.7,0,1.2
			c0,0.4,0,0.8,0,1c-0.1-0.3-0.3-0.7-0.5-1.2c-0.2-0.5-0.4-1-0.6-1.5l-2.5-5.8h-1.1v11h1v-6.6c0-0.3,0-0.7,0-1.2c0-0.4,0-0.7,0-1
			c0.1,0.4,0.3,0.8,0.5,1.3c0.2,0.5,0.4,1,0.6,1.4l2.7,6.1L400.6,807L400.6,807z M407.8,796.9v-1h-5.6v1h2.2v10h1.1v-10H407.8z
			 M414.3,807v-1h-3.8v-4.4h2.3v-1h-2.3v-3.6h3.6v-1h-4.7v11L414.3,807L414.3,807z M421.6,807l-1.7-5.3c0.5-0.2,0.9-0.6,1.2-1
			c0.3-0.5,0.5-1.1,0.5-1.8c0-1-0.3-1.7-0.8-2.2c-0.5-0.5-1.2-0.7-2-0.7H416v11h1.1v-5c0.1,0,0.2,0,0.5,0s0.4,0,0.7,0
			c0.2,0,0.3,0,0.4,0l1.7,5L421.6,807L421.6,807z M420.4,798.9c0,0.7-0.2,1.2-0.5,1.5c-0.3,0.3-0.8,0.5-1.4,0.5h-1.4v-4h1.5
			c0.6,0,1,0.2,1.3,0.5C420.3,797.8,420.4,798.3,420.4,798.9L420.4,798.9z"/>
	</g>
	<g display="none">
		<polygon display="inline" points="-58,847 -41.9,847 -41.9,875.9 -58,875.9 		"/>
		<path display="inline" fill="#020405" d="M-30.6,857.7l-2.6-11h-1.2l-2.6,11h1.1l0.7-2.9h2.9l0.6,2.9H-30.6z M-32.6,853.8H-35
			l0.6-2.7c0.1-0.5,0.2-1.1,0.3-1.6c0.1-0.5,0.2-1,0.3-1.4c0.1,0.4,0.2,0.9,0.3,1.4c0.1,0.5,0.2,1.1,0.3,1.6L-32.6,853.8z
			 M-24,855.2c0-0.8-0.2-1.4-0.5-2c-0.4-0.6-0.9-1.2-1.8-1.7c-0.7-0.5-1.2-0.9-1.4-1.3c-0.2-0.4-0.3-0.8-0.3-1.2
			c0-0.4,0.1-0.7,0.3-1c0.2-0.3,0.5-0.4,1-0.4c0.4,0,0.7,0.1,1,0.3c0.3,0.2,0.5,0.6,0.7,1l0.9-0.5c-0.3-0.6-0.6-1-1-1.3
			c-0.4-0.3-0.9-0.5-1.6-0.5c-0.8,0-1.3,0.3-1.8,0.7c-0.4,0.5-0.6,1.1-0.7,1.8c0,0.7,0.2,1.3,0.5,1.8c0.3,0.5,0.9,1,1.7,1.5
			c0.7,0.5,1.2,1,1.5,1.5c0.3,0.5,0.4,1,0.4,1.5c0,0.5-0.1,0.8-0.4,1.1c-0.3,0.3-0.6,0.4-1.1,0.4c-0.4,0-0.7-0.1-1-0.4
			c-0.3-0.3-0.5-0.7-0.7-1.2l-1,0.5c0.2,0.7,0.6,1.2,1,1.6c0.4,0.4,1,0.6,1.7,0.6c0.8,0,1.5-0.3,2-0.8
			C-24.3,856.6-24.1,856-24,855.2L-24,855.2z M-21,857.7v-11h-1.1v11H-21z M-12.9,857.7l-2.6-11h-1.2l-2.6,11h1.1l0.7-2.9h2.9
			l0.6,2.9H-12.9z M-14.9,853.8h-2.4l0.6-2.7c0.1-0.5,0.2-1.1,0.3-1.6c0.1-0.5,0.2-1,0.3-1.4c0.1,0.4,0.2,0.9,0.3,1.4
			c0.1,0.5,0.2,1.1,0.3,1.6L-14.9,853.8z"/>
		<path display="inline" fill="#020405" d="M-5.4,857.7v-11h-1v6.3c0,0.3,0,0.7,0,1.2c0,0.4,0,0.8,0,1c-0.1-0.3-0.3-0.7-0.5-1.2
			c-0.2-0.5-0.4-1-0.6-1.5l-2.5-5.8h-1.1v11h1v-6.6c0-0.3,0-0.7,0-1.2c0-0.4,0-0.7,0-1c0.1,0.4,0.3,0.8,0.5,1.3
			c0.2,0.5,0.4,1,0.6,1.4l2.6,6.1L-5.4,857.7L-5.4,857.7z"/>
		<path display="inline" fill="#020405" d="M-30.9,869.1v-1.8h-2.6v1h1.5v0.8c0,1-0.1,1.7-0.4,2.2c-0.3,0.5-0.7,0.7-1.3,0.7
			c-0.6,0-1.1-0.4-1.5-1.2c-0.3-0.8-0.5-1.9-0.5-3.5c0-1.5,0.2-2.7,0.5-3.5c0.3-0.8,0.8-1.2,1.4-1.2c0.4,0,0.7,0.1,0.9,0.4
			c0.3,0.3,0.5,0.7,0.7,1.4l1-0.4c-0.2-0.7-0.5-1.3-0.9-1.7c-0.4-0.4-1-0.6-1.7-0.7c-1,0-1.8,0.5-2.3,1.5c-0.5,1-0.8,2.4-0.8,4.2
			c0,1.8,0.3,3.2,0.8,4.2s1.3,1.5,2.3,1.5c1,0,1.7-0.4,2.2-1.1C-31.1,871.2-30.9,870.3-30.9,869.1L-30.9,869.1z"/>
		<path display="inline" fill="#020405" d="M-23.3,872.9l-2.6-11h-1.2l-2.6,11h1.1l0.7-2.9h2.9l0.6,2.9H-23.3z M-25.3,869h-2.4
			l0.6-2.7c0.1-0.5,0.2-1.1,0.3-1.6c0.1-0.5,0.2-1,0.3-1.4c0.1,0.4,0.2,0.9,0.3,1.4c0.1,0.5,0.2,1.1,0.3,1.6L-25.3,869z
			 M-16.1,872.9l-1.7-5.3c0.5-0.2,0.9-0.6,1.2-1c0.3-0.5,0.5-1.1,0.5-1.8c0-1-0.3-1.7-0.8-2.2c-0.5-0.5-1.2-0.7-2-0.7h-2.7v11h1.1
			v-5c0.1,0,0.2,0,0.5,0c0.2,0,0.4,0,0.7,0c0.2,0,0.3,0,0.4,0l1.7,5H-16.1z M-17.2,864.9c0,0.7-0.2,1.2-0.5,1.5
			c-0.3,0.3-0.8,0.5-1.4,0.5h-1.4v-4h1.5c0.6,0,1,0.2,1.3,0.5C-17.4,863.8-17.2,864.2-17.2,864.9L-17.2,864.9z M-8.6,867.3
			c0-1.8-0.3-3.1-0.9-4.1c-0.6-0.9-1.5-1.4-2.6-1.4h-2.1v11h2c1.2,0,2.1-0.4,2.7-1.4C-8.9,870.7-8.6,869.2-8.6,867.3L-8.6,867.3z
			 M-9.7,867.4c0,1.6-0.2,2.8-0.7,3.5c-0.4,0.7-1,1-1.8,1h-1v-9h1c0.8,0,1.4,0.4,1.8,1.1C-9.9,864.7-9.7,865.9-9.7,867.4L-9.7,867.4
			z M-1.8,872.9v-1h-3.8v-4.4h2.3v-1h-2.3v-3.6H-2v-1h-4.7v11L-1.8,872.9L-1.8,872.9z M5.7,872.9v-11h-1v6.3c0,0.3,0,0.7,0,1.2
			c0,0.4,0,0.8,0,1c-0.1-0.3-0.3-0.7-0.5-1.2c-0.2-0.5-0.4-1-0.6-1.5L1,861.9h-1.1v11h1v-6.6c0-0.3,0-0.7,0-1.2c0-0.4,0-0.7,0-1
			c0.1,0.4,0.3,0.8,0.5,1.3s0.4,1,0.6,1.4l2.6,6.1L5.7,872.9L5.7,872.9z"/>
		<path display="inline" fill="#020405" d="M-29.6,888.2v-11h-1.2l-1.7,5.8c-0.1,0.5-0.3,0.9-0.4,1.4c-0.1,0.4-0.2,0.9-0.2,1.2
			c0-0.4-0.1-0.8-0.2-1.2c-0.1-0.4-0.2-0.9-0.4-1.4l-1.7-5.8h-1.2v11h1v-6.6c0-0.3,0-0.7,0-1c0-0.4,0-0.7,0-0.9
			c0.1,0.3,0.1,0.7,0.2,1c0.1,0.3,0.2,0.7,0.3,1.2l1.9,6.7l1.9-6.7c0.1-0.4,0.2-0.8,0.3-1.2c0.1-0.3,0.2-0.7,0.2-1
			c0,0.3,0,0.6,0,0.9c0,0.4,0,0.7,0,1v6.6L-29.6,888.2L-29.6,888.2z M-21.4,888.2l-2.6-11h-1.2l-2.6,11h1.1l0.7-2.9h2.9l0.6,2.9
			H-21.4z M-23.4,884.3h-2.4l0.6-2.7c0.1-0.5,0.2-1.1,0.3-1.6c0.1-0.5,0.2-1,0.3-1.4c0.1,0.4,0.2,0.9,0.3,1.4
			c0.1,0.5,0.2,1.1,0.3,1.6L-23.4,884.3z M-15.1,888.2v-1h-3.5v-10h-1.1v11H-15.1L-15.1,888.2z M-8.8,888.2v-1h-3.5v-10h-1.1v11
			H-8.8L-8.8,888.2z"/>
	</g>
	<g display="none">
		<polygon display="inline" points="-123.9,819.1 -97.4,819.1 -97.4,832 -123.9,832 		"/>
		<path display="inline" fill="#020405" d="M-180,796c0-0.8-0.2-1.4-0.5-1.8c-0.3-0.4-0.7-0.7-1.2-0.9c0.4-0.2,0.7-0.4,1-0.8
			c0.2-0.4,0.4-0.9,0.4-1.5c0-0.9-0.2-1.6-0.7-2.1c-0.5-0.5-1.1-0.7-1.9-0.7h-2.5v11h2.5c0.9,0,1.6-0.3,2.1-0.8
			C-180.3,797.9-180,797.1-180,796L-180,796z M-181.4,791c0,0.5-0.1,1-0.4,1.3c-0.3,0.3-0.7,0.5-1.2,0.5h-1.3v-3.6h1.3
			c0.5,0,0.9,0.2,1.2,0.5C-181.5,790-181.4,790.4-181.4,791L-181.4,791z M-181.1,796.1c0,0.7-0.1,1.2-0.4,1.6
			c-0.3,0.4-0.7,0.6-1.3,0.6h-1.5v-4.3h1.3c0.6,0,1.1,0.2,1.4,0.6C-181.3,794.8-181.1,795.4-181.1,796.1L-181.1,796.1z
			 M-172.2,793.7c0-1.8-0.3-3.2-0.8-4.2c-0.5-1-1.3-1.5-2.4-1.5c-1,0-1.8,0.5-2.4,1.5c-0.5,1-0.8,2.4-0.8,4.2s0.3,3.2,0.8,4.2
			c0.5,1,1.3,1.5,2.4,1.5c1,0,1.8-0.5,2.4-1.5C-172.5,796.9-172.2,795.5-172.2,793.7L-172.2,793.7z M-173.3,793.7
			c0,1.5-0.2,2.7-0.6,3.5c-0.4,0.8-0.9,1.2-1.5,1.2c-0.6,0-1.1-0.4-1.5-1.2c-0.4-0.8-0.6-1.9-0.6-3.5c0-1.5,0.2-2.7,0.6-3.5
			c0.3-0.8,0.9-1.2,1.5-1.2c0.6,0,1.1,0.4,1.5,1.2C-173.5,791-173.3,792.2-173.3,793.7L-173.3,793.7z M-165.7,799.2v-1h-3.5v-10
			h-1.1v11H-165.7z M-159.1,796.7c0-0.8-0.2-1.4-0.5-2c-0.4-0.6-0.9-1.2-1.8-1.7c-0.7-0.5-1.2-0.9-1.4-1.3c-0.2-0.4-0.3-0.8-0.3-1.2
			c0-0.4,0.1-0.7,0.3-1c0.2-0.3,0.5-0.4,1-0.4c0.4,0,0.7,0.1,1,0.3c0.3,0.2,0.5,0.6,0.7,1l0.9-0.5c-0.3-0.6-0.6-1-1-1.3
			c-0.4-0.3-0.9-0.5-1.6-0.5c-0.8,0-1.3,0.3-1.8,0.7c-0.4,0.5-0.6,1.1-0.7,1.8c0,0.7,0.2,1.3,0.5,1.8c0.3,0.5,0.9,1,1.7,1.5
			c0.7,0.5,1.2,1,1.5,1.5c0.3,0.5,0.4,1,0.4,1.5c0,0.5-0.1,0.8-0.4,1.1c-0.3,0.3-0.6,0.4-1.1,0.4c-0.4,0-0.7-0.1-1-0.4
			c-0.3-0.3-0.5-0.7-0.7-1.2l-1,0.5c0.2,0.7,0.6,1.2,1,1.6c0.4,0.4,1,0.6,1.7,0.6c0.8,0,1.5-0.3,2-0.8
			C-159.4,798.2-159.1,797.5-159.1,796.7L-159.1,796.7z"/>
		<path display="inline" fill="#020405" d="M-151.4,799.2l-2.6-11h-1.2l-2.6,11h1.1l0.7-2.9h2.9l0.6,2.9H-151.4z M-153.4,795.3h-2.4
			l0.6-2.7c0.1-0.5,0.2-1.1,0.3-1.6c0.1-0.5,0.2-1,0.3-1.4c0.1,0.4,0.2,0.9,0.3,1.4c0.1,0.5,0.2,1.1,0.3,1.6L-153.4,795.3z
			 M-147.8,794v-1.1h-3v1.1H-147.8z"/>
		<path display="inline" fill="#020405" d="M-178.5,814.5v-11h-1.2l-1.7,5.8c-0.1,0.5-0.3,0.9-0.4,1.4c-0.1,0.4-0.2,0.9-0.2,1.2
			c0-0.4-0.1-0.8-0.2-1.2c-0.1-0.4-0.2-0.9-0.4-1.4l-1.7-5.8h-1.2v11h1v-6.6c0-0.3,0-0.7,0-1c0-0.4,0-0.7,0-0.9
			c0.1,0.3,0.1,0.7,0.2,1c0.1,0.3,0.2,0.7,0.3,1.1l1.9,6.7l1.9-6.7c0.1-0.4,0.2-0.8,0.3-1.2c0.1-0.3,0.2-0.7,0.2-1
			c0,0.3,0,0.6,0,0.9c0,0.4,0,0.7,0,1v6.6L-178.5,814.5L-178.5,814.5z M-170.3,814.5l-2.6-11h-1.2l-2.6,11h1.1l0.7-2.9h2.9l0.6,2.9
			H-170.3z M-172.3,810.6h-2.4l0.6-2.7c0.1-0.5,0.2-1.1,0.3-1.6c0.1-0.5,0.2-1,0.3-1.4c0.1,0.4,0.2,0.9,0.3,1.4
			c0.1,0.5,0.2,1.1,0.3,1.6L-172.3,810.6z"/>
		<path display="inline" fill="#020405" d="M-163.2,810.6v-1.8h-2.6v1h1.5v0.8c0,1-0.1,1.7-0.4,2.2c-0.3,0.5-0.7,0.7-1.3,0.7
			c-0.6,0-1.1-0.4-1.5-1.2c-0.3-0.8-0.5-1.9-0.5-3.5c0-1.5,0.2-2.7,0.5-3.5c0.3-0.8,0.8-1.2,1.4-1.2c0.4,0,0.7,0.1,0.9,0.4
			c0.3,0.3,0.5,0.7,0.7,1.4l1-0.4c-0.2-0.7-0.5-1.3-0.9-1.7c-0.4-0.4-1-0.6-1.7-0.7c-1,0-1.8,0.5-2.3,1.5c-0.5,1-0.8,2.4-0.8,4.2
			c0,1.8,0.3,3.2,0.8,4.2c0.5,1,1.3,1.5,2.3,1.5c1,0,1.7-0.4,2.2-1.1C-163.4,812.8-163.2,811.8-163.2,810.6L-163.2,810.6z
			 M-155.6,814.5v-11h-1v6.3c0,0.3,0,0.7,0,1.2c0,0.4,0,0.8,0,1c-0.1-0.3-0.3-0.7-0.5-1.2c-0.2-0.5-0.4-1-0.6-1.5l-2.5-5.8h-1.1v11
			h1v-6.6c0-0.3,0-0.7,0-1.2c0-0.4,0-0.7,0-1c0.1,0.4,0.3,0.8,0.5,1.3c0.2,0.5,0.4,1,0.6,1.4l2.7,6.1L-155.6,814.5L-155.6,814.5z
			 M-147.4,808.9c0-1.8-0.3-3.2-0.8-4.2c-0.5-1-1.3-1.5-2.4-1.5c-1,0-1.8,0.5-2.4,1.5c-0.5,1-0.8,2.4-0.8,4.2c0,1.8,0.3,3.2,0.8,4.2
			c0.5,1,1.3,1.5,2.4,1.5c1,0,1.8-0.5,2.4-1.5C-147.6,812.1-147.4,810.7-147.4,808.9L-147.4,808.9z M-148.5,808.9
			c0,1.5-0.2,2.7-0.6,3.5c-0.4,0.8-0.9,1.2-1.5,1.2s-1.1-0.4-1.5-1.2c-0.4-0.8-0.6-1.9-0.6-3.5c0-1.5,0.2-2.7,0.6-3.5
			c0.3-0.8,0.9-1.2,1.5-1.2c0.6,0,1.1,0.4,1.5,1.2C-148.7,806.2-148.5,807.4-148.5,808.9L-148.5,808.9z M-140.9,814.5v-1h-3.5v-10
			h-1.1v11H-140.9z M-138,814.5v-11h-1.1v11H-138z M-129.8,814.5l-2.6-11h-1.2l-2.6,11h1.1l0.7-2.9h2.9l0.6,2.9H-129.8z
			 M-131.8,810.6h-2.4l0.6-2.7c0.1-0.5,0.2-1.1,0.3-1.6c0.1-0.5,0.2-1,0.3-1.4c0.1,0.4,0.2,0.9,0.3,1.4c0.1,0.5,0.2,1.1,0.3,1.6
			L-131.8,810.6z"/>
		<path display="inline" fill="#020405" d="M-180,827.5l-0.9-0.5c-0.2,0.6-0.5,1.1-0.7,1.3c-0.3,0.3-0.6,0.4-1,0.4
			c-0.6,0-1.1-0.4-1.5-1.2c-0.3-0.8-0.5-1.9-0.5-3.5c0-1.5,0.2-2.7,0.5-3.5c0.3-0.8,0.8-1.2,1.4-1.2c0.4,0,0.7,0.1,0.9,0.4
			c0.3,0.3,0.5,0.7,0.7,1.4l1-0.4c-0.3-0.8-0.6-1.3-1-1.8c-0.4-0.4-1-0.6-1.6-0.6c-1,0-1.8,0.5-2.3,1.5c-0.5,1-0.8,2.4-0.8,4.2
			c0,1.8,0.3,3.2,0.8,4.2c0.5,1,1.3,1.5,2.3,1.5c0.7,0,1.3-0.2,1.7-0.6C-180.6,828.8-180.2,828.3-180,827.5L-180,827.5z
			 M-173.4,829.7v-1h-3.8v-4.4h2.3v-1h-2.3v-3.6h3.6v-1h-4.7v11L-173.4,829.7L-173.4,829.7z M-165.9,829.7v-11h-1v6.3
			c0,0.3,0,0.7,0,1.2c0,0.4,0,0.8,0,1c-0.1-0.3-0.3-0.7-0.5-1.2c-0.2-0.5-0.4-1-0.6-1.5l-2.5-5.8h-1.1v11h1v-6.6c0-0.4,0-0.7,0-1.2
			c0-0.4,0-0.7,0-1c0.1,0.4,0.3,0.8,0.5,1.3c0.2,0.5,0.4,1,0.6,1.4l2.6,6.1L-165.9,829.7L-165.9,829.7z M-158.7,819.7v-1h-5.6v1h2.2
			v10h1.1v-10H-158.7z M-152.2,829.7v-1h-3.8v-4.4h2.3v-1h-2.3v-3.6h3.6v-1h-4.7v11L-152.2,829.7L-152.2,829.7z M-144.9,829.7
			l-1.7-5.3c0.5-0.2,0.9-0.6,1.2-1c0.3-0.5,0.5-1.1,0.5-1.8c0-1-0.3-1.7-0.8-2.2c-0.5-0.5-1.2-0.7-2-0.7h-2.7v11h1.1v-5
			c0.1,0,0.2,0,0.5,0c0.2,0,0.4,0,0.7,0c0.2,0,0.3,0,0.4,0l1.7,5H-144.9z M-146.1,821.7c0,0.7-0.2,1.2-0.5,1.5
			c-0.3,0.3-0.8,0.5-1.4,0.5h-1.4v-4h1.5c0.6,0,1,0.2,1.3,0.5C-146.2,820.5-146.1,821-146.1,821.7L-146.1,821.7z"/>
	</g>
</g>
</svg>
