<?xml version="1.0" encoding="utf-8"?>
<!-- Generator: Adobe Illustrator 18.0.0, SVG Export Plug-In . SVG Version: 6.00 Build 0)  -->
<!DOCTYPE svg PUBLIC "-//W3C//DTD SVG 1.1//EN" "http://www.w3.org/Graphics/SVG/1.1/DTD/svg11.dtd">
<svg version="1.1" xmlns="http://www.w3.org/2000/svg" xmlns:xlink="http://www.w3.org/1999/xlink" x="0px" y="0px"
	 viewBox="-114.7 751.9 76.4 79.9" enable-background="new -114.7 751.9 76.4 79.9" xml:space="preserve">
<g id="Layer_1" display="none">
</g>
<g id="Layer_3" display="none">
	<g display="inline">
		<defs>
			<rect id="SVGID_1_" x="-301" y="470" width="900" height="600"/>
		</defs>
		<clipPath id="SVGID_2_">
			<use xlink:href="#SVGID_1_"  overflow="visible"/>
		</clipPath>
		<g clip-path="url(#SVGID_2_)">
			<polygon fill="#BCBEC0" points="-300.6,441.1 610.3,441.1 610.3,1187.7 -300.6,1187.7 			"/>
			<g>
				<g>
					<defs>
						<rect id="SVGID_3_" x="-300.6" y="441.1" width="910.9" height="746.6"/>
					</defs>
					<clipPath id="SVGID_4_">
						<use xlink:href="#SVGID_3_"  overflow="visible"/>
					</clipPath>
					<polygon clip-path="url(#SVGID_4_)" fill="#A7A9AC" points="53.4,729 83.2,729 83.2,688.2 101.8,688.2 100.7,648.7 83.2,648.7 
						83.2,551.3 54.7,551.3 53.6,466.9 -212.5,468 -212.5,436.3 610.1,436.3 610.1,973 422.7,973 423.8,648.7 142.3,648.7 
						141.8,688.2 141.8,769.1 93.4,769.1 93.4,824.9 52.4,824.9 					"/>
				</g>
			</g>
		</g>
		<polygon clip-path="url(#SVGID_2_)" fill="#E6E7E8" points="-188.4,832.6 -149.3,832.6 -149.3,824.6 -137.9,824.6 -137.9,816.5 
			-64.5,816.5 -64.5,796.8 -58.1,796.8 -58.1,699.6 -42.4,699.6 -42.4,744.1 3.1,744.1 3.1,778.5 16,778.5 16,819.4 56.6,819.4 
			56.6,828.9 96.4,828.9 96.4,792.4 143.4,792.4 143.4,743.4 228.9,743.4 228.9,782.9 184,782.9 184,834.1 218.2,834.1 218.2,821.6 
			240.3,821.6 240.3,831.1 253.1,831.1 253.1,823.1 279.5,823.1 279.5,805.5 300.8,805.5 300.8,831.1 338.6,831.1 338.6,817.2 
			364.2,817.2 364.2,829.7 381.3,829.7 381.3,818 416.9,818 416.9,831.1 436.9,831.1 436.9,858.9 426.9,858.9 426.9,851.6 
			410.5,851.6 410.5,841.4 388.4,841.4 388.4,856 379.2,856 379.2,879.4 368.5,879.4 368.5,843.6 324.3,843.6 324.3,937.9 
			-88.7,937.9 -88.7,860.4 -120.8,860.4 -120.8,886.7 -188.9,886.7 		"/>
		<g clip-path="url(#SVGID_2_)">
			<g>
				<defs>
					<rect id="SVGID_5_" x="-300.6" y="441.1" width="910.9" height="746.6"/>
				</defs>
				<clipPath id="SVGID_6_">
					<use xlink:href="#SVGID_5_"  overflow="visible"/>
				</clipPath>
				<path clip-path="url(#SVGID_6_)" fill="none" stroke="#FFFFFF" stroke-width="1.5" stroke-miterlimit="3.8637" d="M-311.9,837.6
					h933.8 M233.9,1191.7V435.1 M52.3,1191.7V430.8 M-129.3,1191.7V430.8 M-75.9,837v92.1 M-310.8,930.1h545.4 M422.7,1192.4V649.8
					 M-317.4,650.3h942.8"/>
			</g>
		</g>
	</g>
</g>
<g id="Layer_2">
	<g>
		<polygon points="-49.3,778.8 -38.2,778.8 -38.2,830.7 -49.3,830.7 		"/>
		<polygon points="-58,805.3 -38.2,805.3 -38.2,831.8 -58,831.8 		"/>
		<path fill="#020405" d="M-108.3,763.1l-2.6-11h-1.2l-2.6,11h1.1l0.7-2.9h2.9l0.6,2.9H-108.3z M-110.3,759.2h-2.4l0.6-2.7
			c0.1-0.5,0.2-1.1,0.3-1.6c0.1-0.5,0.2-1,0.3-1.4c0.1,0.4,0.2,0.9,0.3,1.4c0.1,0.5,0.2,1.1,0.3,1.6L-110.3,759.2z M-101.7,760.6
			c0-0.8-0.2-1.4-0.5-2c-0.4-0.6-0.9-1.2-1.8-1.7c-0.7-0.5-1.2-0.9-1.4-1.3c-0.2-0.4-0.3-0.8-0.3-1.2c0-0.4,0.1-0.7,0.3-1
			c0.2-0.3,0.5-0.4,1-0.4c0.4,0,0.7,0.1,1,0.3c0.3,0.2,0.5,0.6,0.7,1l0.9-0.5c-0.3-0.6-0.6-1-1-1.3c-0.4-0.3-0.9-0.5-1.6-0.5
			c-0.8,0-1.3,0.3-1.8,0.7c-0.4,0.5-0.6,1.1-0.7,1.8c0,0.7,0.2,1.3,0.5,1.8c0.3,0.5,0.9,1,1.7,1.5c0.7,0.5,1.2,1,1.5,1.5
			c0.3,0.5,0.4,1,0.4,1.5c0,0.5-0.1,0.8-0.4,1.1c-0.3,0.3-0.6,0.4-1.1,0.4c-0.4,0-0.7-0.1-1-0.4c-0.3-0.3-0.5-0.7-0.7-1.2l-1,0.5
			c0.2,0.7,0.6,1.2,1,1.6c0.4,0.4,1,0.6,1.7,0.6c0.8,0,1.5-0.3,2-0.8C-102,762.1-101.7,761.4-101.7,760.6L-101.7,760.6z
			 M-98.7,763.1v-11h-1.1v11H-98.7z M-90.5,763.1l-2.6-11h-1.2l-2.6,11h1.1l0.7-2.9h2.9l0.6,2.9H-90.5z M-92.5,759.2h-2.4l0.6-2.7
			c0.1-0.5,0.2-1.1,0.3-1.6c0.1-0.5,0.2-1,0.3-1.4c0.1,0.4,0.2,0.9,0.3,1.4c0.1,0.5,0.2,1.1,0.3,1.6L-92.5,759.2z"/>
		<path fill="#020405" d="M-83,763.1v-11h-1v6.3c0,0.3,0,0.7,0,1.2c0,0.4,0,0.8,0,1c-0.1-0.3-0.3-0.7-0.5-1.2
			c-0.2-0.5-0.4-1-0.6-1.5l-2.5-5.8h-1.1v11h1v-6.6c0-0.3,0-0.7,0-1.2c0-0.4,0-0.7,0-1c0.1,0.4,0.3,0.8,0.5,1.3
			c0.2,0.5,0.4,1,0.6,1.4l2.6,6.1L-83,763.1L-83,763.1z"/>
		<path fill="#020405" d="M-108.4,767.3h-1.1l-1.5,6.7c-0.1,0.5-0.2,1-0.3,1.5c-0.1,0.5-0.2,1-0.2,1.4c-0.1-0.4-0.1-0.9-0.2-1.4
			c-0.1-0.5-0.2-1-0.3-1.5l-1.5-6.7h-1.1l2.6,11h1.1L-108.4,767.3z M-105.5,778.4v-11h-1.1v11H-105.5z M-98.6,778.4v-1h-3.5v-10
			h-1.1v11H-98.6z M-92.3,778.4v-1h-3.5v-10h-1.1v11H-92.3z"/>
		<path fill="#020405" d="M-84.7,778.4l-2.6-11h-1.2l-2.6,11h1.1l0.7-2.9h2.9l0.6,2.9H-84.7z M-86.7,774.5h-2.4l0.6-2.7
			c0.1-0.5,0.2-1.1,0.3-1.6c0.1-0.5,0.2-1,0.3-1.4c0.1,0.4,0.2,0.9,0.3,1.4c0.1,0.5,0.2,1.1,0.3,1.6L-86.7,774.5z M-77.5,774.5v-1.8
			h-2.6v1h1.5v0.8c0,1-0.1,1.7-0.4,2.2c-0.3,0.5-0.7,0.7-1.3,0.7c-0.6,0-1.1-0.4-1.5-1.2s-0.5-1.9-0.5-3.5c0-1.5,0.2-2.7,0.5-3.5
			c0.3-0.8,0.8-1.2,1.4-1.2c0.4,0,0.7,0.1,0.9,0.4c0.3,0.3,0.5,0.7,0.7,1.4l1-0.4c-0.2-0.7-0.5-1.3-0.9-1.7c-0.4-0.4-1-0.6-1.7-0.7
			c-1,0-1.8,0.5-2.3,1.5c-0.5,1-0.8,2.4-0.8,4.2c0,1.8,0.3,3.2,0.8,4.2s1.3,1.5,2.3,1.5c1,0,1.7-0.4,2.2-1.1
			C-77.8,776.7-77.5,775.7-77.5,774.5L-77.5,774.5z"/>
		<polygon fill="#020405" points="-70.8,778.4 -70.8,777.3 -74.6,777.3 -74.6,773 -72.3,773 -72.3,772 -74.6,772 -74.6,768.4 
			-71,768.4 -71,767.3 -75.7,767.3 -75.7,778.4 		"/>
		<path fill="#020405" d="M-107.2,793.6v-11h-1.2l-1.7,5.8c-0.1,0.5-0.3,0.9-0.4,1.4c-0.1,0.4-0.2,0.9-0.2,1.2
			c0-0.4-0.1-0.8-0.2-1.2c-0.1-0.4-0.2-0.9-0.4-1.4l-1.7-5.8h-1.2v11h1V787c0-0.3,0-0.7,0-1c0-0.4,0-0.7,0-0.9
			c0.1,0.3,0.1,0.7,0.2,1c0.1,0.3,0.2,0.7,0.3,1.2l1.9,6.7l1.9-6.7c0.1-0.4,0.2-0.8,0.3-1.2c0.1-0.3,0.2-0.7,0.2-1
			c0,0.3,0,0.6,0,0.9c0,0.4,0,0.7,0,1v6.6L-107.2,793.6L-107.2,793.6z M-99.1,793.6l-2.6-11h-1.2l-2.6,11h1.1l0.7-2.9h2.9l0.6,2.9
			H-99.1z M-101.1,789.7h-2.4l0.6-2.7c0.1-0.5,0.2-1.1,0.3-1.6c0.1-0.5,0.2-1,0.3-1.4c0.1,0.4,0.2,0.9,0.3,1.4
			c0.1,0.5,0.2,1.1,0.3,1.6L-101.1,789.7z M-92.8,793.6v-1h-3.5v-10h-1.1v11H-92.8z"/>
		<polygon fill="#020405" points="-86.4,793.6 -86.4,792.6 -90,792.6 -90,782.6 -91.1,782.6 -91.1,793.6 		"/>
	</g>
	<g display="none">
		<polygon display="inline" points="-123.9,819.1 -97.4,819.1 -97.4,832 -123.9,832 		"/>
	</g>
</g>
</svg>
